Crimson-BoldItalic.ufo
<glyph name="quotesingle" format="1">
  <advance width="180"/>
  <unicode hex="0027"/>
  <outline>
    <contour>
      <point x="178" y="698" type="curve" smooth="yes"/>
      <point x="206" y="698"/>
      <point x="217" y="692"/>
      <point x="206" y="633" type="curve" smooth="yes"/>
      <point x="195" y="577"/>
      <point x="160" y="516"/>
      <point x="141" y="449" type="curve" smooth="yes"/>
      <point x="138" y="439"/>
      <point x="127" y="434"/>
      <point x="120" y="434" type="curve" smooth="yes"/>
      <point x="113" y="434"/>
      <point x="104" y="439"/>
      <point x="105" y="447" type="curve" smooth="yes"/>
      <point x="114" y="537"/>
      <point x="105" y="590"/>
      <point x="105" y="636" type="curve"/>
      <point x="108" y="654"/>
      <point x="141" y="698"/>
    </contour>
  </outline>
</glyph>
<glyph name="parenright" format="1">
  <advance width="275"/>
  <unicode hex="0029"/>
  <outline>
    <contour>
      <point x="-29" y="-121" type="curve"/>
      <point x="-35" y="-119"/>
      <point x="-39" y="-112"/>
      <point x="-38" y="-108" type="curve"/>
      <point x="37" y="-37"/>
      <point x="206" y="209"/>
      <point x="184" y="463" type="curve" smooth="yes"/>
      <point x="172" y="604"/>
      <point x="135" y="681"/>
      <point x="75" y="736" type="curve"/>
      <point x="75" y="739"/>
      <point x="75" y="746"/>
      <point x="81" y="748" type="curve"/>
      <point x="151" y="726"/>
      <point x="239" y="623"/>
      <point x="254" y="450" type="curve" smooth="yes"/>
      <point x="280" y="153"/>
      <point x="68" y="-49"/>
    </contour>
  </outline>
</glyph>
<glyph name="asterisk" format="1">
  <advance width="425"/>
  <unicode hex="002A"/>
  <outline>
    <contour>
      <point x="270" y="516" type="curve" smooth="yes"/>
      <point x="295" y="516"/>
      <point x="333" y="635"/>
      <point x="390" y="635" type="curve" smooth="yes"/>
      <point x="404" y="635"/>
      <point x="417" y="626"/>
      <point x="417" y="602" type="curve" smooth="yes"/>
      <point x="417" y="540"/>
      <point x="286" y="524"/>
      <point x="286" y="492" type="curve" smooth="yes"/>
      <point x="286" y="465"/>
      <point x="407" y="485"/>
      <point x="407" y="424" type="curve" smooth="yes"/>
      <point x="407" y="400"/>
      <point x="382" y="378"/>
      <point x="362" y="378" type="curve" smooth="yes"/>
      <point x="319" y="378"/>
      <point x="292" y="462"/>
      <point x="267" y="462" type="curve" smooth="yes"/>
      <point x="244" y="462"/>
      <point x="259" y="396"/>
      <point x="241" y="339" type="curve" smooth="yes"/>
      <point x="232" y="309"/>
      <point x="211" y="301"/>
      <point x="197" y="301" type="curve" smooth="yes"/>
      <point x="181" y="301"/>
      <point x="165" y="317"/>
      <point x="165" y="334" type="curve" smooth="yes"/>
      <point x="165" y="374"/>
      <point x="233" y="438"/>
      <point x="233" y="464" type="curve" smooth="yes"/>
      <point x="233" y="469"/>
      <point x="232" y="472"/>
      <point x="225" y="472" type="curve" smooth="yes"/>
      <point x="204" y="472"/>
      <point x="143" y="428"/>
      <point x="105" y="428" type="curve" smooth="yes"/>
      <point x="88" y="428"/>
      <point x="73" y="442"/>
      <point x="73" y="458" type="curve" smooth="yes"/>
      <point x="73" y="471"/>
      <point x="81" y="508"/>
      <point x="135" y="508" type="curve" smooth="yes"/>
      <point x="164" y="508"/>
      <point x="195" y="500"/>
      <point x="215" y="500" type="curve" smooth="yes"/>
      <point x="237" y="500"/>
      <point x="237" y="503"/>
      <point x="237" y="510" type="curve" smooth="yes"/>
      <point x="237" y="534"/>
      <point x="184" y="573"/>
      <point x="184" y="616" type="curve" smooth="yes"/>
      <point x="184" y="641"/>
      <point x="203" y="665"/>
      <point x="228" y="665" type="curve" smooth="yes"/>
      <point x="263" y="665"/>
      <point x="261" y="624"/>
      <point x="261" y="584" type="curve" smooth="yes"/>
      <point x="261" y="578"/>
      <point x="256" y="516"/>
    </contour>
  </outline>
</glyph>
<glyph name="plus" format="1">
  <advance width="467"/>
  <unicode hex="002B"/>
  <outline>
    <contour>
      <point x="28" y="213" type="line" smooth="yes"/>
      <point x="25" y="213"/>
      <point x="23" y="216"/>
      <point x="23" y="221" type="curve" smooth="yes"/>
      <point x="23" y="234"/>
      <point x="28" y="251"/>
      <point x="38" y="264" type="curve"/>
      <point x="205" y="264" type="line"/>
      <point x="238" y="435" type="line" smooth="yes"/>
      <point x="240" y="448"/>
      <point x="283" y="451"/>
      <point x="287" y="451" type="curve" smooth="yes"/>
      <point x="295" y="451"/>
      <point x="297" y="447"/>
      <point x="296" y="443" type="curve" smooth="yes"/>
      <point x="261" y="264" type="line"/>
      <point x="429" y="264" type="line" smooth="yes"/>
      <point x="431" y="264"/>
      <point x="432" y="261"/>
      <point x="432" y="256" type="curve" smooth="yes"/>
      <point x="432" y="243"/>
      <point x="430" y="225"/>
      <point x="419" y="213" type="curve"/>
      <point x="253" y="213" type="line"/>
      <point x="218" y="39" type="line" smooth="yes"/>
      <point x="216" y="29"/>
      <point x="191" y="23"/>
      <point x="175" y="23" type="curve" smooth="yes"/>
      <point x="165" y="23"/>
      <point x="160" y="27"/>
      <point x="161" y="31" type="curve" smooth="yes"/>
      <point x="197" y="213" type="line"/>
    </contour>
  </outline>
</glyph>
<glyph name="comma" format="1">
  <advance width="214"/>
  <unicode hex="002C"/>
  <outline>
    <contour>
      <point x="-30" y="-103" type="curve"/>
      <point x="-22" y="-98"/>
      <point x="44" y="-49"/>
      <point x="44" y="0" type="curve" smooth="yes"/>
      <point x="44" y="29"/>
      <point x="9" y="29"/>
      <point x="9" y="68" type="curve" smooth="yes"/>
      <point x="9" y="107"/>
      <point x="50" y="135"/>
      <point x="93" y="135" type="curve" smooth="yes"/>
      <point x="105" y="135"/>
      <point x="120" y="129"/>
      <point x="125" y="123" type="curve"/>
      <point x="127" y="118"/>
      <point x="128" y="112"/>
      <point x="128" y="101" type="curve" smooth="yes"/>
      <point x="128" y="69"/>
      <point x="118" y="25"/>
      <point x="99" y="-10" type="curve" smooth="yes"/>
      <point x="67" y="-67"/>
      <point x="36" y="-91"/>
      <point x="-14" y="-123" type="curve"/>
      <point x="-22" y="-121"/>
      <point x="-30" y="-113"/>
    </contour>
  </outline>
</glyph>
<glyph name="zero" format="1">
  <advance width="481"/>
  <unicode hex="0030"/>
  <outline>
    <contour>
      <point x="208.132" y="152" type="curve" smooth="yes"/>
      <point x="208.132" y="93"/>
      <point x="220.132" y="33"/>
      <point x="252.132" y="33" type="curve" smooth="yes"/>
      <point x="313.132" y="33"/>
      <point x="397.132" y="239"/>
      <point x="397.132" y="462" type="curve" smooth="yes"/>
      <point x="397.132" y="494"/>
      <point x="396.132" y="604"/>
      <point x="353.132" y="604" type="curve" smooth="yes"/>
      <point x="290.132" y="604"/>
      <point x="208.132" y="398"/>
    </contour>
    <contour>
      <point x="84.1318" y="295" type="curve" smooth="yes"/>
      <point x="122.132" y="488"/>
      <point x="256.132" y="642"/>
      <point x="364.132" y="642" type="curve" smooth="yes"/>
      <point x="494.132" y="642"/>
      <point x="552.132" y="503"/>
      <point x="519.132" y="334" type="curve" smooth="yes"/>
      <point x="486.132" y="165"/>
      <point x="359.132" y="-5"/>
      <point x="235.132" y="-5" type="curve" smooth="yes"/>
      <point x="122.132" y="-5"/>
      <point x="51.1318" y="126"/>
    </contour>
  </outline>
</glyph>
<glyph name="two" format="1">
  <advance width="481"/>
  <unicode hex="0032"/>
  <outline>
    <contour>
      <point x="508.938" y="490" type="curve" smooth="yes"/>
      <point x="508.938" y="404"/>
      <point x="449.938" y="338"/>
      <point x="372.938" y="270" type="curve" smooth="yes"/>
      <point x="281.938" y="190"/>
      <point x="181.938" y="110"/>
      <point x="183.938" y="110" type="curve"/>
      <point x="355.938" y="110" type="line" smooth="yes"/>
      <point x="408.938" y="110"/>
      <point x="428.938" y="144"/>
      <point x="440.938" y="176" type="curve" smooth="yes"/>
      <point x="442.938" y="181"/>
      <point x="447.938" y="185"/>
      <point x="455.938" y="185" type="curve" smooth="yes"/>
      <point x="462.938" y="185"/>
      <point x="468.938" y="181"/>
      <point x="472.938" y="178" type="curve"/>
      <point x="451.938" y="128"/>
      <point x="401.938" y="18"/>
      <point x="393.938" y="0" type="curve"/>
      <point x="393.938" y="0"/>
      <point x="60.9375" y="0"/>
      <point x="53.9375" y="0" type="curve"/>
      <point x="49.9375" y="0"/>
      <point x="45.9375" y="10"/>
      <point x="46.9375" y="22" type="curve"/>
      <point x="101.938" y="72"/>
      <point x="215.938" y="191"/>
      <point x="271.938" y="260" type="curve" smooth="yes"/>
      <point x="333.938" y="336"/>
      <point x="366.938" y="406"/>
      <point x="366.938" y="468" type="curve" smooth="yes"/>
      <point x="366.938" y="520"/>
      <point x="337.938" y="557"/>
      <point x="283.938" y="557" type="curve" smooth="yes"/>
      <point x="225.938" y="557"/>
      <point x="179.938" y="502"/>
      <point x="172.938" y="493" type="curve"/>
      <point x="163.938" y="493"/>
      <point x="154.938" y="505"/>
      <point x="153.938" y="513" type="curve"/>
      <point x="164.938" y="538"/>
      <point x="259.938" y="642"/>
      <point x="356.938" y="642" type="curve" smooth="yes"/>
      <point x="429.938" y="642"/>
      <point x="508.938" y="587"/>
    </contour>
  </outline>
</glyph>
<glyph name="three" format="1">
  <advance width="481"/>
  <unicode hex="0033"/>
  <outline>
    <contour>
      <point x="355.746" y="642" type="curve" smooth="yes"/>
      <point x="402.746" y="642"/>
      <point x="480.746" y="615"/>
      <point x="480.746" y="515" type="curve" smooth="yes"/>
      <point x="480.746" y="429"/>
      <point x="395.746" y="383"/>
      <point x="357.746" y="372" type="curve"/>
      <point x="413.746" y="365"/>
      <point x="477.746" y="311"/>
      <point x="477.746" y="237" type="curve" smooth="yes"/>
      <point x="477.746" y="83"/>
      <point x="315.746" y="-5"/>
      <point x="202.746" y="-5" type="curve" smooth="yes"/>
      <point x="135.746" y="-5"/>
      <point x="90.7461" y="13"/>
      <point x="67.7461" y="29" type="curve"/>
      <point x="63.7461" y="34"/>
      <point x="58.7461" y="48"/>
      <point x="58.7461" y="59" type="curve" smooth="yes"/>
      <point x="58.7461" y="113"/>
      <point x="95.7461" y="126"/>
      <point x="117.746" y="126" type="curve" smooth="yes"/>
      <point x="153.746" y="126"/>
      <point x="160.746" y="97"/>
      <point x="169.746" y="78" type="curve" smooth="yes"/>
      <point x="181.746" y="54"/>
      <point x="207.746" y="33"/>
      <point x="232.746" y="33" type="curve" smooth="yes"/>
      <point x="289.746" y="33"/>
      <point x="346.746" y="103"/>
      <point x="346.746" y="216" type="curve" smooth="yes"/>
      <point x="346.746" y="283"/>
      <point x="322.746" y="321"/>
      <point x="254.746" y="321" type="curve" smooth="yes"/>
      <point x="240.746" y="321"/>
      <point x="223.746" y="318"/>
      <point x="211.746" y="315" type="curve"/>
      <point x="208.746" y="320"/>
      <point x="207.746" y="328"/>
      <point x="207.746" y="333" type="curve" smooth="yes"/>
      <point x="207.746" y="337"/>
      <point x="209.746" y="344"/>
      <point x="211.746" y="347" type="curve"/>
      <point x="276.746" y="355"/>
      <point x="366.746" y="398"/>
      <point x="366.746" y="474" type="curve" smooth="yes"/>
      <point x="366.746" y="534"/>
      <point x="331.746" y="563"/>
      <point x="289.746" y="563" type="curve" smooth="yes"/>
      <point x="233.746" y="563"/>
      <point x="183.746" y="498"/>
      <point x="174.746" y="490" type="curve"/>
      <point x="166.746" y="490"/>
      <point x="154.746" y="504"/>
      <point x="154.746" y="513" type="curve"/>
      <point x="183.746" y="563"/>
      <point x="275.746" y="642"/>
    </contour>
  </outline>
</glyph>
<glyph name="four" format="1">
  <advance width="481"/>
  <unicode hex="0034"/>
  <outline>
    <contour>
      <point x="502.647" y="642" type="curve" smooth="yes"/>
      <point x="511.647" y="642"/>
      <point x="525.647" y="624"/>
      <point x="523.647" y="616" type="curve" smooth="yes"/>
      <point x="451.647" y="242" type="line"/>
      <point x="504.647" y="242" type="line" smooth="yes"/>
      <point x="510.647" y="242"/>
      <point x="512.647" y="234"/>
      <point x="512.647" y="226" type="curve" smooth="yes"/>
      <point x="512.647" y="208"/>
      <point x="502.647" y="184"/>
      <point x="495.647" y="175" type="curve"/>
      <point x="437.647" y="175" type="line"/>
      <point x="404.647" y="2" type="line"/>
      <point x="404.647" y="2"/>
      <point x="369.647" y="-5"/>
      <point x="333.647" y="-5" type="curve" smooth="yes"/>
      <point x="311.647" y="-5"/>
      <point x="278.647" y="-2"/>
      <point x="279.647" y="5" type="curve" smooth="yes"/>
      <point x="312.647" y="175" type="line"/>
      <point x="57.6475" y="175" type="line"/>
      <point x="51.6475" y="179"/>
      <point x="48.6475" y="192"/>
      <point x="49.6475" y="198" type="curve"/>
      <point x="474.647" y="626" type="line" smooth="yes"/>
      <point x="484.647" y="636"/>
      <point x="495.647" y="642"/>
    </contour>
    <contour>
      <point x="367.647" y="465" type="line"/>
      <point x="147.647" y="242" type="line"/>
      <point x="324.647" y="242" type="line"/>
    </contour>
  </outline>
</glyph>
<glyph name="nine" format="1">
  <advance width="481"/>
  <unicode hex="0039"/>
  <outline>
    <contour>
      <point x="242.137" y="262" type="curve" smooth="yes"/>
      <point x="165.137" y="262"/>
      <point x="120.137" y="320"/>
      <point x="120.137" y="408" type="curve" smooth="yes"/>
      <point x="120.137" y="538"/>
      <point x="231.137" y="642"/>
      <point x="358.137" y="642" type="curve" smooth="yes"/>
      <point x="438.137" y="642"/>
      <point x="527.137" y="572"/>
      <point x="527.137" y="458" type="curve" smooth="yes"/>
      <point x="527.137" y="366"/>
      <point x="488.137" y="264"/>
      <point x="400.137" y="169" type="curve" smooth="yes"/>
      <point x="333.137" y="96"/>
      <point x="217.137" y="12"/>
      <point x="89.1367" y="-6" type="curve"/>
      <point x="83.1367" y="-2"/>
      <point x="83.1367" y="12"/>
      <point x="84.1367" y="18" type="curve"/>
      <point x="207.137" y="70"/>
      <point x="288.137" y="146"/>
      <point x="341.137" y="260" type="curve" smooth="yes"/>
      <point x="382.137" y="349"/>
      <point x="397.137" y="434"/>
      <point x="397.137" y="503" type="curve" smooth="yes"/>
      <point x="397.137" y="572"/>
      <point x="376.137" y="607"/>
      <point x="350.137" y="607" type="curve" smooth="yes"/>
      <point x="294.137" y="607"/>
      <point x="251.137" y="485"/>
      <point x="251.137" y="408" type="curve" smooth="yes"/>
      <point x="251.137" y="359"/>
      <point x="262.137" y="314"/>
      <point x="303.137" y="314" type="curve" smooth="yes"/>
      <point x="312.137" y="314"/>
      <point x="320.137" y="314"/>
      <point x="326.137" y="317" type="curve"/>
      <point x="329.137" y="315"/>
      <point x="331.137" y="310"/>
      <point x="331.137" y="302" type="curve" smooth="yes"/>
      <point x="331.137" y="290"/>
      <point x="279.137" y="262"/>
    </contour>
  </outline>
</glyph>
<glyph name="colon" format="1">
  <advance width="242"/>
  <unicode hex="003A"/>
  <outline>
    <contour>
      <point x="79" y="376" type="curve" smooth="yes"/>
      <point x="86" y="413"/>
      <point x="120" y="443"/>
      <point x="155" y="443" type="curve" smooth="yes"/>
      <point x="189" y="443"/>
      <point x="212" y="413"/>
      <point x="205" y="376" type="curve" smooth="yes"/>
      <point x="198" y="339"/>
      <point x="165" y="305"/>
      <point x="130" y="305" type="curve" smooth="yes"/>
      <point x="94" y="305"/>
      <point x="72" y="339"/>
    </contour>
    <contour>
      <point x="18" y="60" type="curve" smooth="yes"/>
      <point x="25" y="97"/>
      <point x="59" y="127"/>
      <point x="94" y="127" type="curve" smooth="yes"/>
      <point x="128" y="127"/>
      <point x="151" y="97"/>
      <point x="144" y="60" type="curve" smooth="yes"/>
      <point x="137" y="23"/>
      <point x="104" y="-11"/>
      <point x="69" y="-11" type="curve" smooth="yes"/>
      <point x="33" y="-11"/>
      <point x="11" y="23"/>
    </contour>
  </outline>
</glyph>
<glyph name="semicolon" format="1">
  <advance width="238"/>
  <unicode hex="003B"/>
  <outline>
    <contour>
      <point x="-18" y="-103" type="curve"/>
      <point x="-10" y="-98"/>
      <point x="56" y="-49"/>
      <point x="56" y="0" type="curve" smooth="yes"/>
      <point x="56" y="29"/>
      <point x="21" y="29"/>
      <point x="21" y="68" type="curve" smooth="yes"/>
      <point x="21" y="107"/>
      <point x="62" y="135"/>
      <point x="105" y="135" type="curve" smooth="yes"/>
      <point x="117" y="135"/>
      <point x="132" y="129"/>
      <point x="137" y="123" type="curve"/>
      <point x="139" y="118"/>
      <point x="140" y="112"/>
      <point x="140" y="101" type="curve" smooth="yes"/>
      <point x="140" y="69"/>
      <point x="130" y="25"/>
      <point x="111" y="-10" type="curve" smooth="yes"/>
      <point x="79" y="-67"/>
      <point x="48" y="-91"/>
      <point x="-2" y="-123" type="curve"/>
      <point x="-10" y="-121"/>
      <point x="-18" y="-113"/>
    </contour>
    <contour>
      <point x="202" y="376" type="curve" smooth="yes"/>
      <point x="195" y="339"/>
      <point x="162" y="305"/>
      <point x="127" y="305" type="curve" smooth="yes"/>
      <point x="91" y="305"/>
      <point x="69" y="339"/>
      <point x="76" y="376" type="curve" smooth="yes"/>
      <point x="83" y="413"/>
      <point x="117" y="443"/>
      <point x="152" y="443" type="curve" smooth="yes"/>
      <point x="186" y="443"/>
      <point x="209" y="413"/>
    </contour>
  </outline>
</glyph>
<glyph name="greater" format="1">
  <advance width="467"/>
  <unicode hex="003E"/>
  <outline>
    <contour>
      <point x="341" y="209" type="line"/>
      <point x="75" y="364" type="line"/>
      <point x="75" y="364"/>
      <point x="72" y="367"/>
      <point x="74" y="373" type="curve" smooth="yes"/>
      <point x="88" y="410"/>
      <point x="98" y="430"/>
      <point x="101" y="430" type="curve" smooth="yes"/>
      <point x="102" y="430"/>
      <point x="103" y="429"/>
      <point x="105" y="428" type="curve" smooth="yes"/>
      <point x="416" y="241" type="line" smooth="yes"/>
      <point x="424" y="236"/>
      <point x="430" y="228"/>
      <point x="428" y="217" type="curve" smooth="yes"/>
      <point x="425" y="200"/>
      <point x="419" y="185"/>
      <point x="403" y="177" type="curve" smooth="yes"/>
      <point x="18" y="-13" type="line" smooth="yes"/>
      <point x="16" y="-14"/>
      <point x="14" y="-15"/>
      <point x="13" y="-15" type="curve" smooth="yes"/>
      <point x="7" y="-15"/>
      <point x="8" y="38"/>
      <point x="9" y="45" type="curve" smooth="yes"/>
      <point x="10" y="50"/>
      <point x="13" y="51"/>
      <point x="13" y="51" type="curve"/>
    </contour>
  </outline>
</glyph>
<glyph name="question" format="1">
  <advance width="375"/>
  <unicode hex="003F"/>
  <outline>
    <contour>
      <point x="40" y="60" type="curve" smooth="yes"/>
      <point x="47" y="97"/>
      <point x="81" y="127"/>
      <point x="116" y="127" type="curve" smooth="yes"/>
      <point x="150" y="127"/>
      <point x="173" y="97"/>
      <point x="166" y="60" type="curve" smooth="yes"/>
      <point x="159" y="23"/>
      <point x="126" y="-11"/>
      <point x="91" y="-11" type="curve" smooth="yes"/>
      <point x="55" y="-11"/>
      <point x="33" y="23"/>
    </contour>
    <contour>
      <point x="204" y="215" type="curve"/>
      <point x="204" y="209"/>
      <point x="196" y="198"/>
      <point x="191" y="195" type="curve"/>
      <point x="167" y="195"/>
      <point x="78" y="246"/>
      <point x="78" y="302" type="curve" smooth="yes"/>
      <point x="78" y="368"/>
      <point x="133" y="394"/>
      <point x="159" y="412" type="curve" smooth="yes"/>
      <point x="186" y="431"/>
      <point x="236" y="449"/>
      <point x="269" y="477" type="curve" smooth="yes"/>
      <point x="289" y="494"/>
      <point x="300" y="509"/>
      <point x="300" y="534" type="curve" smooth="yes"/>
      <point x="300" y="558"/>
      <point x="288" y="573"/>
      <point x="263" y="573" type="curve" smooth="yes"/>
      <point x="233" y="573"/>
      <point x="202" y="522"/>
      <point x="172" y="522" type="curve" smooth="yes"/>
      <point x="126" y="522"/>
      <point x="114" y="571"/>
      <point x="129" y="609" type="curve"/>
      <point x="141" y="624"/>
      <point x="165" y="646"/>
      <point x="212" y="646" type="curve" smooth="yes"/>
      <point x="295" y="646"/>
      <point x="373" y="574"/>
      <point x="373" y="500" type="curve" smooth="yes"/>
      <point x="373" y="445"/>
      <point x="360" y="404"/>
      <point x="285" y="357" type="curve" smooth="yes"/>
      <point x="269" y="347"/>
      <point x="236" y="333"/>
      <point x="209" y="315" type="curve" smooth="yes"/>
      <point x="187" y="301"/>
      <point x="170" y="284"/>
      <point x="170" y="267" type="curve" smooth="yes"/>
      <point x="170" y="238"/>
      <point x="196" y="220"/>
    </contour>
  </outline>
</glyph>
<glyph name="A" format="1">
  <advance width="620"/>
  <unicode hex="0041"/>
  <outline>
    <contour>
      <point x="61" y="134" type="curve" smooth="yes"/>
      <point x="355" y="624" type="line" smooth="yes"/>
      <point x="363" y="637"/>
      <point x="386" y="662"/>
      <point x="396" y="662" type="curve" smooth="yes"/>
      <point x="404" y="662"/>
      <point x="413" y="658"/>
      <point x="414" y="655" type="curve"/>
      <point x="507" y="148" type="line" smooth="yes"/>
      <point x="513" y="117"/>
      <point x="515" y="97"/>
      <point x="519" y="76" type="curve" smooth="yes"/>
      <point x="527" y="35"/>
      <point x="577" y="33"/>
      <point x="584" y="33" type="curve"/>
      <point x="587" y="24"/>
      <point x="582" y="0"/>
      <point x="578" y="-4" type="curve"/>
      <point x="541" y="-2"/>
      <point x="496" y="4"/>
      <point x="455" y="4" type="curve" smooth="yes"/>
      <point x="412" y="4"/>
      <point x="347" y="-2"/>
      <point x="313" y="-4" type="curve"/>
      <point x="309" y="1"/>
      <point x="316" y="33"/>
      <point x="321" y="33" type="curve"/>
      <point x="337" y="33"/>
      <point x="364" y="39"/>
      <point x="379" y="51" type="curve" smooth="yes"/>
      <point x="386" y="56"/>
      <point x="390" y="61"/>
      <point x="391" y="68" type="curve" smooth="yes"/>
      <point x="393" y="77"/>
      <point x="364" y="220"/>
      <point x="364" y="220" type="curve"/>
      <point x="364" y="220"/>
      <point x="362" y="224"/>
      <point x="359" y="224" type="curve" smooth="yes"/>
      <point x="324" y="226"/>
      <point x="293" y="225"/>
      <point x="270" y="225" type="curve" smooth="yes"/>
      <point x="232" y="225"/>
      <point x="206" y="225"/>
      <point x="173" y="224" type="curve" smooth="yes"/>
      <point x="170" y="224"/>
      <point x="166" y="221"/>
      <point x="165" y="219" type="curve"/>
      <point x="165" y="219"/>
      <point x="131" y="163"/>
      <point x="115" y="135" type="curve" smooth="yes"/>
      <point x="101" y="110"/>
      <point x="83" y="74"/>
      <point x="82" y="67" type="curve" smooth="yes"/>
      <point x="77" y="41"/>
      <point x="140" y="33"/>
      <point x="147" y="33" type="curve"/>
      <point x="151" y="26"/>
      <point x="144" y="0"/>
      <point x="140" y="-4" type="curve"/>
      <point x="108" y="0"/>
      <point x="82" y="4"/>
      <point x="41" y="4" type="curve" smooth="yes"/>
      <point x="-2" y="4"/>
      <point x="-28" y="0"/>
      <point x="-61" y="-4" type="curve"/>
      <point x="-64" y="0"/>
      <point x="-62" y="21"/>
      <point x="-56" y="32" type="curve"/>
      <point x="-45" y="32"/>
      <point x="3" y="48"/>
      <point x="15" y="64" type="curve" smooth="yes"/>
      <point x="36" y="92"/>
      <point x="44" y="106"/>
    </contour>
    <contour>
      <point x="315" y="476" type="line"/>
      <point x="197" y="280" type="line"/>
      <point x="197" y="280"/>
      <point x="197" y="276"/>
      <point x="199" y="276" type="curve" smooth="yes"/>
      <point x="217" y="274"/>
      <point x="254" y="273"/>
      <point x="275" y="273" type="curve" smooth="yes"/>
      <point x="304" y="273"/>
      <point x="321" y="273"/>
      <point x="350" y="275" type="curve" smooth="yes"/>
      <point x="352" y="275"/>
      <point x="354" y="280"/>
      <point x="354" y="280" type="curve"/>
    </contour>
  </outline>
</glyph>
<glyph name="C" format="1">
  <advance width="646"/>
  <unicode hex="0043"/>
  <outline>
    <contour>
      <point x="443" y="624" type="curve" smooth="yes"/>
      <point x="312" y="624"/>
      <point x="196" y="478"/>
      <point x="196" y="268" type="curve" smooth="yes"/>
      <point x="196" y="176"/>
      <point x="234" y="37"/>
      <point x="365" y="37" type="curve" smooth="yes"/>
      <point x="412" y="37"/>
      <point x="455" y="55"/>
      <point x="485" y="80" type="curve" smooth="yes"/>
      <point x="531" y="118"/>
      <point x="571" y="196"/>
      <point x="574" y="204" type="curve"/>
      <point x="588" y="204"/>
      <point x="599" y="199"/>
      <point x="605" y="192" type="curve"/>
      <point x="603" y="181"/>
      <point x="551" y="48"/>
      <point x="537" y="40" type="curve" smooth="yes"/>
      <point x="481" y="9"/>
      <point x="423" y="-7"/>
      <point x="337" y="-7" type="curve" smooth="yes"/>
      <point x="142" y="-7"/>
      <point x="52" y="142"/>
      <point x="52" y="276" type="curve" smooth="yes"/>
      <point x="52" y="526"/>
      <point x="266" y="667"/>
      <point x="443" y="667" type="curve" smooth="yes"/>
      <point x="504" y="667"/>
      <point x="585" y="650"/>
      <point x="638" y="638" type="curve"/>
      <point x="638" y="627"/>
      <point x="627" y="506"/>
      <point x="625" y="494" type="curve" smooth="yes"/>
      <point x="624" y="488"/>
      <point x="614" y="480"/>
      <point x="603" y="480" type="curve" smooth="yes"/>
      <point x="598" y="480"/>
      <point x="594" y="480"/>
      <point x="591" y="484" type="curve"/>
      <point x="589" y="523"/>
      <point x="561" y="624"/>
    </contour>
  </outline>
</glyph>
<glyph name="D" format="1">
  <advance width="720"/>
  <unicode hex="0044"/>
  <outline>
    <contour>
      <point x="296" y="547" type="curve" smooth="yes"/>
      <point x="217" y="141" type="line" smooth="yes"/>
      <point x="216" y="135"/>
      <point x="205" y="82"/>
      <point x="209" y="62" type="curve" smooth="yes"/>
      <point x="212" y="48"/>
      <point x="239" y="39"/>
      <point x="263" y="39" type="curve" smooth="yes"/>
      <point x="415" y="39"/>
      <point x="500" y="119"/>
      <point x="538" y="314" type="curve" smooth="yes"/>
      <point x="576" y="510"/>
      <point x="499" y="620"/>
      <point x="361" y="620" type="curve" smooth="yes"/>
      <point x="340" y="620"/>
      <point x="319" y="619"/>
      <point x="312" y="608" type="curve" smooth="yes"/>
      <point x="305" y="596"/>
      <point x="302" y="576"/>
    </contour>
    <contour>
      <point x="396" y="660" type="curve" smooth="yes"/>
      <point x="611" y="660"/>
      <point x="726" y="522"/>
      <point x="686" y="317" type="curve" smooth="yes"/>
      <point x="641" y="83"/>
      <point x="461" y="-3"/>
      <point x="260" y="-3" type="curve" smooth="yes"/>
      <point x="221" y="-3"/>
      <point x="28" y="-2"/>
      <point x="-8" y="-3" type="curve"/>
      <point x="-11" y="3"/>
      <point x="-7" y="27"/>
      <point x="-1" y="34" type="curve"/>
      <point x="11" y="35"/>
      <point x="55" y="38"/>
      <point x="62" y="51" type="curve" smooth="yes"/>
      <point x="73" y="71"/>
      <point x="79" y="102"/>
      <point x="87" y="145" type="curve" smooth="yes"/>
      <point x="159" y="513" type="line" smooth="yes"/>
      <point x="167" y="556"/>
      <point x="174" y="587"/>
      <point x="170" y="607" type="curve" smooth="yes"/>
      <point x="168" y="620"/>
      <point x="125" y="622"/>
      <point x="113" y="623" type="curve"/>
      <point x="110" y="630"/>
      <point x="116" y="654"/>
      <point x="121" y="660" type="curve"/>
      <point x="162" y="657"/>
      <point x="214" y="657"/>
      <point x="253" y="657" type="curve" smooth="yes"/>
      <point x="292" y="657"/>
      <point x="341" y="659"/>
    </contour>
  </outline>
</glyph>
<glyph name="E" format="1">
  <advance width="572"/>
  <unicode hex="0045"/>
  <outline>
    <contour>
      <point x="253" y="657" type="curve" smooth="yes"/>
      <point x="292" y="657"/>
      <point x="502" y="663"/>
      <point x="557" y="664" type="curve"/>
      <point x="554" y="614"/>
      <point x="555" y="561"/>
      <point x="555" y="516" type="curve"/>
      <point x="552" y="513"/>
      <point x="539" y="511"/>
      <point x="532" y="511" type="curve" smooth="yes"/>
      <point x="525" y="511"/>
      <point x="520" y="514"/>
      <point x="519" y="519" type="curve" smooth="yes"/>
      <point x="510" y="574"/>
      <point x="495" y="620"/>
      <point x="438" y="620" type="curve" smooth="yes"/>
      <point x="361" y="620" type="line" smooth="yes"/>
      <point x="340" y="620"/>
      <point x="319" y="619"/>
      <point x="312" y="608" type="curve" smooth="yes"/>
      <point x="305" y="596"/>
      <point x="302" y="576"/>
      <point x="296" y="547" type="curve" smooth="yes"/>
      <point x="261" y="368" type="line" smooth="yes"/>
      <point x="260" y="362"/>
      <point x="279" y="357"/>
      <point x="299" y="357" type="curve" smooth="yes"/>
      <point x="348" y="357" type="line" smooth="yes"/>
      <point x="403" y="357"/>
      <point x="418" y="369"/>
      <point x="444" y="427" type="curve" smooth="yes"/>
      <point x="446" y="432"/>
      <point x="449" y="435"/>
      <point x="456" y="435" type="curve" smooth="yes"/>
      <point x="463" y="435"/>
      <point x="471" y="433"/>
      <point x="473" y="430" type="curve"/>
      <point x="436" y="238" type="line"/>
      <point x="434" y="236"/>
      <point x="425" y="234"/>
      <point x="418" y="234" type="curve" smooth="yes"/>
      <point x="411" y="234"/>
      <point x="407" y="237"/>
      <point x="407" y="242" type="curve" smooth="yes"/>
      <point x="405" y="290"/>
      <point x="394" y="299"/>
      <point x="386" y="303" type="curve" smooth="yes"/>
      <point x="376" y="308"/>
      <point x="352" y="310"/>
      <point x="317" y="310" type="curve" smooth="yes"/>
      <point x="291" y="310"/>
      <point x="249" y="308"/>
      <point x="247" y="296" type="curve" smooth="yes"/>
      <point x="217" y="141" type="line" smooth="yes"/>
      <point x="216" y="135"/>
      <point x="205" y="82"/>
      <point x="209" y="62" type="curve" smooth="yes"/>
      <point x="212" y="48"/>
      <point x="241" y="42"/>
      <point x="265" y="42" type="curve" smooth="yes"/>
      <point x="327" y="42" type="line" smooth="yes"/>
      <point x="362" y="42"/>
      <point x="394" y="52"/>
      <point x="420" y="75" type="curve" smooth="yes"/>
      <point x="444" y="96"/>
      <point x="463" y="125"/>
      <point x="488" y="170" type="curve" smooth="yes"/>
      <point x="490" y="174"/>
      <point x="496" y="176"/>
      <point x="503" y="176" type="curve" smooth="yes"/>
      <point x="512" y="176"/>
      <point x="527" y="173"/>
      <point x="529" y="170" type="curve"/>
      <point x="501" y="116"/>
      <point x="461" y="42"/>
      <point x="446" y="-2" type="curve"/>
      <point x="420" y="-2"/>
      <point x="246" y="-2"/>
      <point x="120" y="-2" type="curve" smooth="yes"/>
      <point x="56" y="-2"/>
      <point x="4" y="-3"/>
      <point x="-8" y="-3" type="curve"/>
      <point x="-11" y="3"/>
      <point x="-7" y="27"/>
      <point x="-1" y="34" type="curve"/>
      <point x="11" y="35"/>
      <point x="55" y="38"/>
      <point x="62" y="51" type="curve" smooth="yes"/>
      <point x="73" y="71"/>
      <point x="79" y="102"/>
      <point x="87" y="145" type="curve" smooth="yes"/>
      <point x="159" y="513" type="line" smooth="yes"/>
      <point x="167" y="556"/>
      <point x="174" y="587"/>
      <point x="170" y="607" type="curve" smooth="yes"/>
      <point x="168" y="620"/>
      <point x="125" y="622"/>
      <point x="113" y="623" type="curve"/>
      <point x="110" y="630"/>
      <point x="116" y="654"/>
      <point x="121" y="660" type="curve"/>
      <point x="162" y="657"/>
      <point x="214" y="657"/>
    </contour>
  </outline>
</glyph>
<glyph name="H" format="1">
  <advance width="707"/>
  <unicode hex="0048"/>
  <outline>
    <contour>
      <point x="253" y="655" type="curve" smooth="yes"/>
      <point x="292" y="655"/>
      <point x="348" y="658"/>
      <point x="385" y="662" type="curve"/>
      <point x="388" y="656"/>
      <point x="384" y="632"/>
      <point x="378" y="625" type="curve"/>
      <point x="366" y="624"/>
      <point x="322" y="620"/>
      <point x="315" y="607" type="curve" smooth="yes"/>
      <point x="304" y="587"/>
      <point x="297" y="556"/>
      <point x="289" y="513" type="curve" smooth="yes"/>
      <point x="262" y="371" type="line"/>
      <point x="262" y="369"/>
      <point x="263" y="368"/>
      <point x="263" y="368" type="curve"/>
      <point x="299" y="367"/>
      <point x="333" y="365"/>
      <point x="375" y="365" type="curve" smooth="yes"/>
      <point x="409" y="365"/>
      <point x="450" y="367"/>
      <point x="484" y="368" type="curve"/>
      <point x="484" y="368"/>
      <point x="487" y="370"/>
      <point x="487" y="372" type="curve" smooth="yes"/>
      <point x="513" y="513" type="line" smooth="yes"/>
      <point x="521" y="556"/>
      <point x="528" y="587"/>
      <point x="524" y="607" type="curve" smooth="yes"/>
      <point x="522" y="620"/>
      <point x="480" y="624"/>
      <point x="468" y="625" type="curve"/>
      <point x="465" y="632"/>
      <point x="470" y="656"/>
      <point x="475" y="662" type="curve"/>
      <point x="510" y="658"/>
      <point x="568" y="655"/>
      <point x="607" y="655" type="curve" smooth="yes"/>
      <point x="646" y="655"/>
      <point x="702" y="658"/>
      <point x="739" y="662" type="curve"/>
      <point x="742" y="656"/>
      <point x="738" y="632"/>
      <point x="732" y="625" type="curve"/>
      <point x="720" y="624"/>
      <point x="676" y="620"/>
      <point x="669" y="607" type="curve" smooth="yes"/>
      <point x="658" y="587"/>
      <point x="651" y="556"/>
      <point x="643" y="513" type="curve" smooth="yes"/>
      <point x="572" y="145" type="line" smooth="yes"/>
      <point x="564" y="102"/>
      <point x="557" y="71"/>
      <point x="561" y="51" type="curve" smooth="yes"/>
      <point x="563" y="38"/>
      <point x="605" y="34"/>
      <point x="617" y="33" type="curve"/>
      <point x="620" y="26"/>
      <point x="615" y="2"/>
      <point x="610" y="-4" type="curve"/>
      <point x="575" y="0"/>
      <point x="517" y="3"/>
      <point x="478" y="3" type="curve" smooth="yes"/>
      <point x="439" y="3"/>
      <point x="383" y="0"/>
      <point x="346" y="-4" type="curve"/>
      <point x="343" y="2"/>
      <point x="347" y="26"/>
      <point x="353" y="33" type="curve"/>
      <point x="365" y="34"/>
      <point x="409" y="38"/>
      <point x="416" y="51" type="curve" smooth="yes"/>
      <point x="427" y="71"/>
      <point x="434" y="102"/>
      <point x="442" y="145" type="curve" smooth="yes"/>
      <point x="474" y="310" type="line" smooth="yes"/>
      <point x="474" y="312"/>
      <point x="473" y="315"/>
      <point x="473" y="315" type="curve"/>
      <point x="439" y="316"/>
      <point x="403" y="317"/>
      <point x="365" y="317" type="curve" smooth="yes"/>
      <point x="262" y="317"/>
      <point x="254" y="315"/>
      <point x="251" y="313" type="curve"/>
      <point x="250" y="312"/>
      <point x="249" y="309"/>
      <point x="249" y="309" type="curve"/>
      <point x="218" y="145" type="line" smooth="yes"/>
      <point x="210" y="102"/>
      <point x="203" y="71"/>
      <point x="207" y="51" type="curve" smooth="yes"/>
      <point x="209" y="38"/>
      <point x="251" y="34"/>
      <point x="263" y="33" type="curve"/>
      <point x="266" y="26"/>
      <point x="261" y="2"/>
      <point x="256" y="-4" type="curve"/>
      <point x="221" y="0"/>
      <point x="163" y="3"/>
      <point x="124" y="3" type="curve" smooth="yes"/>
      <point x="85" y="3"/>
      <point x="28" y="0"/>
      <point x="-9" y="-4" type="curve"/>
      <point x="-12" y="2"/>
      <point x="-7" y="26"/>
      <point x="-1" y="33" type="curve"/>
      <point x="11" y="34"/>
      <point x="55" y="38"/>
      <point x="62" y="51" type="curve" smooth="yes"/>
      <point x="73" y="71"/>
      <point x="79" y="102"/>
      <point x="87" y="145" type="curve" smooth="yes"/>
      <point x="159" y="513" type="line" smooth="yes"/>
      <point x="167" y="556"/>
      <point x="174" y="587"/>
      <point x="170" y="607" type="curve" smooth="yes"/>
      <point x="168" y="620"/>
      <point x="126" y="624"/>
      <point x="114" y="625" type="curve"/>
      <point x="111" y="632"/>
      <point x="116" y="656"/>
      <point x="121" y="662" type="curve"/>
      <point x="156" y="658"/>
      <point x="214" y="655"/>
    </contour>
  </outline>
</glyph>
<glyph name="M" format="1">
  <advance width="859"/>
  <unicode hex="004D"/>
  <outline>
    <contour>
      <point x="242" y="656" type="curve" smooth="yes"/>
      <point x="274" y="656"/>
      <point x="302" y="660"/>
      <point x="340" y="662" type="curve"/>
      <point x="355" y="598"/>
      <point x="397" y="408"/>
      <point x="434" y="238" type="curve"/>
      <point x="434" y="238"/>
      <point x="436" y="236"/>
      <point x="437" y="236" type="curve" smooth="yes"/>
      <point x="438" y="236"/>
      <point x="442" y="241"/>
      <point x="442" y="242" type="curve" smooth="yes"/>
      <point x="442" y="242"/>
      <point x="548" y="426"/>
      <point x="611" y="546" type="curve" smooth="yes"/>
      <point x="634" y="589"/>
      <point x="663" y="658"/>
      <point x="663" y="658" type="curve"/>
      <point x="671" y="657"/>
      <point x="745" y="655"/>
      <point x="763" y="655" type="curve" smooth="yes"/>
      <point x="795" y="655"/>
      <point x="835" y="660"/>
      <point x="873" y="662" type="curve"/>
      <point x="876" y="658"/>
      <point x="876" y="632"/>
      <point x="870" y="624" type="curve"/>
      <point x="863" y="624"/>
      <point x="830" y="620"/>
      <point x="819" y="613" type="curve" smooth="yes"/>
      <point x="808" y="606"/>
      <point x="802" y="599"/>
      <point x="798" y="572" type="curve" smooth="yes"/>
      <point x="787" y="502"/>
      <point x="749" y="280"/>
      <point x="730" y="152" type="curve" smooth="yes"/>
      <point x="724" y="113"/>
      <point x="719" y="77"/>
      <point x="723" y="51" type="curve" smooth="yes"/>
      <point x="726" y="37"/>
      <point x="771" y="33"/>
      <point x="778" y="33" type="curve"/>
      <point x="780" y="24"/>
      <point x="778" y="6"/>
      <point x="773" y="-4" type="curve"/>
      <point x="736" y="-2"/>
      <point x="689" y="4"/>
      <point x="648" y="4" type="curve" smooth="yes"/>
      <point x="605" y="4"/>
      <point x="543" y="-2"/>
      <point x="500" y="-4" type="curve"/>
      <point x="497" y="0"/>
      <point x="502" y="25"/>
      <point x="506" y="33" type="curve"/>
      <point x="517" y="33"/>
      <point x="563" y="38"/>
      <point x="574" y="52" type="curve" smooth="yes"/>
      <point x="580" y="60"/>
      <point x="587" y="77"/>
      <point x="589" y="87" type="curve" smooth="yes"/>
      <point x="591" y="97"/>
      <point x="596" y="130"/>
      <point x="599" y="148" type="curve" smooth="yes"/>
      <point x="658" y="497" type="line" smooth="yes"/>
      <point x="659" y="500"/>
      <point x="664" y="523"/>
      <point x="657" y="523" type="curve" smooth="yes"/>
      <point x="655" y="523"/>
      <point x="654" y="521"/>
      <point x="651" y="516" type="curve" smooth="yes"/>
      <point x="394" y="40" type="line" smooth="yes"/>
      <point x="389" y="31"/>
      <point x="363" y="-2"/>
      <point x="346" y="-2" type="curve" smooth="yes"/>
      <point x="343" y="-2"/>
      <point x="341" y="-1"/>
      <point x="338" y="0" type="curve"/>
      <point x="232" y="523" type="line"/>
      <point x="185" y="315"/>
      <point x="181" y="291"/>
      <point x="145" y="134" type="curve" smooth="yes"/>
      <point x="140" y="112"/>
      <point x="135" y="72"/>
      <point x="135" y="65" type="curve" smooth="yes"/>
      <point x="136" y="44"/>
      <point x="203" y="33"/>
      <point x="210" y="33" type="curve"/>
      <point x="211" y="26"/>
      <point x="209" y="6"/>
      <point x="204" y="-4" type="curve"/>
      <point x="167" y="-2"/>
      <point x="132" y="4"/>
      <point x="91" y="4" type="curve" smooth="yes"/>
      <point x="48" y="4"/>
      <point x="16" y="-2"/>
      <point x="-27" y="-4" type="curve"/>
      <point x="-29" y="3"/>
      <point x="-26" y="22"/>
      <point x="-21" y="32" type="curve"/>
      <point x="-10" y="32"/>
      <point x="50" y="42"/>
      <point x="65" y="68" type="curve" smooth="yes"/>
      <point x="71" y="78"/>
      <point x="89" y="140"/>
      <point x="93" y="156" type="curve" smooth="yes"/>
      <point x="121" y="273"/>
      <point x="181" y="534"/>
      <point x="192" y="581" type="curve" smooth="yes"/>
      <point x="193" y="588"/>
      <point x="194" y="596"/>
      <point x="191" y="603" type="curve" smooth="yes"/>
      <point x="186" y="614"/>
      <point x="151" y="625"/>
      <point x="135" y="625" type="curve"/>
      <point x="131" y="633"/>
      <point x="140" y="660"/>
      <point x="142" y="662" type="curve"/>
      <point x="184" y="660"/>
      <point x="199" y="656"/>
    </contour>
  </outline>
</glyph>
<glyph name="P" format="1">
  <advance width="557"/>
  <unicode hex="0050"/>
  <outline>
    <contour>
      <point x="573" y="465" type="curve" smooth="yes"/>
      <point x="550" y="345"/>
      <point x="428" y="286"/>
      <point x="334" y="286" type="curve" smooth="yes"/>
      <point x="307" y="286"/>
      <point x="294" y="296"/>
      <point x="287" y="301" type="curve" smooth="yes"/>
      <point x="283" y="304"/>
      <point x="277" y="319"/>
      <point x="277" y="324" type="curve" smooth="yes"/>
      <point x="277" y="328"/>
      <point x="280" y="331"/>
      <point x="282" y="331" type="curve"/>
      <point x="291" y="328"/>
      <point x="298" y="327"/>
      <point x="312" y="327" type="curve" smooth="yes"/>
      <point x="358" y="327"/>
      <point x="419" y="385"/>
      <point x="432" y="451" type="curve" smooth="yes"/>
      <point x="449" y="540"/>
      <point x="423" y="620"/>
      <point x="361" y="620" type="curve" smooth="yes"/>
      <point x="340" y="620"/>
      <point x="319" y="619"/>
      <point x="312" y="608" type="curve" smooth="yes"/>
      <point x="305" y="596"/>
      <point x="302" y="576"/>
      <point x="296" y="547" type="curve" smooth="yes"/>
      <point x="218" y="145" type="line" smooth="yes"/>
      <point x="210" y="102"/>
      <point x="203" y="71"/>
      <point x="207" y="51" type="curve" smooth="yes"/>
      <point x="209" y="38"/>
      <point x="251" y="34"/>
      <point x="263" y="33" type="curve"/>
      <point x="266" y="26"/>
      <point x="261" y="2"/>
      <point x="256" y="-4" type="curve"/>
      <point x="221" y="0"/>
      <point x="163" y="3"/>
      <point x="124" y="3" type="curve" smooth="yes"/>
      <point x="85" y="3"/>
      <point x="28" y="0"/>
      <point x="-9" y="-4" type="curve"/>
      <point x="-12" y="2"/>
      <point x="-7" y="26"/>
      <point x="-1" y="33" type="curve"/>
      <point x="11" y="34"/>
      <point x="55" y="38"/>
      <point x="62" y="51" type="curve" smooth="yes"/>
      <point x="73" y="71"/>
      <point x="79" y="102"/>
      <point x="87" y="145" type="curve" smooth="yes"/>
      <point x="159" y="513" type="line" smooth="yes"/>
      <point x="167" y="556"/>
      <point x="174" y="587"/>
      <point x="170" y="607" type="curve" smooth="yes"/>
      <point x="168" y="620"/>
      <point x="125" y="622"/>
      <point x="113" y="623" type="curve"/>
      <point x="110" y="630"/>
      <point x="116" y="654"/>
      <point x="121" y="660" type="curve"/>
      <point x="162" y="657"/>
      <point x="214" y="657"/>
      <point x="253" y="657" type="curve" smooth="yes"/>
      <point x="292" y="657"/>
      <point x="342" y="660"/>
      <point x="397" y="660" type="curve" smooth="yes"/>
      <point x="513" y="660"/>
      <point x="594" y="572"/>
    </contour>
  </outline>
</glyph>
<glyph name="R" format="1">
  <advance width="645"/>
  <unicode hex="0052"/>
  <outline>
    <contour>
      <point x="253" y="657" type="curve" smooth="yes"/>
      <point x="292" y="657"/>
      <point x="342" y="660"/>
      <point x="397" y="660" type="curve" smooth="yes"/>
      <point x="513" y="660"/>
      <point x="585" y="582"/>
      <point x="561" y="458" type="curve" smooth="yes"/>
      <point x="544" y="371"/>
      <point x="435" y="325"/>
      <point x="396" y="316" type="curve"/>
      <point x="445" y="218"/>
      <point x="450" y="200"/>
      <point x="495" y="130" type="curve" smooth="yes"/>
      <point x="550" y="44"/>
      <point x="621" y="28"/>
      <point x="636" y="28" type="curve"/>
      <point x="639" y="21"/>
      <point x="635" y="-2"/>
      <point x="634" y="-4" type="curve"/>
      <point x="607" y="-6"/>
      <point x="613" y="-8"/>
      <point x="575" y="-8" type="curve" smooth="yes"/>
      <point x="422" y="-8"/>
      <point x="387" y="65"/>
      <point x="370" y="99" type="curve" smooth="yes"/>
      <point x="275" y="284" type="line" smooth="yes"/>
      <point x="275" y="284"/>
      <point x="268" y="299"/>
      <point x="261" y="299" type="curve" smooth="yes"/>
      <point x="248" y="299" type="line"/>
      <point x="218" y="145" type="line" smooth="yes"/>
      <point x="210" y="102"/>
      <point x="203" y="71"/>
      <point x="207" y="51" type="curve" smooth="yes"/>
      <point x="209" y="38"/>
      <point x="251" y="34"/>
      <point x="263" y="33" type="curve"/>
      <point x="266" y="26"/>
      <point x="261" y="2"/>
      <point x="256" y="-4" type="curve"/>
      <point x="221" y="0"/>
      <point x="163" y="3"/>
      <point x="124" y="3" type="curve" smooth="yes"/>
      <point x="85" y="3"/>
      <point x="28" y="0"/>
      <point x="-9" y="-4" type="curve"/>
      <point x="-12" y="2"/>
      <point x="-7" y="26"/>
      <point x="-1" y="33" type="curve"/>
      <point x="11" y="34"/>
      <point x="55" y="38"/>
      <point x="62" y="51" type="curve" smooth="yes"/>
      <point x="73" y="71"/>
      <point x="79" y="102"/>
      <point x="87" y="145" type="curve" smooth="yes"/>
      <point x="159" y="513" type="line" smooth="yes"/>
      <point x="167" y="556"/>
      <point x="174" y="587"/>
      <point x="170" y="607" type="curve" smooth="yes"/>
      <point x="168" y="620"/>
      <point x="125" y="622"/>
      <point x="113" y="623" type="curve"/>
      <point x="110" y="630"/>
      <point x="116" y="654"/>
      <point x="121" y="660" type="curve"/>
      <point x="162" y="657"/>
      <point x="214" y="657"/>
    </contour>
    <contour>
      <point x="255" y="338" type="line"/>
      <point x="298" y="338" type="line" smooth="yes"/>
      <point x="351" y="338"/>
      <point x="400" y="372"/>
      <point x="421" y="448" type="curve" smooth="yes"/>
      <point x="441" y="520"/>
      <point x="437" y="620"/>
      <point x="361" y="620" type="curve" smooth="yes"/>
      <point x="340" y="620"/>
      <point x="319" y="619"/>
      <point x="312" y="608" type="curve" smooth="yes"/>
      <point x="305" y="596"/>
      <point x="302" y="576"/>
      <point x="296" y="547" type="curve" smooth="yes"/>
    </contour>
  </outline>
</glyph>
<glyph name="T" format="1">
  <advance width="596"/>
  <unicode hex="0054"/>
  <outline>
    <contour>
      <point x="364" y="657" type="line" smooth="yes"/>
      <point x="528" y="657" type="line" smooth="yes"/>
      <point x="595" y="657"/>
      <point x="611" y="676"/>
      <point x="628" y="676" type="curve" smooth="yes"/>
      <point x="635" y="676"/>
      <point x="636" y="675"/>
      <point x="639" y="673" type="curve"/>
      <point x="628" y="489" type="line"/>
      <point x="625" y="486"/>
      <point x="608" y="482"/>
      <point x="600" y="482" type="curve" smooth="yes"/>
      <point x="595" y="482"/>
      <point x="592" y="483"/>
      <point x="592" y="487" type="curve" smooth="yes"/>
      <point x="595" y="552"/>
      <point x="564" y="613"/>
      <point x="517" y="613" type="curve" smooth="yes"/>
      <point x="430" y="613" type="line"/>
      <point x="339" y="145" type="line" smooth="yes"/>
      <point x="331" y="102"/>
      <point x="324" y="71"/>
      <point x="328" y="51" type="curve" smooth="yes"/>
      <point x="330" y="38"/>
      <point x="372" y="34"/>
      <point x="384" y="33" type="curve"/>
      <point x="387" y="26"/>
      <point x="382" y="2"/>
      <point x="377" y="-4" type="curve"/>
      <point x="342" y="0"/>
      <point x="285" y="3"/>
      <point x="246" y="3" type="curve" smooth="yes"/>
      <point x="207" y="3"/>
      <point x="150" y="0"/>
      <point x="113" y="-4" type="curve"/>
      <point x="110" y="2"/>
      <point x="114" y="26"/>
      <point x="120" y="33" type="curve"/>
      <point x="132" y="34"/>
      <point x="176" y="38"/>
      <point x="183" y="51" type="curve" smooth="yes"/>
      <point x="194" y="71"/>
      <point x="201" y="102"/>
      <point x="209" y="145" type="curve" smooth="yes"/>
      <point x="300" y="613" type="line"/>
      <point x="213" y="613" type="line" smooth="yes"/>
      <point x="166" y="613"/>
      <point x="111" y="552"/>
      <point x="89" y="487" type="curve" smooth="yes"/>
      <point x="87" y="483"/>
      <point x="84" y="482"/>
      <point x="79" y="482" type="curve" smooth="yes"/>
      <point x="71" y="482"/>
      <point x="56" y="486"/>
      <point x="54" y="489" type="curve"/>
      <point x="114" y="673" type="line"/>
      <point x="118" y="675"/>
      <point x="119" y="676"/>
      <point x="126" y="676" type="curve" smooth="yes"/>
      <point x="143" y="676"/>
      <point x="152" y="657"/>
      <point x="219" y="657" type="curve" smooth="yes"/>
    </contour>
  </outline>
</glyph>
<glyph name="U" format="1">
  <advance width="692"/>
  <unicode hex="0055"/>
  <outline>
    <contour>
      <point x="234" y="655" type="curve" smooth="yes"/>
      <point x="273" y="655"/>
      <point x="329" y="658"/>
      <point x="366" y="662" type="curve"/>
      <point x="369" y="656"/>
      <point x="365" y="632"/>
      <point x="359" y="625" type="curve"/>
      <point x="347" y="624"/>
      <point x="303" y="620"/>
      <point x="296" y="607" type="curve" smooth="yes"/>
      <point x="285" y="587"/>
      <point x="278" y="556"/>
      <point x="270" y="513" type="curve" smooth="yes"/>
      <point x="235" y="330" type="line" smooth="yes"/>
      <point x="222" y="262"/>
      <point x="214" y="212"/>
      <point x="225" y="159" type="curve" smooth="yes"/>
      <point x="243" y="71"/>
      <point x="312" y="63"/>
      <point x="348" y="63" type="curve" smooth="yes"/>
      <point x="422" y="63"/>
      <point x="512" y="134"/>
      <point x="546" y="309" type="curve" smooth="yes"/>
      <point x="579" y="479" type="line" smooth="yes"/>
      <point x="587" y="522"/>
      <point x="594" y="581"/>
      <point x="590" y="601" type="curve" smooth="yes"/>
      <point x="586" y="620"/>
      <point x="537" y="624"/>
      <point x="525" y="625" type="curve"/>
      <point x="522" y="632"/>
      <point x="527" y="656"/>
      <point x="532" y="662" type="curve"/>
      <point x="575" y="658"/>
      <point x="604" y="655"/>
      <point x="647" y="655" type="curve" smooth="yes"/>
      <point x="688" y="655"/>
      <point x="718" y="660"/>
      <point x="757" y="662" type="curve"/>
      <point x="760" y="656"/>
      <point x="756" y="632"/>
      <point x="750" y="625" type="curve"/>
      <point x="738" y="624"/>
      <point x="686" y="622"/>
      <point x="674" y="601" type="curve" smooth="yes"/>
      <point x="663" y="581"/>
      <point x="645" y="523"/>
      <point x="637" y="480" type="curve" smooth="yes"/>
      <point x="599" y="286" type="line" smooth="yes"/>
      <point x="559" y="82"/>
      <point x="421" y="-9"/>
      <point x="287" y="-9" type="curve" smooth="yes"/>
      <point x="209" y="-9"/>
      <point x="141" y="19"/>
      <point x="108" y="79" type="curve" smooth="yes"/>
      <point x="81" y="128"/>
      <point x="79" y="197"/>
      <point x="99" y="301" type="curve" smooth="yes"/>
      <point x="140" y="513" type="line" smooth="yes"/>
      <point x="148" y="556"/>
      <point x="155" y="587"/>
      <point x="151" y="607" type="curve" smooth="yes"/>
      <point x="149" y="620"/>
      <point x="107" y="624"/>
      <point x="95" y="625" type="curve"/>
      <point x="92" y="632"/>
      <point x="97" y="656"/>
      <point x="102" y="662" type="curve"/>
      <point x="137" y="658"/>
      <point x="195" y="655"/>
    </contour>
  </outline>
</glyph>
<glyph name="V" format="1">
  <advance width="627"/>
  <unicode hex="0056"/>
  <outline>
    <contour>
      <point x="197" y="655" type="curve" smooth="yes"/>
      <point x="236" y="655"/>
      <point x="293" y="658"/>
      <point x="330" y="662" type="curve"/>
      <point x="333" y="656"/>
      <point x="328" y="632"/>
      <point x="322" y="625" type="curve"/>
      <point x="310" y="624"/>
      <point x="265" y="623"/>
      <point x="260" y="598" type="curve" smooth="yes"/>
      <point x="257" y="582"/>
      <point x="262" y="551"/>
      <point x="268" y="523" type="curve" smooth="yes"/>
      <point x="296" y="390"/>
      <point x="341" y="186"/>
      <point x="341" y="186" type="curve"/>
      <point x="341" y="186"/>
      <point x="514" y="493"/>
      <point x="529" y="521" type="curve" smooth="yes"/>
      <point x="542" y="547"/>
      <point x="561" y="580"/>
      <point x="565" y="601" type="curve" smooth="yes"/>
      <point x="568" y="619"/>
      <point x="507" y="624"/>
      <point x="495" y="625" type="curve"/>
      <point x="492" y="632"/>
      <point x="498" y="656"/>
      <point x="503" y="662" type="curve"/>
      <point x="546" y="658"/>
      <point x="569" y="655"/>
      <point x="612" y="655" type="curve" smooth="yes"/>
      <point x="653" y="655"/>
      <point x="678" y="660"/>
      <point x="717" y="662" type="curve"/>
      <point x="720" y="656"/>
      <point x="716" y="632"/>
      <point x="710" y="625" type="curve"/>
      <point x="698" y="624"/>
      <point x="656" y="623"/>
      <point x="642" y="607" type="curve" smooth="yes"/>
      <point x="624" y="587"/>
      <point x="606" y="557"/>
      <point x="587" y="524" type="curve" smooth="yes"/>
      <point x="472" y="323"/>
      <point x="407" y="215"/>
      <point x="299" y="30" type="curve" smooth="yes"/>
      <point x="288" y="12"/>
      <point x="257" y="-11"/>
      <point x="246" y="-11" type="curve" smooth="yes"/>
      <point x="238" y="-11"/>
      <point x="239" y="-4"/>
      <point x="236" y="3" type="curve"/>
      <point x="132" y="510" type="line" smooth="yes"/>
      <point x="126" y="539"/>
      <point x="119" y="572"/>
      <point x="115" y="592" type="curve" smooth="yes"/>
      <point x="109" y="618"/>
      <point x="70" y="624"/>
      <point x="58" y="625" type="curve"/>
      <point x="55" y="632"/>
      <point x="61" y="656"/>
      <point x="66" y="662" type="curve"/>
      <point x="101" y="658"/>
      <point x="158" y="655"/>
    </contour>
  </outline>
</glyph>
<glyph name="W" format="1">
  <advance width="877"/>
  <unicode hex="0057"/>
  <outline>
    <contour>
      <point x="199" y="655" type="curve" smooth="yes"/>
      <point x="238" y="655"/>
      <point x="294" y="658"/>
      <point x="331" y="662" type="curve"/>
      <point x="334" y="656"/>
      <point x="330" y="632"/>
      <point x="324" y="625" type="curve"/>
      <point x="312" y="624"/>
      <point x="264" y="620"/>
      <point x="264" y="586" type="curve" smooth="yes"/>
      <point x="264" y="581"/>
      <point x="266" y="552"/>
      <point x="270" y="523" type="curve" smooth="yes"/>
      <point x="287" y="401"/>
      <point x="308" y="251"/>
      <point x="308" y="251" type="curve"/>
      <point x="308" y="251"/>
      <point x="469" y="560"/>
      <point x="504" y="625" type="curve" smooth="yes"/>
      <point x="514" y="644"/>
      <point x="530" y="662"/>
      <point x="540" y="662" type="curve" smooth="yes"/>
      <point x="544" y="662"/>
      <point x="546" y="657"/>
      <point x="548" y="646" type="curve" smooth="yes"/>
      <point x="577" y="478"/>
      <point x="623" y="214"/>
      <point x="623" y="214" type="curve"/>
      <point x="623" y="214"/>
      <point x="758" y="489"/>
      <point x="774" y="521" type="curve" smooth="yes"/>
      <point x="786" y="547"/>
      <point x="804" y="580"/>
      <point x="808" y="601" type="curve" smooth="yes"/>
      <point x="811" y="619"/>
      <point x="752" y="624"/>
      <point x="740" y="625" type="curve"/>
      <point x="737" y="632"/>
      <point x="743" y="656"/>
      <point x="748" y="662" type="curve"/>
      <point x="791" y="658"/>
      <point x="814" y="655"/>
      <point x="857" y="655" type="curve" smooth="yes"/>
      <point x="898" y="655"/>
      <point x="924" y="660"/>
      <point x="963" y="662" type="curve"/>
      <point x="966" y="656"/>
      <point x="961" y="632"/>
      <point x="955" y="625" type="curve"/>
      <point x="943" y="624"/>
      <point x="901" y="623"/>
      <point x="887" y="607" type="curve" smooth="yes"/>
      <point x="869" y="587"/>
      <point x="849" y="559"/>
      <point x="832" y="524" type="curve" smooth="yes"/>
      <point x="738" y="335"/>
      <point x="681" y="225"/>
      <point x="586" y="40" type="curve" smooth="yes"/>
      <point x="573" y="15"/>
      <point x="550" y="-11"/>
      <point x="539" y="-11" type="curve" smooth="yes"/>
      <point x="531" y="-11"/>
      <point x="527" y="-4"/>
      <point x="524" y="3" type="curve"/>
      <point x="451" y="418" type="line"/>
      <point x="451" y="418"/>
      <point x="334" y="188"/>
      <point x="260" y="44" type="curve" smooth="yes"/>
      <point x="254" y="33"/>
      <point x="228" y="-11"/>
      <point x="217" y="-11" type="curve" smooth="yes"/>
      <point x="209" y="-11"/>
      <point x="205" y="-4"/>
      <point x="202" y="3" type="curve"/>
      <point x="133" y="510" type="line" smooth="yes"/>
      <point x="130" y="540"/>
      <point x="128" y="549"/>
      <point x="122" y="590" type="curve" smooth="yes"/>
      <point x="118" y="616"/>
      <point x="72" y="624"/>
      <point x="60" y="625" type="curve"/>
      <point x="56" y="632"/>
      <point x="62" y="656"/>
      <point x="67" y="662" type="curve"/>
      <point x="102" y="658"/>
      <point x="160" y="655"/>
    </contour>
  </outline>
</glyph>
<glyph name="Y" format="1">
  <advance width="576"/>
  <unicode hex="0059"/>
  <outline>
    <contour>
      <point x="191" y="145" type="curve" smooth="yes"/>
      <point x="218" y="284" type="line" smooth="yes"/>
      <point x="219" y="291"/>
      <point x="218" y="296"/>
      <point x="216" y="304" type="curve" smooth="yes"/>
      <point x="203" y="359"/>
      <point x="145" y="537"/>
      <point x="145" y="537" type="curve" smooth="yes"/>
      <point x="136" y="565"/>
      <point x="134" y="572"/>
      <point x="127" y="592" type="curve" smooth="yes"/>
      <point x="118" y="617"/>
      <point x="82" y="624"/>
      <point x="70" y="625" type="curve"/>
      <point x="67" y="632"/>
      <point x="72" y="656"/>
      <point x="77" y="662" type="curve"/>
      <point x="112" y="658"/>
      <point x="170" y="655"/>
      <point x="209" y="655" type="curve" smooth="yes"/>
      <point x="248" y="655"/>
      <point x="304" y="658"/>
      <point x="341" y="662" type="curve"/>
      <point x="344" y="656"/>
      <point x="340" y="632"/>
      <point x="334" y="625" type="curve"/>
      <point x="322" y="624"/>
      <point x="277" y="623"/>
      <point x="272" y="598" type="curve" smooth="yes"/>
      <point x="271" y="594"/>
      <point x="274" y="589"/>
      <point x="276" y="582" type="curve" smooth="yes"/>
      <point x="344" y="361" type="line"/>
      <point x="348" y="356"/>
      <point x="448" y="498"/>
      <point x="504" y="578" type="curve" smooth="yes"/>
      <point x="509" y="586"/>
      <point x="512" y="594"/>
      <point x="513" y="601" type="curve" smooth="yes"/>
      <point x="516" y="619"/>
      <point x="461" y="624"/>
      <point x="449" y="625" type="curve"/>
      <point x="446" y="632"/>
      <point x="451" y="656"/>
      <point x="456" y="662" type="curve"/>
      <point x="499" y="658"/>
      <point x="516" y="655"/>
      <point x="559" y="655" type="curve" smooth="yes"/>
      <point x="600" y="655"/>
      <point x="626" y="660"/>
      <point x="665" y="662" type="curve"/>
      <point x="668" y="656"/>
      <point x="664" y="632"/>
      <point x="658" y="625" type="curve"/>
      <point x="646" y="624"/>
      <point x="602" y="623"/>
      <point x="584" y="600" type="curve" smooth="yes"/>
      <point x="560" y="571"/>
      <point x="394" y="357"/>
      <point x="356" y="298" type="curve" smooth="yes"/>
      <point x="351" y="291"/>
      <point x="348" y="285"/>
      <point x="347" y="279" type="curve" smooth="yes"/>
      <point x="321" y="145" type="line" smooth="yes"/>
      <point x="312" y="102"/>
      <point x="306" y="71"/>
      <point x="310" y="51" type="curve" smooth="yes"/>
      <point x="312" y="38"/>
      <point x="354" y="34"/>
      <point x="366" y="33" type="curve"/>
      <point x="369" y="26"/>
      <point x="364" y="2"/>
      <point x="359" y="-4" type="curve"/>
      <point x="324" y="0"/>
      <point x="266" y="3"/>
      <point x="227" y="3" type="curve" smooth="yes"/>
      <point x="188" y="3"/>
      <point x="132" y="0"/>
      <point x="95" y="-4" type="curve"/>
      <point x="92" y="2"/>
      <point x="96" y="26"/>
      <point x="102" y="33" type="curve"/>
      <point x="114" y="34"/>
      <point x="158" y="38"/>
      <point x="165" y="51" type="curve" smooth="yes"/>
      <point x="176" y="71"/>
      <point x="182" y="102"/>
    </contour>
  </outline>
</glyph>
<glyph name="bracketleft" format="1">
  <advance width="263"/>
  <unicode hex="005B"/>
  <outline>
    <contour>
      <point x="171" y="750" type="line" smooth="yes"/>
      <point x="173" y="755"/>
      <point x="176" y="759"/>
      <point x="180" y="759" type="curve" smooth="yes"/>
      <point x="233" y="759"/>
      <point x="305" y="761"/>
      <point x="343" y="765" type="curve"/>
      <point x="346" y="762"/>
      <point x="348" y="759"/>
      <point x="348" y="753" type="curve" smooth="yes"/>
      <point x="348" y="742"/>
      <point x="338" y="732"/>
      <point x="329" y="728" type="curve" smooth="yes"/>
      <point x="297" y="714"/>
      <point x="246" y="709"/>
      <point x="227" y="707" type="curve" smooth="yes"/>
      <point x="223" y="707"/>
      <point x="222" y="705"/>
      <point x="220" y="701" type="curve" smooth="yes"/>
      <point x="70" y="-56" type="line" smooth="yes"/>
      <point x="69" y="-60"/>
      <point x="72" y="-62"/>
      <point x="76" y="-63" type="curve" smooth="yes"/>
      <point x="95" y="-68"/>
      <point x="139" y="-76"/>
      <point x="169" y="-95" type="curve" smooth="yes"/>
      <point x="177" y="-100"/>
      <point x="185" y="-108"/>
      <point x="185" y="-115" type="curve" smooth="yes"/>
      <point x="185" y="-124"/>
      <point x="181" y="-130"/>
      <point x="177" y="-133" type="curve"/>
      <point x="108" y="-120"/>
      <point x="34" y="-108"/>
      <point x="10" y="-107" type="curve" smooth="yes"/>
      <point x="6" y="-107"/>
      <point x="2" y="-102"/>
      <point x="3" y="-97" type="curve" smooth="yes"/>
    </contour>
  </outline>
</glyph>
<glyph name="backslash" format="1">
  <advance width="390"/>
  <unicode hex="005C"/>
  <outline>
    <contour>
      <point x="303" y="-4" type="line" smooth="yes"/>
      <point x="306" y="-20"/>
      <point x="282" y="-40"/>
      <point x="271" y="-40" type="curve" smooth="yes"/>
      <point x="267" y="-40"/>
      <point x="263" y="-40"/>
      <point x="259" y="-37" type="curve"/>
      <point x="207" y="269"/>
      <point x="123" y="755"/>
      <point x="123" y="755" type="curve"/>
      <point x="125" y="758"/>
      <point x="131" y="762"/>
      <point x="137" y="762" type="curve" smooth="yes"/>
      <point x="158" y="762"/>
      <point x="177" y="735"/>
      <point x="179" y="725" type="curve" smooth="yes"/>
    </contour>
  </outline>
</glyph>
<glyph name="underscore" format="1">
  <advance width="474"/>
  <unicode hex="005F"/>
  <outline>
    <contour>
      <point x="-36" y="-35" type="curve"/>
      <point x="-36" y="-35"/>
      <point x="-27" y="17"/>
      <point x="-13" y="17" type="curve" smooth="yes"/>
      <point x="405" y="17" type="line" smooth="yes"/>
      <point x="408" y="17"/>
      <point x="407" y="13"/>
      <point x="407" y="9" type="curve" smooth="yes"/>
      <point x="407" y="3"/>
      <point x="404" y="-13"/>
      <point x="392" y="-39" type="curve" smooth="yes"/>
      <point x="389" y="-45"/>
      <point x="383" y="-45"/>
      <point x="383" y="-45" type="curve"/>
      <point x="-31" y="-45" type="line"/>
      <point x="-31" y="-45"/>
      <point x="-38" y="-45"/>
    </contour>
  </outline>
</glyph>
<glyph name="a" format="1">
  <advance width="489"/>
  <unicode hex="0061"/>
  <outline>
    <contour>
      <point x="318" y="449" type="curve" smooth="yes"/>
      <point x="354" y="449"/>
      <point x="405" y="438"/>
      <point x="425" y="431" type="curve"/>
      <point x="363" y="132" type="line" smooth="yes"/>
      <point x="362" y="128"/>
      <point x="359" y="104"/>
      <point x="359" y="99" type="curve" smooth="yes"/>
      <point x="359" y="90"/>
      <point x="363" y="78"/>
      <point x="373" y="78" type="curve" smooth="yes"/>
      <point x="395" y="78"/>
      <point x="441" y="133"/>
      <point x="444" y="139" type="curve"/>
      <point x="451" y="139"/>
      <point x="458" y="118"/>
      <point x="458" y="112" type="curve"/>
      <point x="441" y="80"/>
      <point x="353" y="-8"/>
      <point x="299" y="-8" type="curve" smooth="yes"/>
      <point x="264" y="-8"/>
      <point x="237" y="14"/>
      <point x="237" y="58" type="curve" smooth="yes"/>
      <point x="237" y="62"/>
      <point x="238" y="70"/>
      <point x="239" y="77" type="curve" smooth="yes"/>
      <point x="240" y="85"/>
      <point x="242" y="92"/>
      <point x="243" y="96" type="curve"/>
      <point x="222" y="59"/>
      <point x="157" y="-7"/>
      <point x="97" y="-7" type="curve" smooth="yes"/>
      <point x="41" y="-7"/>
      <point x="11" y="47"/>
      <point x="11" y="115" type="curve" smooth="yes"/>
      <point x="11" y="294"/>
      <point x="191" y="449"/>
    </contour>
    <contour>
      <point x="262" y="394" type="curve" smooth="yes"/>
      <point x="194" y="394"/>
      <point x="137" y="270"/>
      <point x="137" y="152" type="curve" smooth="yes"/>
      <point x="137" y="104"/>
      <point x="151" y="81"/>
      <point x="173" y="81" type="curve" smooth="yes"/>
      <point x="207" y="81"/>
      <point x="257" y="182"/>
      <point x="277" y="281" type="curve" smooth="yes"/>
      <point x="297" y="382" type="line"/>
      <point x="290" y="390"/>
      <point x="276" y="394"/>
    </contour>
  </outline>
</glyph>
<glyph name="c" format="1">
  <advance width="377"/>
  <unicode hex="0063"/>
  <outline>
    <contour>
      <point x="266" y="449" type="curve" smooth="yes"/>
      <point x="306" y="449"/>
      <point x="341" y="437"/>
      <point x="354" y="427" type="curve"/>
      <point x="360" y="418"/>
      <point x="369" y="400"/>
      <point x="369" y="377" type="curve" smooth="yes"/>
      <point x="369" y="347"/>
      <point x="343" y="316"/>
      <point x="313" y="316" type="curve" smooth="yes"/>
      <point x="288" y="316"/>
      <point x="272" y="334"/>
      <point x="262" y="353" type="curve" smooth="yes"/>
      <point x="253" y="370"/>
      <point x="240" y="399"/>
      <point x="218" y="399" type="curve" smooth="yes"/>
      <point x="181" y="399"/>
      <point x="141" y="275"/>
      <point x="141" y="170" type="curve" smooth="yes"/>
      <point x="141" y="102"/>
      <point x="163" y="77"/>
      <point x="203" y="77" type="curve" smooth="yes"/>
      <point x="248" y="77"/>
      <point x="300" y="137"/>
      <point x="303" y="140" type="curve"/>
      <point x="311" y="140"/>
      <point x="316" y="120"/>
      <point x="316" y="114" type="curve"/>
      <point x="301" y="91"/>
      <point x="211" y="-6"/>
      <point x="135" y="-6" type="curve" smooth="yes"/>
      <point x="76" y="-6"/>
      <point x="15" y="37"/>
      <point x="15" y="131" type="curve" smooth="yes"/>
      <point x="15" y="287"/>
      <point x="146" y="449"/>
    </contour>
  </outline>
</glyph>
<glyph name="f" format="1">
  <advance width="318"/>
  <unicode hex="0066"/>
  <outline>
    <contour>
      <point x="343" y="695" type="curve" smooth="yes"/>
      <point x="377" y="695"/>
      <point x="406" y="685"/>
      <point x="417" y="677" type="curve"/>
      <point x="422" y="669"/>
      <point x="426" y="657"/>
      <point x="426" y="644" type="curve" smooth="yes"/>
      <point x="426" y="619"/>
      <point x="411" y="595"/>
      <point x="388" y="595" type="curve" smooth="yes"/>
      <point x="371" y="595"/>
      <point x="357" y="604"/>
      <point x="346" y="619" type="curve" smooth="yes"/>
      <point x="337" y="632"/>
      <point x="327" y="649"/>
      <point x="309" y="649" type="curve" smooth="yes"/>
      <point x="278" y="649"/>
      <point x="262" y="583"/>
      <point x="231" y="424" type="curve"/>
      <point x="331" y="424" type="line" smooth="yes"/>
      <point x="335" y="424"/>
      <point x="336" y="417"/>
      <point x="336" y="412" type="curve" smooth="yes"/>
      <point x="336" y="402"/>
      <point x="330" y="386"/>
      <point x="325" y="378" type="curve"/>
      <point x="222" y="378" type="line"/>
      <point x="222" y="378"/>
      <point x="191" y="184"/>
      <point x="167" y="58" type="curve" smooth="yes"/>
      <point x="135" y="-106"/>
      <point x="22" y="-218"/>
      <point x="-58" y="-218" type="curve" smooth="yes"/>
      <point x="-92" y="-218"/>
      <point x="-121" y="-208"/>
      <point x="-132" y="-200" type="curve"/>
      <point x="-137" y="-192"/>
      <point x="-141" y="-180"/>
      <point x="-141" y="-167" type="curve" smooth="yes"/>
      <point x="-141" y="-142"/>
      <point x="-126" y="-118"/>
      <point x="-103" y="-118" type="curve" smooth="yes"/>
      <point x="-86" y="-118"/>
      <point x="-72" y="-127"/>
      <point x="-61" y="-142" type="curve" smooth="yes"/>
      <point x="-52" y="-155"/>
      <point x="-42" y="-172"/>
      <point x="-24" y="-172" type="curve" smooth="yes"/>
      <point x="15" y="-172"/>
      <point x="20" y="-105"/>
      <point x="51" y="54" type="curve"/>
      <point x="107" y="378" type="line"/>
      <point x="42" y="378" type="line" smooth="yes"/>
      <point x="41" y="378"/>
      <point x="40" y="379"/>
      <point x="40" y="381" type="curve" smooth="yes"/>
      <point x="40" y="391"/>
      <point x="65" y="424"/>
      <point x="88" y="424" type="curve" smooth="yes"/>
      <point x="115" y="424" type="line"/>
      <point x="147" y="588"/>
      <point x="276" y="695"/>
    </contour>
  </outline>
</glyph>
<glyph name="h" format="1">
  <advance width="504"/>
  <unicode hex="0068"/>
  <outline>
    <contour>
      <point x="247" y="602" type="curve" smooth="yes"/>
      <point x="247" y="602"/>
      <point x="192" y="323"/>
      <point x="190" y="314" type="curve" smooth="yes"/>
      <point x="187" y="302"/>
      <point x="184" y="284"/>
      <point x="182" y="274" type="curve"/>
      <point x="212" y="342"/>
      <point x="301" y="449"/>
      <point x="351" y="449" type="curve" smooth="yes"/>
      <point x="407" y="449"/>
      <point x="423" y="419"/>
      <point x="423" y="362" type="curve" smooth="yes"/>
      <point x="423" y="328"/>
      <point x="408" y="259"/>
      <point x="403" y="233" type="curve" smooth="yes"/>
      <point x="384" y="132" type="line" smooth="yes"/>
      <point x="383" y="128"/>
      <point x="380" y="104"/>
      <point x="380" y="99" type="curve" smooth="yes"/>
      <point x="380" y="90"/>
      <point x="384" y="78"/>
      <point x="394" y="78" type="curve" smooth="yes"/>
      <point x="416" y="78"/>
      <point x="462" y="133"/>
      <point x="465" y="139" type="curve"/>
      <point x="472" y="139"/>
      <point x="479" y="118"/>
      <point x="479" y="112" type="curve"/>
      <point x="462" y="80"/>
      <point x="374" y="-8"/>
      <point x="320" y="-8" type="curve" smooth="yes"/>
      <point x="287" y="-8"/>
      <point x="257" y="12"/>
      <point x="257" y="63" type="curve" smooth="yes"/>
      <point x="257" y="77"/>
      <point x="264" y="115"/>
      <point x="266" y="123" type="curve"/>
      <point x="289" y="242" type="line" smooth="yes"/>
      <point x="292" y="254"/>
      <point x="301" y="308"/>
      <point x="301" y="318" type="curve" smooth="yes"/>
      <point x="301" y="328"/>
      <point x="296" y="339"/>
      <point x="285" y="339" type="curve" smooth="yes"/>
      <point x="256" y="339"/>
      <point x="178" y="218"/>
      <point x="150" y="91" type="curve" smooth="yes"/>
      <point x="130" y="0" type="line"/>
      <point x="120" y="-3"/>
      <point x="85" y="-6"/>
      <point x="74" y="-6" type="curve" smooth="yes"/>
      <point x="63" y="-6"/>
      <point x="27" y="-3"/>
      <point x="15" y="0" type="curve"/>
      <point x="21" y="31"/>
      <point x="121" y="554"/>
      <point x="122" y="560" type="curve" smooth="yes"/>
      <point x="126" y="579"/>
      <point x="131" y="602"/>
      <point x="131" y="613" type="curve" smooth="yes"/>
      <point x="131" y="632"/>
      <point x="86" y="632"/>
      <point x="70" y="632" type="curve"/>
      <point x="67" y="636"/>
      <point x="70" y="657"/>
      <point x="74" y="661" type="curve"/>
      <point x="129" y="666"/>
      <point x="232" y="688"/>
      <point x="254" y="696" type="curve"/>
      <point x="259" y="693"/>
      <point x="260" y="683"/>
      <point x="260" y="677" type="curve" smooth="yes"/>
      <point x="260" y="669"/>
      <point x="250" y="616"/>
    </contour>
  </outline>
</glyph>
<glyph name="k" format="1">
  <advance width="503"/>
  <unicode hex="006B"/>
  <outline>
    <contour>
      <point x="376" y="449" type="curve" smooth="yes"/>
      <point x="434" y="449"/>
      <point x="458" y="423"/>
      <point x="458" y="377" type="curve" smooth="yes"/>
      <point x="458" y="311"/>
      <point x="361" y="255"/>
      <point x="286" y="230" type="curve"/>
      <point x="303" y="182"/>
      <point x="347" y="82"/>
      <point x="390" y="82" type="curve" smooth="yes"/>
      <point x="414" y="82"/>
      <point x="450" y="127"/>
      <point x="458" y="138" type="curve"/>
      <point x="468" y="138"/>
      <point x="472" y="117"/>
      <point x="472" y="112" type="curve"/>
      <point x="462" y="85"/>
      <point x="381" y="-4"/>
      <point x="321" y="-4" type="curve" smooth="yes"/>
      <point x="244" y="-4"/>
      <point x="192" y="137"/>
      <point x="171" y="208" type="curve"/>
      <point x="156" y="133"/>
      <point x="130" y="0"/>
      <point x="130" y="0" type="curve"/>
      <point x="120" y="-3"/>
      <point x="85" y="-6"/>
      <point x="74" y="-6" type="curve" smooth="yes"/>
      <point x="63" y="-6"/>
      <point x="27" y="-3"/>
      <point x="15" y="0" type="curve"/>
      <point x="21" y="31"/>
      <point x="121" y="554"/>
      <point x="122" y="560" type="curve" smooth="yes"/>
      <point x="126" y="579"/>
      <point x="131" y="602"/>
      <point x="131" y="613" type="curve" smooth="yes"/>
      <point x="131" y="632"/>
      <point x="86" y="632"/>
      <point x="70" y="632" type="curve"/>
      <point x="67" y="636"/>
      <point x="70" y="657"/>
      <point x="74" y="661" type="curve"/>
      <point x="129" y="666"/>
      <point x="232" y="688"/>
      <point x="254" y="696" type="curve"/>
      <point x="259" y="693"/>
      <point x="260" y="683"/>
      <point x="260" y="677" type="curve" smooth="yes"/>
      <point x="260" y="669"/>
      <point x="250" y="616"/>
      <point x="247" y="602" type="curve" smooth="yes"/>
      <point x="198" y="341" type="line"/>
      <point x="210" y="367"/>
      <point x="292" y="449"/>
    </contour>
    <contour>
      <point x="301" y="374" type="curve" smooth="yes"/>
      <point x="242" y="374"/>
      <point x="179" y="272"/>
      <point x="179" y="248" type="curve"/>
      <point x="241" y="248"/>
      <point x="329" y="288"/>
      <point x="329" y="342" type="curve" smooth="yes"/>
      <point x="329" y="352"/>
      <point x="324" y="374"/>
    </contour>
  </outline>
</glyph>
<glyph name="l" format="1">
  <advance width="283"/>
  <unicode hex="006C"/>
  <outline>
    <contour>
      <point x="125" y="560" type="line" smooth="yes"/>
      <point x="128" y="578"/>
      <point x="134" y="602"/>
      <point x="134" y="613" type="curve" smooth="yes"/>
      <point x="134" y="632"/>
      <point x="89" y="632"/>
      <point x="73" y="632" type="curve"/>
      <point x="70" y="636"/>
      <point x="73" y="657"/>
      <point x="77" y="661" type="curve"/>
      <point x="132" y="666"/>
      <point x="235" y="688"/>
      <point x="257" y="696" type="curve"/>
      <point x="262" y="693"/>
      <point x="263" y="683"/>
      <point x="263" y="677" type="curve" smooth="yes"/>
      <point x="263" y="669"/>
      <point x="255" y="626"/>
      <point x="250" y="602" type="curve" smooth="yes"/>
      <point x="158" y="132" type="line" smooth="yes"/>
      <point x="157" y="126"/>
      <point x="154" y="104"/>
      <point x="154" y="99" type="curve" smooth="yes"/>
      <point x="154" y="90"/>
      <point x="158" y="78"/>
      <point x="168" y="78" type="curve" smooth="yes"/>
      <point x="190" y="78"/>
      <point x="236" y="133"/>
      <point x="239" y="139" type="curve"/>
      <point x="246" y="139"/>
      <point x="253" y="118"/>
      <point x="253" y="112" type="curve"/>
      <point x="236" y="80"/>
      <point x="148" y="-8"/>
      <point x="94" y="-8" type="curve" smooth="yes"/>
      <point x="61" y="-8"/>
      <point x="31" y="12"/>
      <point x="31" y="63" type="curve" smooth="yes"/>
      <point x="31" y="77"/>
      <point x="38" y="115"/>
      <point x="40" y="123" type="curve"/>
    </contour>
  </outline>
</glyph>
<glyph name="o" format="1">
  <advance width="455"/>
  <unicode hex="006F"/>
  <outline>
    <contour>
      <point x="262" y="409" type="curve" smooth="yes"/>
      <point x="187" y="409"/>
      <point x="140" y="235"/>
      <point x="140" y="125" type="curve" smooth="yes"/>
      <point x="140" y="101"/>
      <point x="140" y="34"/>
      <point x="174" y="34" type="curve" smooth="yes"/>
      <point x="249" y="34"/>
      <point x="296" y="209"/>
      <point x="296" y="312" type="curve" smooth="yes"/>
      <point x="296" y="345"/>
      <point x="296" y="409"/>
    </contour>
    <contour>
      <point x="273" y="449" type="curve" smooth="yes"/>
      <point x="356" y="449"/>
      <point x="421" y="416"/>
      <point x="421" y="297" type="curve" smooth="yes"/>
      <point x="421" y="153"/>
      <point x="278" y="-6"/>
      <point x="158" y="-6" type="curve" smooth="yes"/>
      <point x="75" y="-6"/>
      <point x="15" y="46"/>
      <point x="15" y="142" type="curve" smooth="yes"/>
      <point x="15" y="286"/>
      <point x="153" y="449"/>
    </contour>
  </outline>
</glyph>
<glyph name="t" format="1">
  <advance width="328"/>
  <unicode hex="0074"/>
  <outline>
    <contour>
      <point x="118" y="424" type="line"/>
      <point x="133" y="504" type="line"/>
      <point x="144" y="518"/>
      <point x="235" y="570"/>
      <point x="243" y="570" type="curve" smooth="yes"/>
      <point x="249" y="570"/>
      <point x="256" y="567"/>
      <point x="260" y="564" type="curve"/>
      <point x="234" y="424" type="line"/>
      <point x="322" y="424" type="line" smooth="yes"/>
      <point x="326" y="424"/>
      <point x="326" y="417"/>
      <point x="326" y="412" type="curve" smooth="yes"/>
      <point x="326" y="402"/>
      <point x="321" y="386"/>
      <point x="316" y="378" type="curve"/>
      <point x="225" y="378" type="line"/>
      <point x="177" y="132" type="line" smooth="yes"/>
      <point x="176" y="126"/>
      <point x="173" y="104"/>
      <point x="173" y="99" type="curve" smooth="yes"/>
      <point x="173" y="90"/>
      <point x="177" y="78"/>
      <point x="187" y="78" type="curve" smooth="yes"/>
      <point x="209" y="78"/>
      <point x="255" y="133"/>
      <point x="258" y="139" type="curve"/>
      <point x="265" y="139"/>
      <point x="272" y="118"/>
      <point x="272" y="112" type="curve"/>
      <point x="255" y="80"/>
      <point x="167" y="-8"/>
      <point x="113" y="-8" type="curve" smooth="yes"/>
      <point x="80" y="-8"/>
      <point x="50" y="12"/>
      <point x="50" y="63" type="curve" smooth="yes"/>
      <point x="50" y="77"/>
      <point x="56" y="110"/>
      <point x="59" y="123" type="curve" smooth="yes"/>
      <point x="109" y="378" type="line"/>
      <point x="35" y="378" type="line" smooth="yes"/>
      <point x="34" y="378"/>
      <point x="33" y="379"/>
      <point x="33" y="381" type="curve" smooth="yes"/>
      <point x="33" y="391"/>
      <point x="58" y="424"/>
      <point x="81" y="424" type="curve" smooth="yes"/>
    </contour>
  </outline>
</glyph>
<glyph name="w" format="1">
  <advance width="726"/>
  <unicode hex="0077"/>
  <outline>
    <contour>
      <point x="458" y="406" type="curve"/>
      <point x="458" y="354"/>
      <point x="464" y="287"/>
      <point x="471" y="230" type="curve" smooth="yes"/>
      <point x="479" y="168"/>
      <point x="489" y="117"/>
      <point x="493" y="112" type="curve"/>
      <point x="519" y="126"/>
      <point x="559" y="161"/>
      <point x="585" y="206" type="curve" smooth="yes"/>
      <point x="607" y="244"/>
      <point x="609" y="279"/>
      <point x="609" y="302" type="curve" smooth="yes"/>
      <point x="609" y="331"/>
      <point x="592" y="364"/>
      <point x="567" y="384" type="curve"/>
      <point x="567" y="421"/>
      <point x="609" y="449"/>
      <point x="633" y="449" type="curve" smooth="yes"/>
      <point x="671" y="449"/>
      <point x="711" y="425"/>
      <point x="711" y="357" type="curve" smooth="yes"/>
      <point x="711" y="230"/>
      <point x="464" y="-4"/>
      <point x="390" y="-4" type="curve"/>
      <point x="376" y="15"/>
      <point x="366" y="58"/>
      <point x="358" y="102" type="curve" smooth="yes"/>
      <point x="352" y="135"/>
      <point x="348" y="168"/>
      <point x="347" y="192" type="curve"/>
      <point x="315" y="125"/>
      <point x="202" y="24"/>
      <point x="130" y="-5" type="curve"/>
      <point x="108" y="45"/>
      <point x="91" y="168"/>
      <point x="91" y="290" type="curve" smooth="yes"/>
      <point x="91" y="334" type="line" smooth="yes"/>
      <point x="91" y="343"/>
      <point x="90" y="356"/>
      <point x="80" y="356" type="curve" smooth="yes"/>
      <point x="65" y="356"/>
      <point x="25" y="308"/>
      <point x="22" y="302" type="curve"/>
      <point x="15" y="302"/>
      <point x="8" y="323"/>
      <point x="8" y="329" type="curve"/>
      <point x="26" y="362"/>
      <point x="109" y="449"/>
      <point x="163" y="449" type="curve" smooth="yes"/>
      <point x="206" y="449"/>
      <point x="213" y="423"/>
      <point x="213" y="393" type="curve" smooth="yes"/>
      <point x="213" y="393"/>
      <point x="213" y="373"/>
      <point x="213" y="361" type="curve" smooth="yes"/>
      <point x="213" y="341" type="line" smooth="yes"/>
      <point x="213" y="231"/>
      <point x="227" y="131"/>
      <point x="235" y="121" type="curve"/>
      <point x="260" y="138"/>
      <point x="291" y="180"/>
      <point x="310" y="218" type="curve" smooth="yes"/>
      <point x="324" y="246"/>
      <point x="339" y="287"/>
      <point x="345" y="323" type="curve"/>
      <point x="353" y="357"/>
      <point x="436" y="406"/>
    </contour>
  </outline>
</glyph>
<glyph name="y" format="1">
  <advance width="501"/>
  <unicode hex="0079"/>
  <outline>
    <contour>
      <point x="129" y="449" type="curve" smooth="yes"/>
      <point x="272" y="449"/>
      <point x="263" y="87"/>
      <point x="263" y="26" type="curve"/>
      <point x="299" y="70"/>
      <point x="369" y="195"/>
      <point x="369" y="304" type="curve" smooth="yes"/>
      <point x="369" y="343"/>
      <point x="342" y="372"/>
      <point x="327" y="384" type="curve"/>
      <point x="327" y="418"/>
      <point x="365" y="449"/>
      <point x="394" y="449" type="curve" smooth="yes"/>
      <point x="430" y="449"/>
      <point x="471" y="426"/>
      <point x="471" y="356" type="curve" smooth="yes"/>
      <point x="471" y="122"/>
      <point x="124" y="-218"/>
      <point x="-11" y="-218" type="curve" smooth="yes"/>
      <point x="-47" y="-218"/>
      <point x="-76" y="-199"/>
      <point x="-76" y="-156" type="curve" smooth="yes"/>
      <point x="-76" y="-139"/>
      <point x="-61" y="-114"/>
      <point x="-46" y="-106" type="curve"/>
      <point x="-31" y="-115"/>
      <point x="15" y="-138"/>
      <point x="53" y="-138" type="curve" smooth="yes"/>
      <point x="115" y="-138"/>
      <point x="131" y="-106"/>
      <point x="133" y="-100" type="curve" smooth="yes"/>
      <point x="143" y="-69"/>
      <point x="142" y="8"/>
      <point x="142" y="51" type="curve" smooth="yes"/>
      <point x="142" y="165"/>
      <point x="120" y="356"/>
      <point x="71" y="356" type="curve" smooth="yes"/>
      <point x="46" y="356"/>
      <point x="16" y="305"/>
      <point x="13" y="302" type="curve"/>
      <point x="5" y="303"/>
      <point x="-2" y="326"/>
      <point x="-1" y="329" type="curve"/>
      <point x="10" y="348"/>
      <point x="82" y="449"/>
    </contour>
  </outline>
</glyph>
<glyph name="braceright" format="1">
  <advance width="248"/>
  <unicode hex="007D"/>
  <outline>
    <contour>
      <point x="137" y="740" type="curve"/>
      <point x="178" y="730"/>
      <point x="256" y="654"/>
      <point x="237" y="554" type="curve" smooth="yes"/>
      <point x="231" y="525"/>
      <point x="219" y="501"/>
      <point x="206" y="478" type="curve" smooth="yes"/>
      <point x="193" y="454"/>
      <point x="179" y="431"/>
      <point x="174" y="404" type="curve" smooth="yes"/>
      <point x="164" y="351"/>
      <point x="197" y="321"/>
      <point x="232" y="309" type="curve"/>
      <point x="233" y="307"/>
      <point x="233" y="302"/>
      <point x="232" y="298" type="curve" smooth="yes"/>
      <point x="231" y="294"/>
      <point x="230" y="289"/>
      <point x="228" y="287" type="curve"/>
      <point x="188" y="275"/>
      <point x="143" y="245"/>
      <point x="133" y="192" type="curve" smooth="yes"/>
      <point x="128" y="166"/>
      <point x="132" y="144"/>
      <point x="136" y="121" type="curve" smooth="yes"/>
      <point x="140" y="97"/>
      <point x="143" y="72"/>
      <point x="137" y="42" type="curve" smooth="yes"/>
      <point x="118" y="-58"/>
      <point x="10" y="-134"/>
      <point x="-35" y="-144" type="curve"/>
      <point x="-41" y="-144"/>
      <point x="-44" y="-130"/>
      <point x="-40" y="-122" type="curve"/>
      <point x="-12" y="-108"/>
      <point x="44" y="-61"/>
      <point x="55" y="-3" type="curve" smooth="yes"/>
      <point x="62" y="35"/>
      <point x="58" y="56"/>
      <point x="53" y="79" type="curve" smooth="yes"/>
      <point x="49" y="100"/>
      <point x="44" y="124"/>
      <point x="52" y="164" type="curve" smooth="yes"/>
      <point x="67" y="240"/>
      <point x="140" y="293"/>
      <point x="170" y="298" type="curve"/>
      <point x="142" y="303"/>
      <point x="89" y="356"/>
      <point x="104" y="432" type="curve" smooth="yes"/>
      <point x="113" y="476"/>
      <point x="126" y="499"/>
      <point x="140" y="522" type="curve" smooth="yes"/>
      <point x="153" y="544"/>
      <point x="165" y="564"/>
      <point x="172" y="599" type="curve" smooth="yes"/>
      <point x="183" y="657"/>
      <point x="145" y="704"/>
      <point x="123" y="718" type="curve"/>
      <point x="122" y="726"/>
      <point x="131" y="740"/>
    </contour>
  </outline>
</glyph>
<glyph name="asciitilde" format="1">
  <advance width="538"/>
  <unicode hex="007E"/>
  <outline>
    <contour>
      <point x="193" y="359" type="curve" smooth="yes"/>
      <point x="280" y="359"/>
      <point x="315" y="306"/>
      <point x="402" y="306" type="curve" smooth="yes"/>
      <point x="438" y="306"/>
      <point x="464" y="327"/>
      <point x="495" y="350" type="curve"/>
      <point x="497" y="349"/>
      <point x="499" y="343"/>
      <point x="499" y="335" type="curve" smooth="yes"/>
      <point x="499" y="289"/>
      <point x="422" y="245"/>
      <point x="364" y="245" type="curve" smooth="yes"/>
      <point x="276" y="245"/>
      <point x="241" y="298"/>
      <point x="153" y="298" type="curve" smooth="yes"/>
      <point x="117" y="298"/>
      <point x="91" y="277"/>
      <point x="60" y="254" type="curve"/>
      <point x="58" y="255"/>
      <point x="56" y="261"/>
      <point x="56" y="269" type="curve" smooth="yes"/>
      <point x="56" y="318"/>
      <point x="141" y="359"/>
    </contour>
  </outline>
</glyph>
<glyph name="cent" format="1">
  <advance width="406"/>
  <unicode hex="00A2"/>
  <outline>
    <contour>
      <point x="281" y="474" type="line"/>
      <point x="288" y="474"/>
      <point x="317" y="473"/>
      <point x="316" y="466" type="curve"/>
      <point x="140" y="-45" type="line"/>
      <point x="132" y="-45"/>
      <point x="104" y="-43"/>
      <point x="105" y="-36" type="curve"/>
    </contour>
    <component base="c" xOffset="10"/>
  </outline>
</glyph>
<glyph name="currency" format="1">
  <advance width="539"/>
  <unicode hex="00A4"/>
  <outline>
    <contour>
      <point x="255" y="155" type="curve" smooth="yes"/>
      <point x="301" y="155"/>
      <point x="341" y="219"/>
      <point x="356" y="294" type="curve" smooth="yes"/>
      <point x="374" y="386"/>
      <point x="347" y="461"/>
      <point x="299" y="461" type="curve" smooth="yes"/>
      <point x="253" y="461"/>
      <point x="210" y="394"/>
      <point x="195" y="319" type="curve" smooth="yes"/>
      <point x="177" y="227"/>
      <point x="207" y="155"/>
    </contour>
    <contour>
      <point x="410" y="455" type="curve"/>
      <point x="475" y="510" type="line" smooth="yes"/>
      <point x="478" y="513"/>
      <point x="482" y="511"/>
      <point x="486" y="508" type="curve" smooth="yes"/>
      <point x="495" y="501"/>
      <point x="504" y="482"/>
      <point x="505" y="466" type="curve"/>
      <point x="438" y="410" type="line"/>
      <point x="449" y="380"/>
      <point x="452" y="344"/>
      <point x="445" y="307" type="curve" smooth="yes"/>
      <point x="437" y="267"/>
      <point x="419" y="230"/>
      <point x="393" y="199" type="curve"/>
      <point x="432" y="141" type="line" smooth="yes"/>
      <point x="434" y="139"/>
      <point x="432" y="135"/>
      <point x="429" y="130" type="curve" smooth="yes"/>
      <point x="421" y="119"/>
      <point x="401" y="105"/>
      <point x="384" y="100" type="curve"/>
      <point x="346" y="155" type="line"/>
      <point x="314" y="133"/>
      <point x="277" y="120"/>
      <point x="240" y="120" type="curve" smooth="yes"/>
      <point x="200" y="120"/>
      <point x="166" y="135"/>
      <point x="142" y="160" type="curve"/>
      <point x="83" y="110" type="line" smooth="yes"/>
      <point x="80" y="108"/>
      <point x="77" y="108"/>
      <point x="74" y="111" type="curve" smooth="yes"/>
      <point x="65" y="118"/>
      <point x="55" y="137"/>
      <point x="54" y="154" type="curve"/>
      <point x="114" y="205" type="line"/>
      <point x="102" y="235"/>
      <point x="99" y="270"/>
      <point x="106" y="307" type="curve" smooth="yes"/>
      <point x="115" y="351"/>
      <point x="135" y="391"/>
      <point x="164" y="423" type="curve"/>
      <point x="126" y="479" type="line" smooth="yes"/>
      <point x="124" y="481"/>
      <point x="125" y="484"/>
      <point x="128" y="488" type="curve" smooth="yes"/>
      <point x="136" y="499"/>
      <point x="157" y="515"/>
      <point x="175" y="520" type="curve"/>
      <point x="213" y="465" type="line"/>
      <point x="244" y="485"/>
      <point x="279" y="496"/>
      <point x="314" y="496" type="curve" smooth="yes"/>
      <point x="354" y="496"/>
      <point x="386" y="481"/>
    </contour>
  </outline>
</glyph>
<glyph name="yen" format="1">
  <advance width="631"/>
  <unicode hex="00A5"/>
  <outline>
    <contour>
      <point x="139" y="219" type="line" smooth="yes"/>
      <point x="136" y="219"/>
      <point x="134" y="222"/>
      <point x="134" y="226" type="curve" smooth="yes"/>
      <point x="134" y="237"/>
      <point x="139" y="252"/>
      <point x="149" y="263" type="curve"/>
      <point x="459" y="263" type="line" smooth="yes"/>
      <point x="461" y="263"/>
      <point x="462" y="260"/>
      <point x="462" y="256" type="curve" smooth="yes"/>
      <point x="462" y="245"/>
      <point x="460" y="229"/>
      <point x="449" y="219" type="curve"/>
    </contour>
    <contour>
      <point x="122" y="130" type="line" smooth="yes"/>
      <point x="119" y="130"/>
      <point x="117" y="133"/>
      <point x="117" y="137" type="curve" smooth="yes"/>
      <point x="117" y="148"/>
      <point x="122" y="163"/>
      <point x="132" y="174" type="curve"/>
      <point x="442" y="174" type="line" smooth="yes"/>
      <point x="444" y="174"/>
      <point x="445" y="171"/>
      <point x="445" y="167" type="curve" smooth="yes"/>
      <point x="445" y="156"/>
      <point x="443" y="140"/>
      <point x="432" y="130" type="curve"/>
    </contour>
    <contour>
      <point x="212" y="141" type="curve" smooth="yes"/>
      <point x="238" y="275" type="line" smooth="yes"/>
      <point x="239" y="282"/>
      <point x="238" y="287"/>
      <point x="236" y="295" type="curve" smooth="yes"/>
      <point x="223" y="348"/>
      <point x="167" y="521"/>
      <point x="167" y="521" type="curve" smooth="yes"/>
      <point x="158" y="548"/>
      <point x="157" y="555"/>
      <point x="150" y="574" type="curve" smooth="yes"/>
      <point x="141" y="598"/>
      <point x="107" y="605"/>
      <point x="95" y="606" type="curve"/>
      <point x="92" y="613"/>
      <point x="96" y="636"/>
      <point x="101" y="642" type="curve"/>
      <point x="135" y="638"/>
      <point x="192" y="635"/>
      <point x="230" y="635" type="curve" smooth="yes"/>
      <point x="268" y="635"/>
      <point x="322" y="638"/>
      <point x="358" y="642" type="curve"/>
      <point x="361" y="636"/>
      <point x="357" y="613"/>
      <point x="351" y="606" type="curve"/>
      <point x="339" y="605"/>
      <point x="296" y="604"/>
      <point x="291" y="580" type="curve" smooth="yes"/>
      <point x="290" y="576"/>
      <point x="293" y="572"/>
      <point x="295" y="565" type="curve" smooth="yes"/>
      <point x="360" y="350" type="line"/>
      <point x="364" y="345"/>
      <point x="462" y="483"/>
      <point x="516" y="561" type="curve" smooth="yes"/>
      <point x="521" y="569"/>
      <point x="523" y="576"/>
      <point x="524" y="583" type="curve" smooth="yes"/>
      <point x="527" y="600"/>
      <point x="474" y="605"/>
      <point x="462" y="606" type="curve"/>
      <point x="459" y="613"/>
      <point x="464" y="636"/>
      <point x="469" y="642" type="curve"/>
      <point x="511" y="638"/>
      <point x="527" y="635"/>
      <point x="569" y="635" type="curve" smooth="yes"/>
      <point x="609" y="635"/>
      <point x="634" y="640"/>
      <point x="672" y="642" type="curve"/>
      <point x="675" y="636"/>
      <point x="671" y="613"/>
      <point x="665" y="606" type="curve"/>
      <point x="653" y="605"/>
      <point x="610" y="604"/>
      <point x="593" y="582" type="curve" smooth="yes"/>
      <point x="570" y="554"/>
      <point x="409" y="346"/>
      <point x="372" y="289" type="curve" smooth="yes"/>
      <point x="367" y="282"/>
      <point x="364" y="277"/>
      <point x="363" y="271" type="curve" smooth="yes"/>
      <point x="338" y="141" type="line" smooth="yes"/>
      <point x="329" y="99"/>
      <point x="324" y="68"/>
      <point x="328" y="49" type="curve" smooth="yes"/>
      <point x="330" y="36"/>
      <point x="370" y="33"/>
      <point x="382" y="32" type="curve"/>
      <point x="385" y="25"/>
      <point x="380" y="2"/>
      <point x="375" y="-4" type="curve"/>
      <point x="341" y="0"/>
      <point x="285" y="3"/>
      <point x="247" y="3" type="curve" smooth="yes"/>
      <point x="209" y="3"/>
      <point x="155" y="0"/>
      <point x="119" y="-4" type="curve"/>
      <point x="116" y="2"/>
      <point x="120" y="25"/>
      <point x="126" y="32" type="curve"/>
      <point x="138" y="33"/>
      <point x="180" y="36"/>
      <point x="187" y="49" type="curve" smooth="yes"/>
      <point x="198" y="68"/>
      <point x="203" y="99"/>
    </contour>
  </outline>
</glyph>
<glyph name="section" format="1">
  <advance width="438"/>
  <unicode hex="00A7"/>
  <outline>
    <contour>
      <point x="214.043" y="-33.8251" type="curve"/>
      <point x="174.556" y="-68.0956"/>
      <point x="122.515" y="-92"/>
      <point x="68" y="-92" type="curve" smooth="yes"/>
      <point x="55" y="-92"/>
      <point x="34" y="-84"/>
      <point x="24" y="-78" type="curve"/>
      <point x="22" y="-71"/>
      <point x="22" y="-58"/>
      <point x="23" y="-52" type="curve" smooth="yes"/>
      <point x="27" y="-30"/>
      <point x="42" y="-9"/>
      <point x="69" y="-9" type="curve" smooth="yes"/>
      <point x="87" y="-9"/>
      <point x="97" y="-22"/>
      <point x="104" y="-31" type="curve" smooth="yes"/>
      <point x="110" y="-39"/>
      <point x="122" y="-42"/>
      <point x="136" y="-42" type="curve" smooth="yes"/>
      <point x="165" y="-42"/>
      <point x="210" y="-26"/>
      <point x="217" y="12" type="curve" smooth="yes"/>
      <point x="226" y="58"/>
      <point x="165" y="134"/>
      <point x="130" y="177" type="curve" smooth="yes"/>
      <point x="82" y="236"/>
      <point x="39" y="285"/>
      <point x="57" y="377" type="curve" smooth="yes"/>
      <point x="72" y="456"/>
      <point x="190" y="569"/>
      <point x="230" y="595" type="curve"/>
      <point x="229.985" y="594.942"/>
      <point x="229.971" y="594.883"/>
      <point x="229.957" y="594.825" type="curve" smooth="yes"/>
      <point x="197.268" y="566.455"/>
      <point x="173.184" y="530.982"/>
      <point x="163.422" y="496.085" type="curve"/>
      <point x="148.977" y="478.282"/>
      <point x="140.107" y="460.857"/>
      <point x="134" y="431" type="curve" smooth="yes"/>
      <point x="118" y="348"/>
      <point x="161" y="291"/>
      <point x="202" y="241" type="curve" smooth="yes"/>
      <point x="238" y="197"/>
      <point x="296" y="143"/>
      <point x="283" y="75" type="curve" smooth="yes"/>
      <point x="282.276" y="71.3778"/>
      <point x="281.389" y="67.7412"/>
      <point x="280.347" y="64.0989" type="curve" smooth="yes"/>
      <point x="273.369" y="55.2532"/>
      <point x="265.29" y="46.622"/>
      <point x="256" y="37" type="curve" smooth="yes"/>
      <point x="256" y="37"/>
      <point x="232" y="15"/>
      <point x="222" y="-3" type="curve" smooth="yes"/>
      <point x="215.034" y="-13.9465"/>
      <point x="216.981" y="-21.9221"/>
    </contour>
    <contour>
      <point x="214.043" y="-33.8251" type="curve" smooth="yes"/>
      <point x="214.029" y="-33.8833"/>
      <point x="214.015" y="-33.9416"/>
      <point x="214" y="-34" type="curve"/>
      <point x="254" y="-8"/>
      <point x="372" y="105"/>
      <point x="387" y="184" type="curve" smooth="yes"/>
      <point x="405" y="276"/>
      <point x="362" y="325"/>
      <point x="314" y="384" type="curve" smooth="yes"/>
      <point x="279" y="427"/>
      <point x="218" y="503"/>
      <point x="227" y="549" type="curve" smooth="yes"/>
      <point x="234" y="587"/>
      <point x="279" y="603"/>
      <point x="308" y="603" type="curve" smooth="yes"/>
      <point x="322" y="603"/>
      <point x="335" y="598"/>
      <point x="342" y="590" type="curve" smooth="yes"/>
      <point x="349" y="582"/>
      <point x="358" y="570"/>
      <point x="376" y="570" type="curve" smooth="yes"/>
      <point x="403" y="570"/>
      <point x="416" y="588"/>
      <point x="420" y="610" type="curve" smooth="yes"/>
      <point x="421" y="616"/>
      <point x="423" y="630"/>
      <point x="420" y="640" type="curve"/>
      <point x="408" y="646"/>
      <point x="389" y="653"/>
      <point x="376" y="653" type="curve" smooth="yes"/>
      <point x="321.485" y="653"/>
      <point x="269.444" y="629.096"/>
      <point x="229.957" y="594.825" type="curve"/>
      <point x="227.019" y="582.922"/>
      <point x="228.966" y="574.946"/>
      <point x="222" y="564" type="curve" smooth="yes"/>
      <point x="212" y="546"/>
      <point x="188" y="523" type="line" smooth="yes"/>
      <point x="178.357" y="513.036"/>
      <point x="170.264" y="504.518"/>
      <point x="163.422" y="496.085" type="curve" smooth="yes"/>
      <point x="162.479" y="492.716"/>
      <point x="161.67" y="489.352"/>
      <point x="161" y="486" type="curve" smooth="yes"/>
      <point x="148" y="418"/>
      <point x="206" y="364"/>
      <point x="242" y="320" type="curve" smooth="yes"/>
      <point x="282" y="270"/>
      <point x="326" y="213"/>
      <point x="310" y="130" type="curve" smooth="yes"/>
      <point x="303.986" y="100.599"/>
      <point x="294.4" y="81.9137"/>
      <point x="280.347" y="64.0989" type="curve"/>
      <point x="270.44" y="29.4656"/>
      <point x="246.477" y="-5.67646"/>
    </contour>
  </outline>
</glyph>
<glyph name="ordfeminine" format="1">
  <advance width="399"/>
  <unicode hex="00AA"/>
  <outline>
    <contour>
      <point x="266" y="246" type="curve" smooth="yes"/>
      <point x="241" y="246"/>
      <point x="219" y="257"/>
      <point x="219" y="287" type="curve" smooth="yes"/>
      <point x="219" y="290"/>
      <point x="220" y="296"/>
      <point x="221" y="301" type="curve" smooth="yes"/>
      <point x="222" y="306"/>
      <point x="222" y="310"/>
      <point x="223" y="313" type="curve"/>
      <point x="208" y="288"/>
      <point x="162" y="247"/>
      <point x="118" y="247" type="curve" smooth="yes"/>
      <point x="77" y="247"/>
      <point x="55" y="283"/>
      <point x="55" y="329" type="curve" smooth="yes"/>
      <point x="55" y="450"/>
      <point x="188" y="554"/>
      <point x="280" y="554" type="curve" smooth="yes"/>
      <point x="307" y="554"/>
      <point x="344" y="547"/>
      <point x="358" y="542" type="curve"/>
      <point x="314" y="349" type="line" smooth="yes"/>
      <point x="314" y="346"/>
      <point x="311" y="330"/>
      <point x="311" y="327" type="curve" smooth="yes"/>
      <point x="311" y="321"/>
      <point x="314" y="313"/>
      <point x="322" y="313" type="curve" smooth="yes"/>
      <point x="338" y="313"/>
      <point x="372" y="350"/>
      <point x="374" y="354" type="curve"/>
      <point x="379" y="351"/>
      <point x="384" y="336"/>
      <point x="382" y="327" type="curve"/>
      <point x="370" y="305"/>
      <point x="306" y="246"/>
    </contour>
    <contour>
      <point x="237" y="510" type="curve" smooth="yes"/>
      <point x="187" y="510"/>
      <point x="147" y="434"/>
      <point x="147" y="354" type="curve" smooth="yes"/>
      <point x="147" y="322"/>
      <point x="157" y="306"/>
      <point x="173" y="306" type="curve" smooth="yes"/>
      <point x="198" y="306"/>
      <point x="234" y="374"/>
      <point x="249" y="441" type="curve" smooth="yes"/>
      <point x="263" y="502" type="line"/>
      <point x="258" y="507"/>
      <point x="247" y="510"/>
    </contour>
  </outline>
</glyph>
<glyph name="guillemotleft" format="1">
  <advance width="478"/>
  <unicode hex="00AB"/>
  <outline>
    <contour>
      <point x="395" y="92" type="curve"/>
      <point x="389" y="82"/>
      <point x="373" y="74"/>
      <point x="367" y="73" type="curve"/>
      <point x="363" y="77"/>
      <point x="308" y="154"/>
      <point x="202" y="233" type="curve"/>
      <point x="199" y="237"/>
      <point x="198" y="243"/>
      <point x="199" y="248" type="curve" smooth="yes"/>
      <point x="200" y="253"/>
      <point x="204" y="259"/>
      <point x="208" y="263" type="curve"/>
      <point x="345" y="342"/>
      <point x="430" y="419"/>
      <point x="435" y="423" type="curve"/>
      <point x="440" y="422"/>
      <point x="454" y="414"/>
      <point x="456" y="404" type="curve"/>
      <point x="451" y="398"/>
      <point x="342" y="284"/>
      <point x="301" y="248" type="curve"/>
      <point x="328" y="212"/>
      <point x="392" y="98"/>
    </contour>
    <contour>
      <point x="222" y="92" type="curve"/>
      <point x="216" y="82"/>
      <point x="199" y="74"/>
      <point x="193" y="73" type="curve"/>
      <point x="189" y="77"/>
      <point x="135" y="154"/>
      <point x="29" y="233" type="curve"/>
      <point x="26" y="237"/>
      <point x="24" y="243"/>
      <point x="25" y="248" type="curve" smooth="yes"/>
      <point x="26" y="253"/>
      <point x="30" y="259"/>
      <point x="34" y="263" type="curve"/>
      <point x="171" y="342"/>
      <point x="256" y="419"/>
      <point x="261" y="423" type="curve"/>
      <point x="266" y="422"/>
      <point x="280" y="414"/>
      <point x="282" y="404" type="curve"/>
      <point x="277" y="398"/>
      <point x="168" y="284"/>
      <point x="127" y="248" type="curve"/>
      <point x="154" y="212"/>
      <point x="219" y="98"/>
    </contour>
  </outline>
</glyph>
<glyph name="logicalnot" format="1">
  <advance width="516"/>
  <unicode hex="00AC"/>
  <outline>
    <contour>
      <point x="74" y="369" type="curve"/>
      <point x="464" y="369" type="line"/>
      <point x="455" y="322"/>
      <point x="420" y="144"/>
      <point x="420" y="144" type="curve" smooth="yes"/>
      <point x="419" y="140"/>
      <point x="393" y="128"/>
      <point x="377" y="128" type="curve" smooth="yes"/>
      <point x="367" y="128"/>
      <point x="360" y="132"/>
      <point x="361" y="136" type="curve" smooth="yes"/>
      <point x="396" y="318" type="line"/>
      <point x="65" y="318" type="line" smooth="yes"/>
      <point x="62" y="318"/>
      <point x="60" y="321"/>
      <point x="60" y="326" type="curve" smooth="yes"/>
      <point x="60" y="339"/>
      <point x="63" y="356"/>
    </contour>
  </outline>
</glyph>
<glyph name="registered" format="1">
  <advance width="616"/>
  <unicode hex="00AE"/>
  <outline>
    <contour>
      <point x="342" y="501" type="curve" smooth="yes"/>
      <point x="388" y="501"/>
      <point x="424" y="475"/>
      <point x="418" y="427" type="curve" smooth="yes"/>
      <point x="414" y="394"/>
      <point x="372" y="367"/>
      <point x="354" y="362" type="curve"/>
      <point x="376" y="323"/>
      <point x="402" y="288"/>
      <point x="402" y="288" type="curve" smooth="yes"/>
      <point x="425" y="255"/>
      <point x="448" y="251"/>
      <point x="451" y="251" type="curve"/>
      <point x="452" y="248"/>
      <point x="449" y="235"/>
      <point x="449" y="234" type="curve"/>
      <point x="438" y="233"/>
      <point x="422" y="232"/>
      <point x="407" y="232" type="curve" smooth="yes"/>
      <point x="378" y="232"/>
      <point x="364" y="245"/>
      <point x="350" y="268" type="curve" smooth="yes"/>
      <point x="304" y="349" type="line" smooth="yes"/>
      <point x="304" y="349"/>
      <point x="301" y="355"/>
      <point x="298" y="355" type="curve" smooth="yes"/>
      <point x="292" y="355" type="line"/>
      <point x="285" y="295" type="line" smooth="yes"/>
      <point x="283" y="278"/>
      <point x="281" y="266"/>
      <point x="283" y="258" type="curve" smooth="yes"/>
      <point x="284" y="253"/>
      <point x="302" y="250"/>
      <point x="307" y="250" type="curve"/>
      <point x="308" y="247"/>
      <point x="307" y="236"/>
      <point x="305" y="234" type="curve"/>
      <point x="290" y="236"/>
      <point x="267" y="237"/>
      <point x="251" y="237" type="curve" smooth="yes"/>
      <point x="235" y="237"/>
      <point x="211" y="236"/>
      <point x="196" y="234" type="curve"/>
      <point x="194" y="236"/>
      <point x="196" y="247"/>
      <point x="198" y="250" type="curve"/>
      <point x="203" y="250"/>
      <point x="221" y="253"/>
      <point x="223" y="258" type="curve" smooth="yes"/>
      <point x="227" y="266"/>
      <point x="228" y="278"/>
      <point x="230" y="295" type="curve" smooth="yes"/>
      <point x="248" y="441" type="line" smooth="yes"/>
      <point x="250" y="458"/>
      <point x="252" y="470"/>
      <point x="250" y="478" type="curve" smooth="yes"/>
      <point x="249" y="483"/>
      <point x="231" y="484"/>
      <point x="226" y="484" type="curve"/>
      <point x="225" y="487"/>
      <point x="227" y="499"/>
      <point x="229" y="501" type="curve"/>
      <point x="246" y="500"/>
      <point x="268" y="500"/>
      <point x="284" y="500" type="curve" smooth="yes"/>
      <point x="300" y="500"/>
      <point x="320" y="501"/>
    </contour>
    <contour>
      <point x="328" y="482" type="curve" smooth="yes"/>
      <point x="320" y="482"/>
      <point x="311" y="482"/>
      <point x="309" y="478" type="curve" smooth="yes"/>
      <point x="307" y="473"/>
      <point x="305" y="465"/>
      <point x="304" y="453" type="curve" smooth="yes"/>
      <point x="295" y="374" type="line"/>
      <point x="310" y="374" type="line" smooth="yes"/>
      <point x="334" y="374"/>
      <point x="356" y="393"/>
      <point x="360" y="424" type="curve" smooth="yes"/>
      <point x="364" y="456"/>
      <point x="353" y="482"/>
    </contour>
    <contour>
      <point x="354" y="589" type="curve" smooth="yes"/>
      <point x="237" y="589"/>
      <point x="129" y="487"/>
      <point x="114" y="361" type="curve" smooth="yes"/>
      <point x="99" y="235"/>
      <point x="181" y="133"/>
      <point x="298" y="133" type="curve" smooth="yes"/>
      <point x="415" y="133"/>
      <point x="523" y="235"/>
      <point x="538" y="361" type="curve" smooth="yes"/>
      <point x="553" y="487"/>
      <point x="471" y="589"/>
    </contour>
    <contour>
      <point x="359" y="635" type="curve" smooth="yes"/>
      <point x="499" y="635"/>
      <point x="600" y="513"/>
      <point x="581" y="362" type="curve" smooth="yes"/>
      <point x="562" y="211"/>
      <point x="432" y="89"/>
      <point x="292" y="89" type="curve" smooth="yes"/>
      <point x="152" y="89"/>
      <point x="53" y="211"/>
      <point x="72" y="362" type="curve" smooth="yes"/>
      <point x="91" y="513"/>
      <point x="219" y="635"/>
    </contour>
  </outline>
</glyph>
<glyph name="uni00B3" format="1">
  <advance width="338"/>
  <unicode hex="00B3"/>
  <outline>
    <contour>
      <point x="243" y="644" type="curve" smooth="yes"/>
      <point x="276" y="644"/>
      <point x="327" y="630"/>
      <point x="327" y="568" type="curve" smooth="yes"/>
      <point x="327" y="510"/>
      <point x="260" y="481"/>
      <point x="239" y="477" type="curve"/>
      <point x="257" y="476"/>
      <point x="323" y="468"/>
      <point x="323" y="394" type="curve" smooth="yes"/>
      <point x="323" y="294"/>
      <point x="198" y="245"/>
      <point x="125" y="245" type="curve" smooth="yes"/>
      <point x="88" y="245"/>
      <point x="58" y="257"/>
      <point x="48" y="268" type="curve"/>
      <point x="45" y="275"/>
      <point x="43" y="288"/>
      <point x="45" y="298" type="curve" smooth="yes"/>
      <point x="48" y="315"/>
      <point x="63" y="338"/>
      <point x="86" y="338" type="curve" smooth="yes"/>
      <point x="104" y="338"/>
      <point x="113" y="322"/>
      <point x="121" y="303" type="curve" smooth="yes"/>
      <point x="128" y="285"/>
      <point x="141" y="276"/>
      <point x="156" y="276" type="curve" smooth="yes"/>
      <point x="191" y="276"/>
      <point x="230" y="320"/>
      <point x="230" y="372" type="curve" smooth="yes"/>
      <point x="230" y="406"/>
      <point x="217" y="446"/>
      <point x="179" y="446" type="curve" smooth="yes"/>
      <point x="175" y="446"/>
      <point x="158" y="446"/>
      <point x="148" y="443" type="curve"/>
      <point x="147" y="446"/>
      <point x="146" y="449"/>
      <point x="146" y="454" type="curve" smooth="yes"/>
      <point x="146" y="458"/>
      <point x="147" y="465"/>
      <point x="148" y="467" type="curve"/>
      <point x="178" y="471"/>
      <point x="247" y="490"/>
      <point x="247" y="552" type="curve" smooth="yes"/>
      <point x="247" y="573"/>
      <point x="236" y="594"/>
      <point x="202" y="594" type="curve" smooth="yes"/>
      <point x="168" y="594"/>
      <point x="134" y="553"/>
      <point x="129" y="548" type="curve"/>
      <point x="125" y="549"/>
      <point x="112" y="559"/>
      <point x="116" y="569" type="curve"/>
      <point x="149" y="613"/>
      <point x="198" y="644"/>
    </contour>
  </outline>
</glyph>
<glyph name="acute" format="1">
  <advance width="202"/>
  <unicode hex="00B4"/>
  <outline>
    <contour>
      <point x="304.021" y="653.988" type="curve" smooth="yes"/>
      <point x="304.021" y="667.193"/>
      <point x="285.916" y="687"/>
      <point x="254.632" y="687" type="curve" smooth="yes"/>
      <point x="241.632" y="687"/>
      <point x="229.632" y="683"/>
      <point x="225.632" y="678" type="curve" smooth="yes"/>
      <point x="199.996" y="635.602"/>
      <point x="165.611" y="547.513"/>
      <point x="165.611" y="540.26" type="curve" smooth="yes"/>
      <point x="165.611" y="535.76"/>
      <point x="177.581" y="522"/>
      <point x="184.632" y="522" type="curve" smooth="yes"/>
      <point x="193.337" y="522"/>
      <point x="304.021" y="612.751"/>
    </contour>
    <component base="acutecomb" xOffset="356"/>
  </outline>
</glyph>
<glyph name="paragraph" format="1">
  <advance width="560"/>
  <unicode hex="00B6"/>
  <outline>
    <contour>
      <point x="314" y="659" type="curve" smooth="yes"/>
      <point x="369" y="659"/>
      <point x="429" y="655"/>
      <point x="465" y="655" type="curve" smooth="yes"/>
      <point x="504" y="655"/>
      <point x="560" y="658"/>
      <point x="597" y="662" type="curve"/>
      <point x="600" y="656"/>
      <point x="596" y="632"/>
      <point x="590" y="625" type="curve"/>
      <point x="578" y="624"/>
      <point x="534" y="620"/>
      <point x="527" y="607" type="curve" smooth="yes"/>
      <point x="516" y="587"/>
      <point x="509" y="556"/>
      <point x="501" y="513" type="curve" smooth="yes"/>
      <point x="440" y="194" type="line" smooth="yes"/>
      <point x="408" y="30"/>
      <point x="295" y="-82"/>
      <point x="215" y="-82" type="curve" smooth="yes"/>
      <point x="181" y="-82"/>
      <point x="152" y="-72"/>
      <point x="141" y="-64" type="curve"/>
      <point x="136" y="-56"/>
      <point x="132" y="-44"/>
      <point x="132" y="-31" type="curve" smooth="yes"/>
      <point x="132" y="-6"/>
      <point x="147" y="18"/>
      <point x="170" y="18" type="curve" smooth="yes"/>
      <point x="187" y="18"/>
      <point x="201" y="9"/>
      <point x="212" y="-6" type="curve" smooth="yes"/>
      <point x="221" y="-19"/>
      <point x="231" y="-36"/>
      <point x="249" y="-36" type="curve" smooth="yes"/>
      <point x="288" y="-36"/>
      <point x="293" y="31"/>
      <point x="324" y="190" type="curve"/>
      <point x="390" y="537" type="line" smooth="yes"/>
      <point x="396" y="567"/>
      <point x="402" y="600"/>
      <point x="400" y="612" type="curve" smooth="yes"/>
      <point x="398" y="621"/>
      <point x="389" y="622"/>
      <point x="381" y="622" type="curve" smooth="yes"/>
      <point x="337" y="622"/>
      <point x="271" y="554"/>
      <point x="271" y="458" type="curve" smooth="yes"/>
      <point x="271" y="391"/>
      <point x="286" y="346"/>
      <point x="332" y="324" type="curve"/>
      <point x="334" y="323"/>
      <point x="336" y="318"/>
      <point x="336" y="316" type="curve" smooth="yes"/>
      <point x="336" y="292"/>
      <point x="276" y="273"/>
      <point x="245" y="273" type="curve" smooth="yes"/>
      <point x="123" y="273"/>
      <point x="68" y="369"/>
      <point x="68" y="440" type="curve" smooth="yes"/>
      <point x="68" y="584"/>
      <point x="229" y="659"/>
    </contour>
  </outline>
</glyph>
<glyph name="periodcentered" format="1">
  <advance width="237"/>
  <unicode hex="00B7"/>
  <outline>
    <contour>
      <point x="47" y="250" type="curve" smooth="yes"/>
      <point x="47" y="297"/>
      <point x="90" y="338"/>
      <point x="132" y="338" type="curve" smooth="yes"/>
      <point x="164" y="338"/>
      <point x="187" y="313"/>
      <point x="187" y="280" type="curve" smooth="yes"/>
      <point x="187" y="236"/>
      <point x="146" y="188"/>
      <point x="104" y="188" type="curve" smooth="yes"/>
      <point x="70" y="188"/>
      <point x="47" y="216"/>
    </contour>
  </outline>
</glyph>
<glyph name="guillemotright" format="1">
  <advance width="478"/>
  <unicode hex="00BB"/>
  <outline>
    <contour>
      <point x="75" y="404" type="curve"/>
      <point x="81" y="414"/>
      <point x="98" y="422"/>
      <point x="104" y="423" type="curve"/>
      <point x="108" y="419"/>
      <point x="162" y="342"/>
      <point x="268" y="263" type="curve"/>
      <point x="271" y="259"/>
      <point x="272" y="253"/>
      <point x="271" y="248" type="curve" smooth="yes"/>
      <point x="270" y="243"/>
      <point x="266" y="237"/>
      <point x="262" y="233" type="curve"/>
      <point x="125" y="154"/>
      <point x="41" y="77"/>
      <point x="36" y="73" type="curve"/>
      <point x="31" y="74"/>
      <point x="16" y="82"/>
      <point x="14" y="92" type="curve"/>
      <point x="19" y="98"/>
      <point x="128" y="212"/>
      <point x="169" y="248" type="curve"/>
      <point x="142" y="284"/>
      <point x="78" y="398"/>
    </contour>
    <contour>
      <point x="249" y="404" type="curve"/>
      <point x="255" y="414"/>
      <point x="271" y="422"/>
      <point x="277" y="423" type="curve"/>
      <point x="281" y="419"/>
      <point x="336" y="342"/>
      <point x="442" y="263" type="curve"/>
      <point x="445" y="259"/>
      <point x="446" y="253"/>
      <point x="445" y="248" type="curve" smooth="yes"/>
      <point x="444" y="243"/>
      <point x="440" y="237"/>
      <point x="436" y="233" type="curve"/>
      <point x="299" y="154"/>
      <point x="214" y="77"/>
      <point x="209" y="73" type="curve"/>
      <point x="204" y="74"/>
      <point x="190" y="82"/>
      <point x="188" y="92" type="curve"/>
      <point x="193" y="98"/>
      <point x="302" y="212"/>
      <point x="343" y="248" type="curve"/>
      <point x="316" y="284"/>
      <point x="252" y="398"/>
    </contour>
  </outline>
</glyph>
<glyph name="questiondown" format="1">
  <advance width="364"/>
  <unicode hex="00BF"/>
  <outline>
    <contour>
      <point x="313" y="378" type="curve" smooth="yes"/>
      <point x="306" y="341"/>
      <point x="272" y="311"/>
      <point x="237" y="311" type="curve" smooth="yes"/>
      <point x="203" y="311"/>
      <point x="180" y="341"/>
      <point x="187" y="378" type="curve" smooth="yes"/>
      <point x="194" y="415"/>
      <point x="227" y="449"/>
      <point x="262" y="449" type="curve" smooth="yes"/>
      <point x="298" y="449"/>
      <point x="320" y="415"/>
    </contour>
    <contour>
      <point x="149" y="223" type="curve"/>
      <point x="149" y="229"/>
      <point x="157" y="240"/>
      <point x="162" y="243" type="curve"/>
      <point x="186" y="243"/>
      <point x="275" y="192"/>
      <point x="275" y="136" type="curve" smooth="yes"/>
      <point x="275" y="70"/>
      <point x="220" y="44"/>
      <point x="194" y="26" type="curve" smooth="yes"/>
      <point x="167" y="7"/>
      <point x="117" y="-11"/>
      <point x="84" y="-39" type="curve" smooth="yes"/>
      <point x="64" y="-56"/>
      <point x="53" y="-71"/>
      <point x="53" y="-96" type="curve" smooth="yes"/>
      <point x="53" y="-120"/>
      <point x="65" y="-135"/>
      <point x="90" y="-135" type="curve" smooth="yes"/>
      <point x="120" y="-135"/>
      <point x="151" y="-84"/>
      <point x="181" y="-84" type="curve" smooth="yes"/>
      <point x="227" y="-84"/>
      <point x="239" y="-133"/>
      <point x="224" y="-171" type="curve"/>
      <point x="212" y="-186"/>
      <point x="188" y="-208"/>
      <point x="141" y="-208" type="curve" smooth="yes"/>
      <point x="58" y="-208"/>
      <point x="-20" y="-136"/>
      <point x="-20" y="-62" type="curve" smooth="yes"/>
      <point x="-20" y="-7"/>
      <point x="-7" y="34"/>
      <point x="68" y="81" type="curve" smooth="yes"/>
      <point x="84" y="91"/>
      <point x="117" y="105"/>
      <point x="144" y="123" type="curve" smooth="yes"/>
      <point x="166" y="137"/>
      <point x="183" y="154"/>
      <point x="183" y="171" type="curve" smooth="yes"/>
      <point x="183" y="200"/>
      <point x="157" y="218"/>
    </contour>
  </outline>
</glyph>
<glyph name="Eth" format="1">
  <advance width="721"/>
  <unicode hex="00D0"/>
  <outline>
    <contour>
      <point x="60" y="343" type="curve"/>
      <point x="88" y="343"/>
      <point x="377" y="343"/>
      <point x="390" y="343" type="curve" smooth="yes"/>
      <point x="394" y="343"/>
      <point x="396" y="339"/>
      <point x="395" y="335" type="curve" smooth="yes"/>
      <point x="394" y="330"/>
      <point x="389" y="311"/>
      <point x="384" y="304" type="curve"/>
      <point x="356" y="304"/>
      <point x="66" y="304"/>
      <point x="53" y="304" type="curve" smooth="yes"/>
      <point x="49" y="304"/>
      <point x="49" y="311"/>
      <point x="50" y="315" type="curve" smooth="yes"/>
      <point x="51" y="320"/>
      <point x="53" y="336"/>
    </contour>
    <component base="D" xOffset="1"/>
  </outline>
</glyph>
<glyph name="multiply" format="1">
  <advance width="436"/>
  <unicode hex="00D7"/>
  <outline>
    <contour>
      <point x="39" y="70" type="curve" smooth="yes"/>
      <point x="33" y="70"/>
      <point x="24" y="97"/>
      <point x="24" y="113" type="curve"/>
      <point x="178" y="248" type="line" smooth="yes"/>
      <point x="179" y="249"/>
      <point x="180" y="250"/>
      <point x="180" y="251" type="curve" smooth="yes"/>
      <point x="180" y="253"/>
      <point x="180" y="255"/>
      <point x="179" y="256" type="curve" smooth="yes"/>
      <point x="78" y="393" type="line"/>
      <point x="78" y="407"/>
      <point x="105" y="429"/>
      <point x="110" y="429" type="curve" smooth="yes"/>
      <point x="114" y="429"/>
      <point x="112" y="427"/>
      <point x="114" y="425" type="curve" smooth="yes"/>
      <point x="218" y="284" type="line" smooth="yes"/>
      <point x="219" y="283"/>
      <point x="221" y="282"/>
      <point x="222" y="282" type="curve" smooth="yes"/>
      <point x="224" y="283" type="line" smooth="yes"/>
      <point x="382" y="424" type="line" smooth="yes"/>
      <point x="384" y="426"/>
      <point x="386" y="427"/>
      <point x="388" y="427" type="curve" smooth="yes"/>
      <point x="395" y="427"/>
      <point x="403" y="401"/>
      <point x="403" y="383" type="curve"/>
      <point x="250" y="247" type="line" smooth="yes"/>
      <point x="249" y="246"/>
      <point x="248" y="246"/>
      <point x="248" y="245" type="curve" smooth="yes"/>
      <point x="248" y="244"/>
      <point x="248" y="244"/>
      <point x="249" y="243" type="curve" smooth="yes"/>
      <point x="349" y="107" type="line"/>
      <point x="349" y="93"/>
      <point x="329" y="70"/>
      <point x="322" y="70" type="curve" smooth="yes"/>
      <point x="318" y="70"/>
      <point x="316" y="71"/>
      <point x="315" y="73" type="curve" smooth="yes"/>
      <point x="212" y="213" type="line" smooth="yes"/>
      <point x="211" y="214"/>
      <point x="210" y="215"/>
      <point x="209" y="215" type="curve" smooth="yes"/>
      <point x="208" y="215"/>
      <point x="206" y="214"/>
      <point x="205" y="213" type="curve" smooth="yes"/>
      <point x="44" y="73" type="line" smooth="yes"/>
      <point x="42" y="71"/>
      <point x="41" y="70"/>
    </contour>
  </outline>
</glyph>
<glyph name="Thorn" format="1">
  <advance width="556"/>
  <unicode hex="00DE"/>
  <outline>
    <contour>
      <point x="364" y="513" type="curve" smooth="yes"/>
      <point x="483" y="513"/>
      <point x="565" y="424"/>
      <point x="544" y="317" type="curve" smooth="yes"/>
      <point x="521" y="197"/>
      <point x="399" y="135"/>
      <point x="305" y="135" type="curve" smooth="yes"/>
      <point x="272" y="135"/>
      <point x="259" y="147"/>
      <point x="254" y="154" type="curve" smooth="yes"/>
      <point x="251" y="158"/>
      <point x="249" y="171"/>
      <point x="249" y="176" type="curve" smooth="yes"/>
      <point x="249" y="180"/>
      <point x="251" y="183"/>
      <point x="253" y="183" type="curve"/>
      <point x="262" y="180"/>
      <point x="269" y="179"/>
      <point x="283" y="179" type="curve" smooth="yes"/>
      <point x="329" y="179"/>
      <point x="390" y="237"/>
      <point x="403" y="303" type="curve" smooth="yes"/>
      <point x="420" y="392"/>
      <point x="394" y="472"/>
      <point x="332" y="472" type="curve" smooth="yes"/>
      <point x="311" y="472"/>
      <point x="293" y="468"/>
      <point x="284" y="456" type="curve" smooth="yes"/>
      <point x="276" y="445"/>
      <point x="273" y="428"/>
      <point x="267" y="399" type="curve" smooth="yes"/>
      <point x="218" y="145" type="line" smooth="yes"/>
      <point x="210" y="102"/>
      <point x="203" y="71"/>
      <point x="207" y="51" type="curve" smooth="yes"/>
      <point x="209" y="38"/>
      <point x="251" y="34"/>
      <point x="263" y="33" type="curve"/>
      <point x="266" y="26"/>
      <point x="261" y="2"/>
      <point x="256" y="-4" type="curve"/>
      <point x="221" y="0"/>
      <point x="163" y="3"/>
      <point x="124" y="3" type="curve" smooth="yes"/>
      <point x="85" y="3"/>
      <point x="28" y="0"/>
      <point x="-9" y="-4" type="curve"/>
      <point x="-12" y="2"/>
      <point x="-7" y="26"/>
      <point x="-1" y="33" type="curve"/>
      <point x="11" y="34"/>
      <point x="55" y="38"/>
      <point x="62" y="51" type="curve" smooth="yes"/>
      <point x="73" y="71"/>
      <point x="79" y="102"/>
      <point x="87" y="145" type="curve" smooth="yes"/>
      <point x="159" y="513" type="line" smooth="yes"/>
      <point x="167" y="556"/>
      <point x="174" y="587"/>
      <point x="170" y="607" type="curve" smooth="yes"/>
      <point x="168" y="620"/>
      <point x="125" y="622"/>
      <point x="113" y="623" type="curve"/>
      <point x="110" y="630"/>
      <point x="116" y="654"/>
      <point x="121" y="660" type="curve"/>
      <point x="162" y="657"/>
      <point x="214" y="657"/>
      <point x="253" y="657" type="curve" smooth="yes"/>
      <point x="292" y="657"/>
      <point x="348" y="660"/>
      <point x="385" y="664" type="curve"/>
      <point x="388" y="658"/>
      <point x="384" y="634"/>
      <point x="378" y="627" type="curve"/>
      <point x="366" y="626"/>
      <point x="322" y="622"/>
      <point x="315" y="609" type="curve" smooth="yes"/>
      <point x="305" y="591"/>
      <point x="298" y="559"/>
      <point x="291" y="520" type="curve" smooth="yes"/>
      <point x="291" y="520"/>
      <point x="291" y="509"/>
      <point x="293" y="509" type="curve" smooth="yes"/>
      <point x="295" y="509"/>
      <point x="296" y="510"/>
      <point x="298" y="510" type="curve" smooth="yes"/>
      <point x="312" y="513"/>
      <point x="343" y="513"/>
    </contour>
  </outline>
</glyph>
<glyph name="divide" format="1">
  <advance width="535"/>
  <unicode hex="00F7"/>
  <outline>
    <contour>
      <point x="51" y="223" type="line" smooth="yes"/>
      <point x="48" y="223"/>
      <point x="46" y="226"/>
      <point x="46" y="231" type="curve" smooth="yes"/>
      <point x="46" y="244"/>
      <point x="51" y="261"/>
      <point x="61" y="274" type="curve"/>
      <point x="479" y="274" type="line" smooth="yes"/>
      <point x="481" y="274"/>
      <point x="482" y="271"/>
      <point x="482" y="266" type="curve" smooth="yes"/>
      <point x="482" y="253"/>
      <point x="480" y="235"/>
      <point x="469" y="223" type="curve"/>
    </contour>
    <contour>
      <point x="311" y="497" type="curve" smooth="yes"/>
      <point x="337" y="497"/>
      <point x="356" y="477"/>
      <point x="356" y="450" type="curve" smooth="yes"/>
      <point x="356" y="417"/>
      <point x="329" y="385"/>
      <point x="296" y="385" type="curve" smooth="yes"/>
      <point x="270" y="385"/>
      <point x="252" y="406"/>
      <point x="252" y="433" type="curve" smooth="yes"/>
      <point x="252" y="466"/>
      <point x="278" y="497"/>
    </contour>
    <contour>
      <point x="238" y="112" type="curve" smooth="yes"/>
      <point x="264" y="112"/>
      <point x="283" y="92"/>
      <point x="283" y="65" type="curve" smooth="yes"/>
      <point x="283" y="32"/>
      <point x="256" y="0"/>
      <point x="223" y="0" type="curve" smooth="yes"/>
      <point x="197" y="0"/>
      <point x="179" y="21"/>
      <point x="179" y="48" type="curve" smooth="yes"/>
      <point x="179" y="81"/>
      <point x="205" y="112"/>
    </contour>
  </outline>
</glyph>
<glyph name="thorn" format="1">
  <advance width="497"/>
  <unicode hex="00FE"/>
  <outline>
    <contour>
      <point x="274" y="603" type="curve" smooth="yes"/>
      <point x="271" y="585"/>
      <point x="230" y="382"/>
      <point x="228" y="373" type="curve"/>
      <point x="256" y="404"/>
      <point x="321" y="449"/>
      <point x="372" y="449" type="curve" smooth="yes"/>
      <point x="436" y="449"/>
      <point x="470" y="398"/>
      <point x="470" y="328" type="curve" smooth="yes"/>
      <point x="470" y="160"/>
      <point x="302" y="-5"/>
      <point x="180" y="-5" type="curve" smooth="yes"/>
      <point x="174" y="-5"/>
      <point x="162" y="-4"/>
      <point x="153" y="0" type="curve"/>
      <point x="127" y="-126" type="line" smooth="yes"/>
      <point x="125" y="-135"/>
      <point x="124" y="-144"/>
      <point x="124" y="-154" type="curve" smooth="yes"/>
      <point x="124" y="-159"/>
      <point x="128" y="-174"/>
      <point x="138" y="-177" type="curve" smooth="yes"/>
      <point x="155" y="-181"/>
      <point x="182" y="-180"/>
      <point x="185" y="-180" type="curve" smooth="yes"/>
      <point x="189" y="-181"/>
      <point x="186" y="-209"/>
      <point x="181" y="-211" type="curve"/>
      <point x="168" y="-211"/>
      <point x="157" y="-210"/>
      <point x="146" y="-210" type="curve" smooth="yes"/>
      <point x="95" y="-210"/>
      <point x="7" y="-212"/>
      <point x="-51" y="-219" type="curve"/>
      <point x="-56" y="-218"/>
      <point x="-54" y="-190"/>
      <point x="-49" y="-187" type="curve"/>
      <point x="-31" y="-187"/>
      <point x="-18" y="-182"/>
      <point x="-9" y="-171" type="curve" smooth="yes"/>
      <point x="-2" y="-162"/>
      <point x="2" y="-151"/>
      <point x="7" y="-128" type="curve" smooth="yes"/>
      <point x="82" y="232" type="line"/>
      <point x="34" y="184" type="line"/>
      <point x="30" y="189"/>
      <point x="27" y="204"/>
      <point x="27" y="211" type="curve" smooth="yes"/>
      <point x="27" y="222"/>
      <point x="36" y="234"/>
      <point x="42" y="239" type="curve" smooth="yes"/>
      <point x="93" y="287" type="line"/>
      <point x="149" y="561" type="line" smooth="yes"/>
      <point x="153" y="579"/>
      <point x="158" y="603"/>
      <point x="158" y="614" type="curve" smooth="yes"/>
      <point x="158" y="633"/>
      <point x="113" y="633"/>
      <point x="97" y="633" type="curve"/>
      <point x="94" y="637"/>
      <point x="97" y="658"/>
      <point x="101" y="662" type="curve"/>
      <point x="156" y="667"/>
      <point x="259" y="689"/>
      <point x="281" y="697" type="curve"/>
      <point x="286" y="694"/>
      <point x="287" y="684"/>
      <point x="287" y="678" type="curve" smooth="yes"/>
      <point x="287" y="670"/>
      <point x="279" y="627"/>
    </contour>
    <contour>
      <point x="302" y="365" type="curve" smooth="yes"/>
      <point x="272" y="365"/>
      <point x="242" y="345"/>
      <point x="220" y="323" type="curve"/>
      <point x="215" y="296"/>
      <point x="185" y="149"/>
      <point x="185" y="149" type="curve" smooth="yes"/>
      <point x="170" y="72"/>
      <point x="182" y="39"/>
      <point x="208" y="39" type="curve" smooth="yes"/>
      <point x="279" y="39"/>
      <point x="341" y="215"/>
      <point x="341" y="299" type="curve" smooth="yes"/>
      <point x="341" y="332"/>
      <point x="334" y="365"/>
    </contour>
  </outline>
</glyph>
<glyph name="aogonek" format="1">
  <advance width="489"/>
  <unicode hex="0105"/>
  <outline>
    <contour>
      <point x="262" y="394" type="curve" smooth="yes"/>
      <point x="194" y="394"/>
      <point x="137" y="270"/>
      <point x="137" y="152" type="curve" smooth="yes"/>
      <point x="137" y="104"/>
      <point x="151" y="81"/>
      <point x="173" y="81" type="curve" smooth="yes"/>
      <point x="207" y="81"/>
      <point x="257" y="182"/>
      <point x="277" y="281" type="curve" smooth="yes"/>
      <point x="297" y="382" type="line"/>
      <point x="290" y="390"/>
      <point x="276" y="394"/>
    </contour>
    <contour>
      <point x="458" y="112" type="curve"/>
      <point x="449" y="95"/>
      <point x="419" y="62"/>
      <point x="385" y="34" type="curve" smooth="yes"/>
      <point x="324" y="-16"/>
      <point x="256" y="-67"/>
      <point x="256" y="-122" type="curve" smooth="yes"/>
      <point x="256" y="-146"/>
      <point x="267" y="-156"/>
      <point x="292" y="-156" type="curve" smooth="yes"/>
      <point x="334" y="-156"/>
      <point x="359" y="-125"/>
      <point x="366" y="-120" type="curve"/>
      <point x="373" y="-122"/>
      <point x="371" y="-142"/>
      <point x="369" y="-146" type="curve" smooth="yes"/>
      <point x="346" y="-185"/>
      <point x="297" y="-218"/>
      <point x="255" y="-218" type="curve" smooth="yes"/>
      <point x="216" y="-218"/>
      <point x="195" y="-187"/>
      <point x="195" y="-160" type="curve" smooth="yes"/>
      <point x="195" y="-96"/>
      <point x="246" y="-52"/>
      <point x="288" y="-7" type="curve"/>
      <point x="258" y="-3"/>
      <point x="237" y="18"/>
      <point x="237" y="58" type="curve" smooth="yes"/>
      <point x="237" y="62"/>
      <point x="238" y="70"/>
      <point x="239" y="77" type="curve" smooth="yes"/>
      <point x="240" y="85"/>
      <point x="242" y="92"/>
      <point x="243" y="96" type="curve"/>
      <point x="222" y="59"/>
      <point x="157" y="-7"/>
      <point x="97" y="-7" type="curve" smooth="yes"/>
      <point x="41" y="-7"/>
      <point x="11" y="47"/>
      <point x="11" y="115" type="curve" smooth="yes"/>
      <point x="11" y="294"/>
      <point x="191" y="449"/>
      <point x="318" y="449" type="curve" smooth="yes"/>
      <point x="354" y="449"/>
      <point x="405" y="438"/>
      <point x="425" y="431" type="curve"/>
      <point x="363" y="132" type="line" smooth="yes"/>
      <point x="362" y="128"/>
      <point x="359" y="104"/>
      <point x="359" y="99" type="curve" smooth="yes"/>
      <point x="359" y="90"/>
      <point x="363" y="78"/>
      <point x="373" y="78" type="curve" smooth="yes"/>
      <point x="395" y="78"/>
      <point x="441" y="133"/>
      <point x="444" y="139" type="curve"/>
      <point x="451" y="139"/>
      <point x="458" y="118"/>
    </contour>
  </outline>
</glyph>
<glyph name="dcroat" format="1">
  <advance width="480"/>
  <unicode hex="0111"/>
  <outline>
    <contour>
      <point x="204" y="556" type="curve"/>
      <point x="232" y="556"/>
      <point x="496" y="556"/>
      <point x="509" y="556" type="curve" smooth="yes"/>
      <point x="513" y="556"/>
      <point x="515" y="552"/>
      <point x="514" y="548" type="curve" smooth="yes"/>
      <point x="513" y="543"/>
      <point x="508" y="524"/>
      <point x="503" y="517" type="curve"/>
      <point x="475" y="517"/>
      <point x="210" y="517"/>
      <point x="197" y="517" type="curve" smooth="yes"/>
      <point x="193" y="517"/>
      <point x="193" y="524"/>
      <point x="194" y="528" type="curve" smooth="yes"/>
      <point x="195" y="533"/>
      <point x="197" y="549"/>
    </contour>
    <component base="d"/>
  </outline>
</glyph>
<glyph name="eogonek" format="1">
  <advance width="394"/>
  <unicode hex="0119"/>
  <outline>
    <contour>
      <point x="145" y="226" type="curve"/>
      <point x="184" y="226"/>
      <point x="260" y="299"/>
      <point x="260" y="373" type="curve" smooth="yes"/>
      <point x="260" y="400"/>
      <point x="256" y="412"/>
      <point x="234" y="412" type="curve" smooth="yes"/>
      <point x="186" y="412"/>
      <point x="150" y="277"/>
    </contour>
    <contour>
      <point x="62" y="-160" type="curve" smooth="yes"/>
      <point x="62" y="-102"/>
      <point x="109" y="-49"/>
      <point x="149" y="-4" type="curve"/>
      <point x="142" y="-6"/>
      <point x="138" y="-6"/>
      <point x="131" y="-6" type="curve" smooth="yes"/>
      <point x="60" y="-6"/>
      <point x="16" y="47"/>
      <point x="16" y="140" type="curve" smooth="yes"/>
      <point x="16" y="288"/>
      <point x="153" y="449"/>
      <point x="268" y="449" type="curve" smooth="yes"/>
      <point x="319" y="449"/>
      <point x="379" y="427"/>
      <point x="379" y="357" type="curve" smooth="yes"/>
      <point x="379" y="254"/>
      <point x="204" y="188"/>
      <point x="142" y="188" type="curve"/>
      <point x="141" y="185"/>
      <point x="140" y="168"/>
      <point x="140" y="163" type="curve" smooth="yes"/>
      <point x="140" y="126"/>
      <point x="151" y="77"/>
      <point x="201" y="77" type="curve" smooth="yes"/>
      <point x="246" y="77"/>
      <point x="299" y="139"/>
      <point x="302" y="142" type="curve"/>
      <point x="311" y="142"/>
      <point x="317" y="118"/>
      <point x="317" y="112" type="curve"/>
      <point x="311" y="102"/>
      <point x="286" y="78"/>
      <point x="254" y="53" type="curve" smooth="yes"/>
      <point x="187" y="1"/>
      <point x="123" y="-67"/>
      <point x="123" y="-122" type="curve" smooth="yes"/>
      <point x="123" y="-146"/>
      <point x="134" y="-156"/>
      <point x="159" y="-156" type="curve" smooth="yes"/>
      <point x="201" y="-156"/>
      <point x="226" y="-125"/>
      <point x="233" y="-120" type="curve"/>
      <point x="240" y="-122"/>
      <point x="238" y="-142"/>
      <point x="236" y="-146" type="curve" smooth="yes"/>
      <point x="213" y="-185"/>
      <point x="164" y="-218"/>
      <point x="122" y="-218" type="curve" smooth="yes"/>
      <point x="83" y="-218"/>
      <point x="62" y="-187"/>
    </contour>
  </outline>
</glyph>
<glyph name="Hbar" format="1">
  <advance width="707"/>
  <unicode hex="0126"/>
  <outline>
    <contour>
      <point x="107" y="516" type="curve"/>
      <point x="132" y="516"/>
      <point x="686" y="516"/>
      <point x="698" y="516" type="curve" smooth="yes"/>
      <point x="701" y="516"/>
      <point x="702" y="512"/>
      <point x="701" y="508" type="curve" smooth="yes"/>
      <point x="700" y="503"/>
      <point x="695" y="485"/>
      <point x="690" y="477" type="curve"/>
      <point x="665" y="477"/>
      <point x="110" y="477"/>
      <point x="98" y="477" type="curve" smooth="yes"/>
      <point x="95" y="477"/>
      <point x="95" y="484"/>
      <point x="96" y="488" type="curve" smooth="yes"/>
      <point x="97" y="493"/>
      <point x="100" y="508"/>
    </contour>
    <component base="H"/>
  </outline>
</glyph>
<glyph name="Iogonek" format="1">
  <advance width="353"/>
  <unicode hex="012E"/>
  <outline>
    <contour>
      <point x="263" y="33" type="curve"/>
      <point x="266" y="26"/>
      <point x="261" y="2"/>
      <point x="256" y="-4" type="curve"/>
      <point x="247" y="-4"/>
      <point x="216" y="-3"/>
      <point x="192" y="-6" type="curve" smooth="yes"/>
      <point x="141" y="-12"/>
      <point x="73" y="-69"/>
      <point x="73" y="-122" type="curve" smooth="yes"/>
      <point x="73" y="-146"/>
      <point x="84" y="-156"/>
      <point x="109" y="-156" type="curve" smooth="yes"/>
      <point x="151" y="-156"/>
      <point x="176" y="-125"/>
      <point x="183" y="-120" type="curve"/>
      <point x="190" y="-122"/>
      <point x="188" y="-142"/>
      <point x="186" y="-146" type="curve" smooth="yes"/>
      <point x="163" y="-185"/>
      <point x="114" y="-218"/>
      <point x="72" y="-218" type="curve" smooth="yes"/>
      <point x="33" y="-218"/>
      <point x="12" y="-187"/>
      <point x="12" y="-160" type="curve" smooth="yes"/>
      <point x="12" y="-82"/>
      <point x="92" y="-15"/>
      <point x="129" y="4" type="curve"/>
      <point x="91" y="4"/>
      <point x="25" y="0"/>
      <point x="-9" y="-4" type="curve"/>
      <point x="-12" y="2"/>
      <point x="-7" y="26"/>
      <point x="-1" y="33" type="curve"/>
      <point x="11" y="34"/>
      <point x="55" y="38"/>
      <point x="62" y="51" type="curve" smooth="yes"/>
      <point x="73" y="71"/>
      <point x="79" y="102"/>
      <point x="87" y="145" type="curve" smooth="yes"/>
      <point x="159" y="513" type="line" smooth="yes"/>
      <point x="167" y="556"/>
      <point x="174" y="587"/>
      <point x="170" y="607" type="curve" smooth="yes"/>
      <point x="168" y="620"/>
      <point x="126" y="624"/>
      <point x="114" y="625" type="curve"/>
      <point x="111" y="632"/>
      <point x="116" y="656"/>
      <point x="121" y="662" type="curve"/>
      <point x="156" y="658"/>
      <point x="214" y="655"/>
      <point x="253" y="655" type="curve" smooth="yes"/>
      <point x="292" y="655"/>
      <point x="348" y="658"/>
      <point x="385" y="662" type="curve"/>
      <point x="388" y="656"/>
      <point x="384" y="632"/>
      <point x="378" y="625" type="curve"/>
      <point x="366" y="624"/>
      <point x="322" y="620"/>
      <point x="315" y="607" type="curve" smooth="yes"/>
      <point x="304" y="587"/>
      <point x="297" y="556"/>
      <point x="289" y="513" type="curve" smooth="yes"/>
      <point x="218" y="145" type="line" smooth="yes"/>
      <point x="210" y="102"/>
      <point x="203" y="71"/>
      <point x="207" y="51" type="curve" smooth="yes"/>
      <point x="209" y="38"/>
      <point x="251" y="34"/>
    </contour>
  </outline>
</glyph>
<glyph name="kgreenlandic" format="1">
  <advance width="535"/>
  <unicode hex="0138"/>
  <outline>
    <contour>
      <point x="106" y="309" type="curve" smooth="yes"/>
      <point x="107" y="313"/>
      <point x="111" y="337"/>
      <point x="111" y="342" type="curve" smooth="yes"/>
      <point x="111" y="351"/>
      <point x="106" y="363"/>
      <point x="96" y="363" type="curve" smooth="yes"/>
      <point x="74" y="363"/>
      <point x="28" y="308"/>
      <point x="25" y="302" type="curve"/>
      <point x="18" y="302"/>
      <point x="11" y="323"/>
      <point x="11" y="329" type="curve"/>
      <point x="28" y="361"/>
      <point x="112" y="449"/>
      <point x="166" y="449" type="curve" smooth="yes"/>
      <point x="206" y="449"/>
      <point x="233" y="424"/>
      <point x="233" y="378" type="curve" smooth="yes"/>
      <point x="233" y="366"/>
      <point x="232" y="358"/>
      <point x="231" y="348" type="curve" smooth="yes"/>
      <point x="231" y="346"/>
      <point x="230" y="343"/>
      <point x="230" y="341" type="curve"/>
      <point x="242" y="367"/>
      <point x="324" y="449"/>
      <point x="408" y="449" type="curve" smooth="yes"/>
      <point x="466" y="449"/>
      <point x="490" y="423"/>
      <point x="490" y="377" type="curve" smooth="yes"/>
      <point x="490" y="311"/>
      <point x="393" y="255"/>
      <point x="318" y="230" type="curve"/>
      <point x="335" y="182"/>
      <point x="379" y="82"/>
      <point x="422" y="82" type="curve" smooth="yes"/>
      <point x="446" y="82"/>
      <point x="482" y="127"/>
      <point x="490" y="138" type="curve"/>
      <point x="500" y="138"/>
      <point x="504" y="117"/>
      <point x="504" y="112" type="curve"/>
      <point x="494" y="85"/>
      <point x="413" y="-4"/>
      <point x="353" y="-4" type="curve" smooth="yes"/>
      <point x="276" y="-4"/>
      <point x="224" y="137"/>
      <point x="203" y="208" type="curve"/>
      <point x="188" y="133"/>
      <point x="162" y="0"/>
      <point x="162" y="0" type="curve"/>
      <point x="152" y="-3"/>
      <point x="117" y="-6"/>
      <point x="106" y="-6" type="curve" smooth="yes"/>
      <point x="95" y="-6"/>
      <point x="59" y="-3"/>
      <point x="47" y="0" type="curve"/>
      <point x="53" y="31"/>
      <point x="106" y="309"/>
    </contour>
    <contour>
      <point x="333" y="374" type="curve" smooth="yes"/>
      <point x="274" y="374"/>
      <point x="211" y="272"/>
      <point x="211" y="248" type="curve"/>
      <point x="273" y="248"/>
      <point x="361" y="288"/>
      <point x="361" y="342" type="curve" smooth="yes"/>
      <point x="361" y="352"/>
      <point x="356" y="374"/>
    </contour>
  </outline>
</glyph>
<glyph name="Lslash" format="1">
  <advance width="548"/>
  <unicode hex="0141"/>
  <outline>
    <contour>
      <point x="2" y="196" type="line" smooth="yes"/>
      <point x="-3" y="192"/>
      <point x="7" y="245"/>
      <point x="12" y="250" type="curve" smooth="yes"/>
      <point x="169" y="338.659" type="line"/>
      <point x="210" y="353.812" type="line"/>
      <point x="437" y="482" type="line" smooth="yes"/>
      <point x="443" y="486"/>
      <point x="432" y="432"/>
      <point x="427" y="428" type="curve" smooth="yes"/>
      <point x="199" y="296.247" type="line"/>
      <point x="165" y="286.047" type="line"/>
    </contour>
    <component base="L" xOffset="1"/>
  </outline>
</glyph>
<glyph name="lslash" format="1">
  <advance width="285"/>
  <unicode hex="0142"/>
  <outline>
    <contour>
      <point x="33" y="290" type="curve" smooth="yes"/>
      <point x="268" y="439" type="line"/>
      <point x="271" y="434"/>
      <point x="281" y="413"/>
      <point x="276" y="410" type="curve" smooth="yes"/>
      <point x="40" y="260" type="line"/>
      <point x="36" y="266"/>
      <point x="28" y="287"/>
    </contour>
    <component base="l" xOffset="21"/>
  </outline>
</glyph>
<glyph name="eng" format="1">
  <advance width="503"/>
  <unicode hex="014B"/>
  <outline>
    <contour>
      <point x="414" y="120" type="line" smooth="yes"/>
      <point x="398" y="36"/>
      <point x="369" y="-20"/>
      <point x="328" y="-75" type="curve" smooth="yes"/>
      <point x="285" y="-132"/>
      <point x="168" y="-210"/>
      <point x="140" y="-218" type="curve"/>
      <point x="135" y="-218"/>
      <point x="130" y="-205"/>
      <point x="130" y="-196" type="curve"/>
      <point x="235" y="-115"/>
      <point x="265" y="-49"/>
      <point x="294" y="100" type="curve" smooth="yes"/>
      <point x="321" y="242" type="line" smooth="yes"/>
      <point x="323" y="254"/>
      <point x="333" y="308"/>
      <point x="333" y="318" type="curve" smooth="yes"/>
      <point x="333" y="328"/>
      <point x="328" y="339"/>
      <point x="317" y="339" type="curve" smooth="yes"/>
      <point x="288" y="339"/>
      <point x="210" y="218"/>
      <point x="182" y="91" type="curve" smooth="yes"/>
      <point x="162" y="0" type="line"/>
      <point x="152" y="-3"/>
      <point x="117" y="-6"/>
      <point x="106" y="-6" type="curve" smooth="yes"/>
      <point x="95" y="-6"/>
      <point x="59" y="-3"/>
      <point x="47" y="0" type="curve"/>
      <point x="106" y="309" type="line" smooth="yes"/>
      <point x="107" y="313"/>
      <point x="111" y="337"/>
      <point x="111" y="342" type="curve" smooth="yes"/>
      <point x="111" y="351"/>
      <point x="106" y="363"/>
      <point x="96" y="363" type="curve" smooth="yes"/>
      <point x="74" y="363"/>
      <point x="28" y="308"/>
      <point x="25" y="302" type="curve"/>
      <point x="18" y="302"/>
      <point x="11" y="323"/>
      <point x="11" y="329" type="curve"/>
      <point x="28" y="361"/>
      <point x="112" y="449"/>
      <point x="166" y="449" type="curve" smooth="yes"/>
      <point x="206" y="449"/>
      <point x="233" y="424"/>
      <point x="233" y="378" type="curve" smooth="yes"/>
      <point x="233" y="364"/>
      <point x="226" y="329"/>
      <point x="224" y="318" type="curve" smooth="yes"/>
      <point x="221" y="304"/>
      <point x="219" y="295"/>
      <point x="214" y="274" type="curve"/>
      <point x="244" y="342"/>
      <point x="333" y="449"/>
      <point x="383" y="449" type="curve" smooth="yes"/>
      <point x="439" y="449"/>
      <point x="455" y="419"/>
      <point x="455" y="362" type="curve" smooth="yes"/>
      <point x="455" y="328"/>
      <point x="440" y="259"/>
      <point x="435" y="233" type="curve" smooth="yes"/>
    </contour>
  </outline>
</glyph>
<glyph name="OE" format="1">
  <advance width="979"/>
  <unicode hex="0152"/>
  <outline>
    <contour>
      <point x="421" y="624" type="curve" smooth="yes"/>
      <point x="283" y="624"/>
      <point x="195" y="409"/>
      <point x="195" y="244" type="curve" smooth="yes"/>
      <point x="195" y="129"/>
      <point x="232" y="33"/>
      <point x="324" y="33" type="curve" smooth="yes"/>
      <point x="437" y="33"/>
      <point x="481" y="81"/>
      <point x="492" y="139" type="curve" smooth="yes"/>
      <point x="492" y="139"/>
      <point x="535" y="360"/>
      <point x="557" y="472" type="curve" smooth="yes"/>
      <point x="565" y="514"/>
      <point x="557" y="559"/>
      <point x="526" y="589" type="curve" smooth="yes"/>
      <point x="497" y="617"/>
      <point x="454" y="624"/>
    </contour>
    <contour>
      <point x="549" y="-2" type="curve" smooth="yes"/>
      <point x="537" y="-2"/>
      <point x="480" y="-3"/>
      <point x="427" y="-6" type="curve" smooth="yes"/>
      <point x="390" y="-8"/>
      <point x="349" y="-10"/>
      <point x="297" y="-10" type="curve" smooth="yes"/>
      <point x="157" y="-10"/>
      <point x="51" y="115"/>
      <point x="51" y="261" type="curve" smooth="yes"/>
      <point x="51" y="510"/>
      <point x="228" y="667"/>
      <point x="443" y="667" type="curve" smooth="yes"/>
      <point x="542" y="667"/>
      <point x="567" y="657"/>
      <point x="637" y="657" type="curve" smooth="yes"/>
      <point x="676" y="657"/>
      <point x="908" y="663"/>
      <point x="963" y="664" type="curve"/>
      <point x="962" y="646"/>
      <point x="961" y="628"/>
      <point x="961" y="610" type="curve" smooth="yes"/>
      <point x="960" y="577"/>
      <point x="961" y="545"/>
      <point x="961" y="516" type="curve"/>
      <point x="958" y="513"/>
      <point x="945" y="511"/>
      <point x="938" y="511" type="curve" smooth="yes"/>
      <point x="931" y="511"/>
      <point x="926" y="514"/>
      <point x="925" y="519" type="curve" smooth="yes"/>
      <point x="916" y="574"/>
      <point x="901" y="620"/>
      <point x="844" y="620" type="curve" smooth="yes"/>
      <point x="767" y="620" type="line" smooth="yes"/>
      <point x="746" y="620"/>
      <point x="725" y="619"/>
      <point x="718" y="608" type="curve" smooth="yes"/>
      <point x="711" y="596"/>
      <point x="708" y="576"/>
      <point x="702" y="547" type="curve" smooth="yes"/>
      <point x="667" y="368" type="line" smooth="yes"/>
      <point x="666" y="362"/>
      <point x="685" y="357"/>
      <point x="705" y="357" type="curve" smooth="yes"/>
      <point x="754" y="357" type="line" smooth="yes"/>
      <point x="809" y="357"/>
      <point x="824" y="369"/>
      <point x="850" y="427" type="curve" smooth="yes"/>
      <point x="852" y="432"/>
      <point x="855" y="435"/>
      <point x="862" y="435" type="curve" smooth="yes"/>
      <point x="869" y="435"/>
      <point x="877" y="433"/>
      <point x="879" y="430" type="curve"/>
      <point x="842" y="238" type="line"/>
      <point x="840" y="236"/>
      <point x="831" y="234"/>
      <point x="824" y="234" type="curve" smooth="yes"/>
      <point x="817" y="234"/>
      <point x="813" y="237"/>
      <point x="813" y="242" type="curve" smooth="yes"/>
      <point x="811" y="290"/>
      <point x="800" y="299"/>
      <point x="792" y="303" type="curve" smooth="yes"/>
      <point x="782" y="308"/>
      <point x="758" y="310"/>
      <point x="723" y="310" type="curve" smooth="yes"/>
      <point x="697" y="310"/>
      <point x="655" y="308"/>
      <point x="653" y="296" type="curve" smooth="yes"/>
      <point x="623" y="141" type="line" smooth="yes"/>
      <point x="622" y="135"/>
      <point x="611" y="82"/>
      <point x="615" y="62" type="curve" smooth="yes"/>
      <point x="618" y="48"/>
      <point x="647" y="42"/>
      <point x="671" y="42" type="curve" smooth="yes"/>
      <point x="733" y="42" type="line" smooth="yes"/>
      <point x="768" y="42"/>
      <point x="800" y="52"/>
      <point x="826" y="75" type="curve" smooth="yes"/>
      <point x="850" y="96"/>
      <point x="869" y="125"/>
      <point x="894" y="170" type="curve" smooth="yes"/>
      <point x="896" y="174"/>
      <point x="902" y="176"/>
      <point x="909" y="176" type="curve" smooth="yes"/>
      <point x="918" y="176"/>
      <point x="933" y="173"/>
      <point x="935" y="170" type="curve"/>
      <point x="907" y="116"/>
      <point x="867" y="42"/>
      <point x="852" y="-2" type="curve"/>
      <point x="828" y="-2"/>
      <point x="675" y="-2"/>
    </contour>
  </outline>
</glyph>
<glyph name="oe" format="1">
  <advance width="655"/>
  <unicode hex="0153"/>
  <outline>
    <contour>
      <point x="406" y="226" type="curve"/>
      <point x="445" y="226"/>
      <point x="521" y="299"/>
      <point x="521" y="373" type="curve" smooth="yes"/>
      <point x="521" y="391"/>
      <point x="517" y="412"/>
      <point x="495" y="412" type="curve" smooth="yes"/>
      <point x="447" y="412"/>
      <point x="411" y="277"/>
    </contour>
    <contour>
      <point x="262" y="409" type="curve" smooth="yes"/>
      <point x="187" y="409"/>
      <point x="140" y="235"/>
      <point x="140" y="125" type="curve" smooth="yes"/>
      <point x="140" y="101"/>
      <point x="140" y="34"/>
      <point x="174" y="34" type="curve" smooth="yes"/>
      <point x="249" y="34"/>
      <point x="296" y="209"/>
      <point x="296" y="312" type="curve" smooth="yes"/>
      <point x="296" y="345"/>
      <point x="296" y="409"/>
    </contour>
    <contour>
      <point x="529" y="449" type="curve" smooth="yes"/>
      <point x="580" y="449"/>
      <point x="640" y="427"/>
      <point x="640" y="357" type="curve" smooth="yes"/>
      <point x="640" y="254"/>
      <point x="465" y="188"/>
      <point x="403" y="188" type="curve"/>
      <point x="402" y="185"/>
      <point x="401" y="168"/>
      <point x="401" y="163" type="curve" smooth="yes"/>
      <point x="401" y="126"/>
      <point x="412" y="77"/>
      <point x="462" y="77" type="curve" smooth="yes"/>
      <point x="507" y="77"/>
      <point x="560" y="139"/>
      <point x="563" y="142" type="curve"/>
      <point x="572" y="142"/>
      <point x="578" y="118"/>
      <point x="578" y="112" type="curve"/>
      <point x="565" y="90"/>
      <point x="455" y="-6"/>
      <point x="392" y="-6" type="curve" smooth="yes"/>
      <point x="348" y="-6"/>
      <point x="314" y="15"/>
      <point x="295" y="53" type="curve"/>
      <point x="252" y="17"/>
      <point x="203" y="-6"/>
      <point x="158" y="-6" type="curve" smooth="yes"/>
      <point x="75" y="-6"/>
      <point x="15" y="46"/>
      <point x="15" y="142" type="curve" smooth="yes"/>
      <point x="15" y="286"/>
      <point x="153" y="449"/>
      <point x="273" y="449" type="curve" smooth="yes"/>
      <point x="328" y="449"/>
      <point x="374" y="434"/>
      <point x="400" y="391" type="curve"/>
      <point x="441" y="426"/>
      <point x="486" y="449"/>
    </contour>
  </outline>
</glyph>
<glyph name="Ohorn" format="1">
  <advance width="705"/>
  <unicode hex="01A0"/>
  <outline>
    <contour>
      <point x="402" y="624" type="curve" smooth="yes"/>
      <point x="264" y="624"/>
      <point x="193" y="409"/>
      <point x="193" y="244" type="curve" smooth="yes"/>
      <point x="193" y="129"/>
      <point x="231" y="33"/>
      <point x="326" y="33" type="curve" smooth="yes"/>
      <point x="461" y="33"/>
      <point x="535" y="245"/>
      <point x="535" y="410" type="curve" smooth="yes"/>
      <point x="535" y="525"/>
      <point x="492" y="624"/>
    </contour>
    <contour>
      <point x="572" y="618" type="curve"/>
      <point x="596" y="607"/>
      <point x="623" y="595"/>
      <point x="643" y="596" type="curve" smooth="yes"/>
      <point x="664" y="597"/>
      <point x="682" y="608"/>
      <point x="684" y="621" type="curve" smooth="yes"/>
      <point x="687" y="643"/>
      <point x="661" y="645"/>
      <point x="666" y="677" type="curve" smooth="yes"/>
      <point x="671" y="709"/>
      <point x="721" y="727"/>
      <point x="748" y="709" type="curve"/>
      <point x="751" y="701"/>
      <point x="757" y="686"/>
      <point x="757" y="678" type="curve" smooth="yes"/>
      <point x="758" y="606"/>
      <point x="684" y="560"/>
      <point x="629" y="556" type="curve"/>
      <point x="662" y="507"/>
      <point x="679" y="449"/>
      <point x="679" y="393" type="curve" smooth="yes"/>
      <point x="679" y="137"/>
      <point x="461" y="-10"/>
      <point x="295" y="-10" type="curve" smooth="yes"/>
      <point x="155" y="-10"/>
      <point x="49" y="115"/>
      <point x="49" y="261" type="curve" smooth="yes"/>
      <point x="49" y="510"/>
      <point x="259" y="667"/>
      <point x="424" y="667" type="curve" smooth="yes"/>
      <point x="483" y="667"/>
      <point x="533" y="648"/>
    </contour>
  </outline>
</glyph>
<glyph name="ohorn" format="1">
  <advance width="455"/>
  <unicode hex="01A1"/>
  <outline>
    <contour>
      <point x="262" y="409" type="curve" smooth="yes"/>
      <point x="187" y="409"/>
      <point x="140" y="235"/>
      <point x="140" y="125" type="curve" smooth="yes"/>
      <point x="140" y="101"/>
      <point x="140" y="34"/>
      <point x="174" y="34" type="curve" smooth="yes"/>
      <point x="249" y="34"/>
      <point x="296" y="209"/>
      <point x="296" y="312" type="curve" smooth="yes"/>
      <point x="296" y="345"/>
      <point x="296" y="409"/>
    </contour>
    <contour>
      <point x="397" y="396" type="curve"/>
      <point x="405" y="390"/>
      <point x="415" y="385"/>
      <point x="427" y="384" type="curve" smooth="yes"/>
      <point x="434" y="383"/>
      <point x="451" y="388"/>
      <point x="455" y="398" type="curve" smooth="yes"/>
      <point x="461" y="414"/>
      <point x="444" y="421"/>
      <point x="449" y="453" type="curve" smooth="yes"/>
      <point x="454" y="485"/>
      <point x="498" y="500"/>
      <point x="525" y="482" type="curve"/>
      <point x="555" y="404"/>
      <point x="477" y="341"/>
      <point x="415" y="351" type="curve"/>
      <point x="419" y="335"/>
      <point x="421" y="318"/>
      <point x="421" y="297" type="curve" smooth="yes"/>
      <point x="421" y="153"/>
      <point x="278" y="-6"/>
      <point x="158" y="-6" type="curve" smooth="yes"/>
      <point x="75" y="-6"/>
      <point x="15" y="46"/>
      <point x="15" y="142" type="curve" smooth="yes"/>
      <point x="15" y="286"/>
      <point x="153" y="449"/>
      <point x="273" y="449" type="curve" smooth="yes"/>
      <point x="326" y="449"/>
      <point x="371" y="436"/>
    </contour>
  </outline>
</glyph>
<glyph name="uni0237" format="1">
  <advance width="286"/>
  <unicode hex="0237"/>
  <outline>
    <contour>
      <point x="116" y="309" type="line" smooth="yes"/>
      <point x="117" y="313"/>
      <point x="121" y="337"/>
      <point x="121" y="342" type="curve" smooth="yes"/>
      <point x="121" y="351"/>
      <point x="116" y="363"/>
      <point x="106" y="363" type="curve" smooth="yes"/>
      <point x="84" y="363"/>
      <point x="38" y="308"/>
      <point x="35" y="302" type="curve"/>
      <point x="28" y="302"/>
      <point x="21" y="323"/>
      <point x="21" y="329" type="curve"/>
      <point x="38" y="361"/>
      <point x="122" y="449"/>
      <point x="176" y="449" type="curve" smooth="yes"/>
      <point x="216" y="449"/>
      <point x="243" y="424"/>
      <point x="243" y="378" type="curve" smooth="yes"/>
      <point x="243" y="364"/>
      <point x="236" y="328"/>
      <point x="234" y="318" type="curve" smooth="yes"/>
      <point x="234" y="318"/>
      <point x="211" y="195"/>
      <point x="196" y="120" type="curve" smooth="yes"/>
      <point x="180" y="36"/>
      <point x="150" y="-20"/>
      <point x="109" y="-75" type="curve" smooth="yes"/>
      <point x="66" y="-132"/>
      <point x="-51" y="-210"/>
      <point x="-79" y="-218" type="curve"/>
      <point x="-84" y="-218"/>
      <point x="-88" y="-205"/>
      <point x="-88" y="-196" type="curve"/>
      <point x="17" y="-115"/>
      <point x="47" y="-49"/>
      <point x="76" y="100" type="curve" smooth="yes"/>
    </contour>
  </outline>
</glyph>
<glyph name="uni02BF" format="1">
  <advance width="187"/>
  <unicode hex="02BF"/>
  <outline>
    <contour>
      <point x="172" y="701" type="curve"/>
      <point x="174" y="689"/>
      <point x="169" y="673"/>
      <point x="164" y="663" type="curve"/>
      <point x="120" y="663"/>
      <point x="86" y="619"/>
      <point x="77" y="574" type="curve" smooth="yes"/>
      <point x="68" y="530"/>
      <point x="86" y="485"/>
      <point x="130" y="485" type="curve"/>
      <point x="131" y="475"/>
      <point x="127" y="456"/>
      <point x="122" y="446" type="curve"/>
      <point x="41" y="446"/>
      <point x="8" y="514"/>
      <point x="20" y="574" type="curve" smooth="yes"/>
      <point x="30" y="628"/>
      <point x="89" y="701"/>
    </contour>
  </outline>
</glyph>
<glyph name="acutecomb" format="1">
  <advance width="0"/>
  <unicode hex="0301"/>
  <outline>
    <contour>
      <point x="-327" y="490" type="curve"/>
      <point x="-330" y="492"/>
      <point x="-335" y="496"/>
      <point x="-336" y="502" type="curve"/>
      <point x="-333" y="512"/>
      <point x="-270" y="603"/>
      <point x="-240" y="631" type="curve" smooth="yes"/>
      <point x="-236" y="635"/>
      <point x="-222" y="638"/>
      <point x="-209" y="638" type="curve" smooth="yes"/>
      <point x="-192" y="638"/>
      <point x="-164" y="624"/>
      <point x="-164" y="597" type="curve" smooth="yes"/>
      <point x="-164" y="562"/>
      <point x="-310" y="494"/>
    </contour>
  </outline>
</glyph>
<glyph name="uni0302" format="1">
  <advance width="0"/>
  <unicode hex="0302"/>
  <outline>
    <contour>
      <point x="-237" y="658" type="curve" smooth="yes"/>
      <point x="-234" y="658"/>
      <point x="-230" y="656"/>
      <point x="-226" y="648" type="curve" smooth="yes"/>
      <point x="-194" y="586"/>
      <point x="-160" y="528"/>
      <point x="-152" y="513" type="curve"/>
      <point x="-154" y="503"/>
      <point x="-159" y="492"/>
      <point x="-164" y="490" type="curve"/>
      <point x="-181" y="504"/>
      <point x="-230" y="546"/>
      <point x="-252" y="570" type="curve"/>
      <point x="-283" y="546"/>
      <point x="-347" y="502"/>
      <point x="-369" y="490" type="curve"/>
      <point x="-373" y="492"/>
      <point x="-375" y="503"/>
      <point x="-373" y="513" type="curve"/>
      <point x="-362" y="524"/>
      <point x="-296" y="595"/>
      <point x="-250" y="648" type="curve" smooth="yes"/>
      <point x="-244" y="654"/>
      <point x="-241" y="658"/>
    </contour>
  </outline>
</glyph>
<glyph name="tildecomb" format="1">
  <advance width="0"/>
  <unicode hex="0303"/>
  <outline>
    <contour>
      <point x="-294" y="583" type="curve" smooth="yes"/>
      <point x="-270" y="583"/>
      <point x="-253" y="576"/>
      <point x="-236" y="567" type="curve" smooth="yes"/>
      <point x="-215" y="556"/>
      <point x="-199" y="540"/>
      <point x="-169" y="540" type="curve" smooth="yes"/>
      <point x="-136" y="540"/>
      <point x="-109" y="575"/>
      <point x="-102" y="583" type="curve"/>
      <point x="-99" y="582"/>
      <point x="-94" y="579"/>
      <point x="-95" y="571" type="curve" smooth="yes"/>
      <point x="-97" y="555"/>
      <point x="-108" y="538"/>
      <point x="-117" y="528" type="curve" smooth="yes"/>
      <point x="-144" y="500"/>
      <point x="-169" y="490"/>
      <point x="-197" y="490" type="curve" smooth="yes"/>
      <point x="-221" y="490"/>
      <point x="-236" y="496"/>
      <point x="-254" y="506" type="curve" smooth="yes"/>
      <point x="-274" y="517"/>
      <point x="-293" y="533"/>
      <point x="-323" y="533" type="curve" smooth="yes"/>
      <point x="-356" y="533"/>
      <point x="-383" y="498"/>
      <point x="-390" y="490" type="curve"/>
      <point x="-393" y="491"/>
      <point x="-397" y="495"/>
      <point x="-396" y="503" type="curve" smooth="yes"/>
      <point x="-394" y="519"/>
      <point x="-384" y="535"/>
      <point x="-375" y="545" type="curve" smooth="yes"/>
      <point x="-348" y="573"/>
      <point x="-322" y="583"/>
    </contour>
  </outline>
</glyph>
<glyph name="uni0304" format="1">
  <advance width="0"/>
  <unicode hex="0304"/>
  <outline>
    <contour>
      <point x="-142" y="490" type="curve"/>
      <point x="-370" y="490" type="line"/>
      <point x="-370" y="490"/>
      <point x="-373" y="493"/>
      <point x="-373" y="499" type="curve" smooth="yes"/>
      <point x="-373" y="506"/>
      <point x="-365" y="533"/>
      <point x="-360" y="533" type="curve" smooth="yes"/>
      <point x="-136" y="533" type="line" smooth="yes"/>
      <point x="-134" y="533"/>
      <point x="-131" y="530"/>
      <point x="-131" y="526" type="curve" smooth="yes"/>
      <point x="-131" y="521"/>
      <point x="-134" y="499"/>
    </contour>
  </outline>
</glyph>
<glyph name="uni030A" format="1">
  <advance width="0"/>
  <unicode hex="030A"/>
  <outline>
    <contour>
      <point x="-303" y="589" type="curve" smooth="yes"/>
      <point x="-309" y="559"/>
      <point x="-292" y="535"/>
      <point x="-264" y="535" type="curve" smooth="yes"/>
      <point x="-236" y="535"/>
      <point x="-210" y="559"/>
      <point x="-204" y="589" type="curve" smooth="yes"/>
      <point x="-198" y="619"/>
      <point x="-215" y="643"/>
      <point x="-243" y="643" type="curve" smooth="yes"/>
      <point x="-271" y="643"/>
      <point x="-297" y="619"/>
    </contour>
    <contour>
      <point x="-346" y="589" type="curve" smooth="yes"/>
      <point x="-336" y="643"/>
      <point x="-284" y="687"/>
      <point x="-234" y="687" type="curve" smooth="yes"/>
      <point x="-184" y="687"/>
      <point x="-152" y="643"/>
      <point x="-162" y="589" type="curve" smooth="yes"/>
      <point x="-172" y="535"/>
      <point x="-223" y="490"/>
      <point x="-273" y="490" type="curve" smooth="yes"/>
      <point x="-323" y="490"/>
      <point x="-356" y="535"/>
    </contour>
  </outline>
</glyph>
<glyph name="uni030C" format="1">
  <advance width="0"/>
  <unicode hex="030C"/>
  <outline>
    <contour>
      <point x="-264" y="490" type="curve" smooth="yes"/>
      <point x="-267" y="490"/>
      <point x="-271" y="492"/>
      <point x="-275" y="500" type="curve" smooth="yes"/>
      <point x="-307" y="562"/>
      <point x="-341" y="620"/>
      <point x="-349" y="635" type="curve"/>
      <point x="-347" y="645"/>
      <point x="-342" y="656"/>
      <point x="-337" y="658" type="curve"/>
      <point x="-320" y="644"/>
      <point x="-271" y="602"/>
      <point x="-249" y="578" type="curve"/>
      <point x="-218" y="602"/>
      <point x="-154" y="646"/>
      <point x="-132" y="658" type="curve"/>
      <point x="-128" y="656"/>
      <point x="-126" y="645"/>
      <point x="-128" y="635" type="curve"/>
      <point x="-139" y="624"/>
      <point x="-205" y="553"/>
      <point x="-251" y="500" type="curve" smooth="yes"/>
      <point x="-257" y="494"/>
      <point x="-260" y="490"/>
    </contour>
  </outline>
</glyph>
<glyph name="uni0315" format="1">
  <advance width="131"/>
  <unicode hex="0315"/>
  <outline>
    <contour>
      <point x="105" y="476" type="curve" smooth="yes"/>
      <point x="105" y="482"/>
      <point x="165" y="519"/>
      <point x="165" y="559" type="curve" smooth="yes"/>
      <point x="165" y="580"/>
      <point x="144" y="587"/>
      <point x="144" y="616" type="curve" smooth="yes"/>
      <point x="144" y="675"/>
      <point x="200" y="681"/>
      <point x="238" y="681" type="curve"/>
      <point x="240" y="675"/>
      <point x="241" y="665"/>
      <point x="241" y="654" type="curve" smooth="yes"/>
      <point x="241" y="641"/>
      <point x="240" y="625"/>
      <point x="237" y="610" type="curve" smooth="yes"/>
      <point x="225" y="546"/>
      <point x="166" y="478"/>
      <point x="125" y="454" type="curve"/>
      <point x="123" y="454" type="line" smooth="yes"/>
      <point x="117" y="454"/>
      <point x="105" y="469"/>
    </contour>
  </outline>
</glyph>
<glyph name="uni0326" format="1">
  <advance width="0"/>
  <unicode hex="0326"/>
  <outline>
    <contour>
      <point x="-313" y="-101" type="curve" smooth="yes"/>
      <point x="-313" y="-65"/>
      <point x="-244" y="-56"/>
      <point x="-199" y="-56" type="curve"/>
      <point x="-189" y="-67"/>
      <point x="-187" y="-81"/>
      <point x="-187" y="-103" type="curve" smooth="yes"/>
      <point x="-187" y="-151"/>
      <point x="-273" y="-209"/>
      <point x="-317" y="-218" type="curve"/>
      <point x="-318" y="-218"/>
      <point x="-319" y="-218"/>
      <point x="-320" y="-218" type="curve" smooth="yes"/>
      <point x="-327" y="-218"/>
      <point x="-341" y="-211"/>
      <point x="-341" y="-204" type="curve" smooth="yes"/>
      <point x="-341" y="-201"/>
      <point x="-284" y="-176"/>
      <point x="-284" y="-151" type="curve" smooth="yes"/>
      <point x="-284" y="-129"/>
      <point x="-313" y="-128"/>
    </contour>
  </outline>
</glyph>
<glyph name="uni0328" format="1">
  <advance width="0"/>
  <unicode hex="0328"/>
  <outline>
    <contour>
      <point x="-97" y="36" type="curve" smooth="yes"/>
      <point x="-81" y="36"/>
      <point x="-31" y="28"/>
      <point x="-48" y="22" type="curve" smooth="yes"/>
      <point x="-99" y="3"/>
      <point x="-177" y="-48"/>
      <point x="-189" y="-112" type="curve" smooth="yes"/>
      <point x="-192" y="-127"/>
      <point x="-191" y="-155"/>
      <point x="-159" y="-155" type="curve" smooth="yes"/>
      <point x="-112" y="-155"/>
      <point x="-84" y="-121"/>
      <point x="-78" y="-121" type="curve" smooth="yes"/>
      <point x="-77" y="-121"/>
      <point x="-74" y="-130"/>
      <point x="-76" y="-138" type="curve" smooth="yes"/>
      <point x="-77" y="-143"/>
      <point x="-78" y="-152"/>
      <point x="-82" y="-156" type="curve" smooth="yes"/>
      <point x="-108" y="-185"/>
      <point x="-151" y="-218"/>
      <point x="-193" y="-218" type="curve" smooth="yes"/>
      <point x="-245" y="-218"/>
      <point x="-255" y="-167"/>
      <point x="-251" y="-140" type="curve" smooth="yes"/>
      <point x="-238" y="-59"/>
      <point x="-124" y="36"/>
    </contour>
  </outline>
</glyph>
<glyph name="uni2010" format="1">
  <advance width="288"/>
  <unicode hex="2010"/>
  <outline>
    <contour>
      <point x="88" y="267" type="curve" smooth="yes"/>
      <point x="315" y="279" type="line" smooth="yes"/>
      <point x="320" y="279"/>
      <point x="321" y="272"/>
      <point x="321" y="267" type="curve" smooth="yes"/>
      <point x="321" y="254"/>
      <point x="305" y="205"/>
      <point x="295" y="204" type="curve" smooth="yes"/>
      <point x="69" y="193" type="line" smooth="yes"/>
      <point x="66" y="193"/>
      <point x="64" y="200"/>
      <point x="64" y="208" type="curve" smooth="yes"/>
      <point x="64" y="219"/>
      <point x="77" y="266"/>
    </contour>
  </outline>
</glyph>
<glyph name="quotesinglbase" format="1">
  <advance width="180"/>
  <unicode hex="201A"/>
  <outline>
    <contour>
      <point x="149" y="44" type="curve" smooth="yes"/>
      <point x="131" y="-50"/>
      <point x="25" y="-107"/>
      <point x="17" y="-107" type="curve" smooth="yes"/>
      <point x="10" y="-107"/>
      <point x="3" y="-100"/>
      <point x="1" y="-89" type="curve"/>
      <point x="64" y="-53"/>
      <point x="69" y="-24"/>
      <point x="71" y="-15" type="curve" smooth="yes"/>
      <point x="76" y="11"/>
      <point x="69" y="27"/>
      <point x="62" y="39" type="curve" smooth="yes"/>
      <point x="54" y="52"/>
      <point x="47" y="61"/>
      <point x="50" y="75" type="curve" smooth="yes"/>
      <point x="55" y="99"/>
      <point x="86" y="125"/>
      <point x="116" y="125" type="curve" smooth="yes"/>
      <point x="123" y="125"/>
      <point x="141" y="121"/>
      <point x="148" y="114" type="curve"/>
      <point x="154" y="101"/>
      <point x="155" y="74"/>
    </contour>
  </outline>
</glyph>
<glyph name="quotereversed" format="1">
  <advance width="175"/>
  <unicode hex="201B"/>
  <outline>
    <contour>
      <point x="148" y="625" type="curve" smooth="yes"/>
      <point x="156" y="655"/>
      <point x="169" y="682"/>
      <point x="181" y="695" type="curve"/>
      <point x="191" y="702"/>
      <point x="211" y="706"/>
      <point x="218" y="706" type="curve" smooth="yes"/>
      <point x="248" y="706"/>
      <point x="267" y="680"/>
      <point x="261" y="656" type="curve" smooth="yes"/>
      <point x="257" y="642"/>
      <point x="244" y="633"/>
      <point x="230" y="620" type="curve" smooth="yes"/>
      <point x="217" y="608"/>
      <point x="204" y="592"/>
      <point x="197" y="566" type="curve" smooth="yes"/>
      <point x="195" y="557"/>
      <point x="186" y="528"/>
      <point x="232" y="492" type="curve"/>
      <point x="225" y="481"/>
      <point x="215" y="474"/>
      <point x="208" y="474" type="curve" smooth="yes"/>
      <point x="200" y="474"/>
      <point x="122" y="531"/>
    </contour>
  </outline>
</glyph>
<glyph name="uni201F" format="1">
  <advance width="313"/>
  <unicode hex="201F"/>
  <outline>
    <contour>
      <point x="286" y="625" type="curve" smooth="yes"/>
      <point x="294" y="655"/>
      <point x="307" y="682"/>
      <point x="319" y="695" type="curve"/>
      <point x="329" y="702"/>
      <point x="349" y="706"/>
      <point x="356" y="706" type="curve" smooth="yes"/>
      <point x="386" y="706"/>
      <point x="405" y="680"/>
      <point x="399" y="656" type="curve" smooth="yes"/>
      <point x="395" y="642"/>
      <point x="382" y="633"/>
      <point x="368" y="620" type="curve" smooth="yes"/>
      <point x="355" y="608"/>
      <point x="342" y="592"/>
      <point x="335" y="566" type="curve" smooth="yes"/>
      <point x="333" y="557"/>
      <point x="324" y="528"/>
      <point x="370" y="492" type="curve"/>
      <point x="363" y="481"/>
      <point x="353" y="474"/>
      <point x="346" y="474" type="curve" smooth="yes"/>
      <point x="338" y="474"/>
      <point x="260" y="531"/>
    </contour>
    <contour>
      <point x="148" y="625" type="curve" smooth="yes"/>
      <point x="156" y="655"/>
      <point x="169" y="682"/>
      <point x="181" y="695" type="curve"/>
      <point x="191" y="702"/>
      <point x="211" y="706"/>
      <point x="218" y="706" type="curve" smooth="yes"/>
      <point x="248" y="706"/>
      <point x="267" y="680"/>
      <point x="261" y="656" type="curve" smooth="yes"/>
      <point x="257" y="642"/>
      <point x="246" y="633"/>
      <point x="232" y="620" type="curve" smooth="yes"/>
      <point x="219" y="608"/>
      <point x="206" y="592"/>
      <point x="199" y="566" type="curve" smooth="yes"/>
      <point x="197" y="557"/>
      <point x="188" y="528"/>
      <point x="234" y="492" type="curve"/>
      <point x="227" y="481"/>
      <point x="217" y="474"/>
      <point x="210" y="474" type="curve" smooth="yes"/>
      <point x="202" y="474"/>
      <point x="122" y="531"/>
    </contour>
  </outline>
</glyph>
<glyph name="dagger" format="1">
  <advance width="366"/>
  <unicode hex="2020"/>
  <outline>
    <contour>
      <point x="236" y="488" type="curve" smooth="yes"/>
      <point x="248" y="488"/>
      <point x="254" y="492"/>
      <point x="266" y="505" type="curve"/>
      <point x="272" y="538"/>
      <point x="275" y="606"/>
      <point x="261" y="625" type="curve"/>
      <point x="265" y="646"/>
      <point x="291" y="662"/>
      <point x="312" y="662" type="curve" smooth="yes"/>
      <point x="332" y="662"/>
      <point x="351" y="646"/>
      <point x="347" y="625" type="curve"/>
      <point x="326" y="606"/>
      <point x="302" y="538"/>
      <point x="296" y="505" type="curve"/>
      <point x="303" y="492"/>
      <point x="308" y="488"/>
      <point x="320" y="488" type="curve" smooth="yes"/>
      <point x="351" y="488"/>
      <point x="381" y="504"/>
      <point x="402" y="523" type="curve"/>
      <point x="422" y="523"/>
      <point x="433" y="497"/>
      <point x="429" y="476" type="curve" smooth="yes"/>
      <point x="425" y="455"/>
      <point x="405" y="432"/>
      <point x="385" y="432" type="curve"/>
      <point x="371" y="451"/>
      <point x="346" y="462"/>
      <point x="315" y="463" type="curve" smooth="yes"/>
      <point x="301" y="463"/>
      <point x="286" y="447"/>
      <point x="284" y="435" type="curve"/>
      <point x="287" y="418"/>
      <point x="295" y="394"/>
      <point x="301" y="365" type="curve"/>
      <point x="254" y="227"/>
      <point x="247" y="185"/>
      <point x="190" y="-10" type="curve"/>
      <point x="186" y="-17"/>
      <point x="184" y="-23"/>
      <point x="179" y="-24" type="curve"/>
      <point x="175" y="-23"/>
      <point x="174" y="-15"/>
      <point x="172" y="-10" type="curve"/>
      <point x="191" y="185"/>
      <point x="200" y="227"/>
      <point x="206" y="365" type="curve"/>
      <point x="221" y="390"/>
      <point x="240" y="418"/>
      <point x="250" y="435" type="curve"/>
      <point x="252" y="447"/>
      <point x="245" y="463"/>
      <point x="231" y="463" type="curve" smooth="yes"/>
      <point x="199" y="462"/>
      <point x="170" y="451"/>
      <point x="149" y="432" type="curve"/>
      <point x="129" y="432"/>
      <point x="119" y="455"/>
      <point x="123" y="476" type="curve" smooth="yes"/>
      <point x="127" y="497"/>
      <point x="147" y="523"/>
      <point x="167" y="523" type="curve"/>
      <point x="181" y="504"/>
      <point x="205" y="488"/>
    </contour>
  </outline>
</glyph>
<glyph name="bullet" format="1">
  <advance width="377"/>
  <unicode hex="2022"/>
  <outline>
    <contour>
      <point x="108" y="263" type="curve" smooth="yes"/>
      <point x="123" y="340"/>
      <point x="194" y="404"/>
      <point x="266" y="404" type="curve" smooth="yes"/>
      <point x="338" y="404"/>
      <point x="383" y="340"/>
      <point x="368" y="263" type="curve" smooth="yes"/>
      <point x="353" y="186"/>
      <point x="283" y="123"/>
      <point x="211" y="123" type="curve" smooth="yes"/>
      <point x="139" y="123"/>
      <point x="93" y="186"/>
    </contour>
  </outline>
</glyph>
<glyph name="minute" format="1">
  <advance width="141"/>
  <unicode hex="2032"/>
  <outline>
    <contour>
      <point x="220" y="699" type="curve" smooth="yes"/>
      <point x="239" y="699"/>
      <point x="259" y="687"/>
      <point x="255" y="667" type="curve" smooth="yes"/>
      <point x="246" y="620"/>
      <point x="180" y="528"/>
      <point x="149" y="494" type="curve" smooth="yes"/>
      <point x="144" y="489"/>
      <point x="138" y="484"/>
      <point x="134" y="484" type="curve" smooth="yes"/>
      <point x="128" y="484"/>
      <point x="125" y="489"/>
      <point x="126" y="496" type="curve" smooth="yes"/>
      <point x="127" y="499"/>
      <point x="155" y="612"/>
      <point x="173" y="666" type="curve" smooth="yes"/>
      <point x="177" y="678"/>
      <point x="202" y="699"/>
    </contour>
  </outline>
</glyph>
<glyph name="uni2038" format="1">
  <advance width="356"/>
  <unicode hex="2038"/>
  <outline>
    <contour>
      <point x="281" y="-61" type="curve" smooth="yes"/>
      <point x="269" y="-61"/>
      <point x="221" y="-17"/>
      <point x="193" y="28" type="curve"/>
      <point x="151" y="-17"/>
      <point x="81" y="-61"/>
      <point x="69" y="-61" type="curve" smooth="yes"/>
      <point x="62" y="-61"/>
      <point x="65" y="-37"/>
      <point x="65" y="-37" type="curve"/>
      <point x="72" y="-26"/>
      <point x="140" y="16"/>
      <point x="196" y="103" type="curve" smooth="yes"/>
      <point x="200" y="110"/>
      <point x="198" y="113"/>
      <point x="205" y="113" type="curve" smooth="yes"/>
      <point x="225" y="113"/>
      <point x="215" y="96"/>
      <point x="248" y="33" type="curve" smooth="yes"/>
      <point x="261" y="9"/>
      <point x="296" y="-32"/>
      <point x="297" y="-36" type="curve"/>
      <point x="296" y="-39"/>
      <point x="288" y="-61"/>
    </contour>
  </outline>
</glyph>
<glyph name="guilsinglleft" format="1">
  <advance width="335"/>
  <unicode hex="2039"/>
  <outline>
    <contour>
      <point x="303" y="92" type="curve"/>
      <point x="297" y="82"/>
      <point x="281" y="74"/>
      <point x="275" y="73" type="curve"/>
      <point x="271" y="77"/>
      <point x="216" y="154"/>
      <point x="110" y="233" type="curve"/>
      <point x="107" y="237"/>
      <point x="106" y="243"/>
      <point x="107" y="248" type="curve" smooth="yes"/>
      <point x="108" y="253"/>
      <point x="112" y="259"/>
      <point x="116" y="263" type="curve"/>
      <point x="253" y="342"/>
      <point x="338" y="419"/>
      <point x="343" y="423" type="curve"/>
      <point x="348" y="422"/>
      <point x="362" y="414"/>
      <point x="364" y="404" type="curve"/>
      <point x="359" y="398"/>
      <point x="250" y="284"/>
      <point x="209" y="248" type="curve"/>
      <point x="236" y="212"/>
      <point x="300" y="98"/>
    </contour>
  </outline>
</glyph>
<glyph name="Euro" format="1">
  <advance width="613"/>
  <unicode hex="20AC"/>
  <outline>
    <contour>
      <point x="26" y="250" type="line" smooth="yes"/>
      <point x="23" y="250"/>
      <point x="22" y="254"/>
      <point x="22" y="258" type="curve" smooth="yes"/>
      <point x="22" y="265"/>
      <point x="28" y="287"/>
      <point x="35" y="293" type="curve"/>
      <point x="71.3349" y="293" type="line"/>
      <point x="72.1303" y="313.076"/>
      <point x="74.3287" y="332.415"/>
      <point x="77.7843" y="351" type="curve"/>
      <point x="41" y="351" type="line" smooth="yes"/>
      <point x="38" y="351"/>
      <point x="37" y="355"/>
      <point x="37" y="359" type="curve" smooth="yes"/>
      <point x="37" y="366"/>
      <point x="43" y="388"/>
      <point x="50" y="394" type="curve"/>
      <point x="88.3718" y="394" type="line"/>
      <point x="142.725" y="569.905"/>
      <point x="314.078" y="667"/>
      <point x="451" y="667" type="curve" smooth="yes"/>
      <point x="512" y="667"/>
      <point x="593" y="650"/>
      <point x="646" y="638" type="curve"/>
      <point x="646" y="627"/>
      <point x="635" y="506"/>
      <point x="633" y="494" type="curve" smooth="yes"/>
      <point x="632" y="488"/>
      <point x="622" y="480"/>
      <point x="611" y="480" type="curve" smooth="yes"/>
      <point x="606" y="480"/>
      <point x="602" y="480"/>
      <point x="599" y="484" type="curve" smooth="yes"/>
      <point x="597" y="523"/>
      <point x="569" y="624"/>
      <point x="451" y="624" type="curve" smooth="yes"/>
      <point x="351.362" y="624"/>
      <point x="262.803" y="534.134"/>
      <point x="229.269" y="394" type="curve"/>
      <point x="388" y="394" type="line" smooth="yes"/>
      <point x="390" y="394"/>
      <point x="391" y="390"/>
      <point x="391" y="386" type="curve" smooth="yes"/>
      <point x="391" y="381"/>
      <point x="388" y="360"/>
      <point x="379" y="351" type="curve"/>
      <point x="220.978" y="351" type="line"/>
      <point x="218.211" y="332.36"/>
      <point x="216.364" y="313.001"/>
      <point x="215.522" y="293" type="curve"/>
      <point x="373" y="293" type="line" smooth="yes"/>
      <point x="375" y="293"/>
      <point x="376" y="289"/>
      <point x="376" y="285" type="curve" smooth="yes"/>
      <point x="376" y="280"/>
      <point x="373" y="259"/>
      <point x="364" y="250" type="curve"/>
      <point x="215.468" y="250" type="line"/>
      <point x="220.127" y="158.949"/>
      <point x="260.347" y="37"/>
      <point x="369" y="37" type="curve" smooth="yes"/>
      <point x="423" y="37"/>
      <point x="463" y="56"/>
      <point x="493" y="81" type="curve" smooth="yes"/>
      <point x="539" y="119"/>
      <point x="575" y="196"/>
      <point x="578" y="204" type="curve"/>
      <point x="592" y="204"/>
      <point x="603" y="199"/>
      <point x="609" y="192" type="curve"/>
      <point x="607" y="181"/>
      <point x="555" y="48"/>
      <point x="541" y="40" type="curve" smooth="yes"/>
      <point x="485" y="9"/>
      <point x="427" y="-7"/>
      <point x="341" y="-7" type="curve" smooth="yes"/>
      <point x="171.642" y="-7"/>
      <point x="82.83" y="123.448"/>
      <point x="72.1055" y="250" type="curve"/>
    </contour>
  </outline>
</glyph>
<glyph name="arrowleft" format="1">
  <advance width="717"/>
  <unicode hex="2190"/>
  <outline>
    <contour>
      <point x="202" y="319" type="curve" smooth="yes"/>
      <point x="165" y="284" type="line"/>
      <point x="679" y="284" type="line" smooth="yes"/>
      <point x="685" y="284"/>
      <point x="686" y="281"/>
      <point x="686" y="271" type="curve" smooth="yes"/>
      <point x="686" y="261"/>
      <point x="672" y="219"/>
      <point x="660" y="210" type="curve"/>
      <point x="150" y="210" type="line"/>
      <point x="173" y="177" type="line" smooth="yes"/>
      <point x="208" y="126"/>
      <point x="227" y="108"/>
      <point x="227" y="99" type="curve" smooth="yes"/>
      <point x="227" y="85"/>
      <point x="193" y="74"/>
      <point x="189" y="73" type="curve"/>
      <point x="188" y="75"/>
      <point x="135" y="132"/>
      <point x="17" y="227" type="curve" smooth="yes"/>
      <point x="14" y="228"/>
      <point x="13" y="235"/>
      <point x="13" y="238" type="curve" smooth="yes"/>
      <point x="13" y="247"/>
      <point x="17" y="259"/>
      <point x="26" y="268" type="curve"/>
      <point x="163" y="347"/>
      <point x="253" y="419"/>
      <point x="258" y="423" type="curve"/>
      <point x="263" y="422"/>
      <point x="286" y="411"/>
      <point x="286" y="399" type="curve" smooth="yes"/>
      <point x="286" y="395"/>
      <point x="283" y="395"/>
    </contour>
  </outline>
</glyph>
<glyph name="arrowup" format="1">
  <advance width="334"/>
  <unicode hex="2191"/>
  <outline>
    <contour>
      <point x="157" y="577" type="line"/>
      <point x="119" y="540" type="line"/>
      <point x="60" y="486"/>
      <point x="37" y="466"/>
      <point x="30" y="466" type="curve" smooth="yes"/>
      <point x="19" y="466"/>
      <point x="15" y="496"/>
      <point x="15" y="502" type="curve"/>
      <point x="17" y="503"/>
      <point x="81" y="561"/>
      <point x="198" y="708" type="curve" smooth="yes"/>
      <point x="201" y="713"/>
      <point x="206" y="714"/>
      <point x="212" y="714" type="curve" smooth="yes"/>
      <point x="221" y="714"/>
      <point x="229" y="713"/>
      <point x="235" y="706" type="curve"/>
      <point x="283" y="575"/>
      <point x="337" y="505"/>
      <point x="340" y="500" type="curve"/>
      <point x="338" y="494"/>
      <point x="320" y="466"/>
      <point x="309" y="466" type="curve" smooth="yes"/>
      <point x="302" y="466"/>
      <point x="289" y="486"/>
      <point x="251" y="540" type="curve" smooth="yes"/>
      <point x="225" y="576" type="line"/>
      <point x="105" y="-30" type="line" smooth="yes"/>
      <point x="104" y="-33"/>
      <point x="103" y="-36"/>
      <point x="92" y="-36" type="curve" smooth="yes"/>
      <point x="75" y="-36"/>
      <point x="37" y="-22"/>
      <point x="37" y="-22" type="curve"/>
    </contour>
  </outline>
</glyph>
<glyph name="partialdiff" format="1">
  <advance width="460"/>
  <unicode hex="2202"/>
  <outline>
    <contour>
      <point x="220" y="317" type="curve" smooth="yes"/>
      <point x="184" y="317"/>
      <point x="155" y="270"/>
      <point x="143" y="209" type="curve" smooth="yes"/>
      <point x="120" y="91"/>
      <point x="148" y="55"/>
      <point x="187" y="55" type="curve" smooth="yes"/>
      <point x="240" y="55"/>
      <point x="267" y="145"/>
      <point x="281" y="219" type="curve"/>
      <point x="297" y="303"/>
      <point x="255" y="317"/>
    </contour>
    <contour>
      <point x="288" y="642" type="curve" smooth="yes"/>
      <point x="403" y="642"/>
      <point x="433" y="532"/>
      <point x="433" y="422" type="curve" smooth="yes"/>
      <point x="433" y="188"/>
      <point x="320" y="0"/>
      <point x="150" y="0" type="curve" smooth="yes"/>
      <point x="59" y="0"/>
      <point x="-2" y="60"/>
      <point x="24" y="194" type="curve" smooth="yes"/>
      <point x="43" y="294"/>
      <point x="146" y="370"/>
      <point x="245" y="370" type="curve" smooth="yes"/>
      <point x="283" y="370"/>
      <point x="301" y="361"/>
      <point x="304" y="361" type="curve" smooth="yes"/>
      <point x="308" y="361"/>
      <point x="312" y="364"/>
      <point x="314" y="369" type="curve" smooth="yes"/>
      <point x="320" y="386"/>
      <point x="327" y="427"/>
      <point x="327" y="466" type="curve" smooth="yes"/>
      <point x="327" y="496"/>
      <point x="323" y="525"/>
      <point x="312" y="542" type="curve" smooth="yes"/>
      <point x="291" y="575"/>
      <point x="252" y="580"/>
      <point x="224" y="580" type="curve" smooth="yes"/>
      <point x="185" y="580"/>
      <point x="150" y="552"/>
      <point x="122" y="534" type="curve"/>
      <point x="118" y="538"/>
      <point x="115" y="564"/>
      <point x="128" y="576" type="curve" smooth="yes"/>
      <point x="162" y="606"/>
      <point x="230" y="642"/>
    </contour>
  </outline>
</glyph>
<glyph name="notelement" format="1">
  <advance width="440"/>
  <unicode hex="2209"/>
  <outline>
    <contour>
      <point x="75" y="-8" type="line"/>
      <point x="72" y="-10"/>
      <point x="70" y="-10"/>
      <point x="66" y="-10" type="curve" smooth="yes"/>
      <point x="63" y="-10"/>
      <point x="48" y="-6"/>
      <point x="39" y="10" type="curve" smooth="yes"/>
      <point x="36" y="14"/>
      <point x="36" y="17"/>
      <point x="36" y="17" type="curve"/>
      <point x="65" y="58" type="line"/>
      <point x="31" y="97"/>
      <point x="17" y="157"/>
      <point x="29" y="221" type="curve" smooth="yes"/>
      <point x="50" y="330"/>
      <point x="143" y="430"/>
      <point x="244" y="430" type="curve" smooth="yes"/>
      <point x="332" y="430" type="line"/>
      <point x="370" y="484" type="line"/>
      <point x="370" y="484"/>
      <point x="375" y="487"/>
      <point x="379" y="487" type="curve" smooth="yes"/>
      <point x="390" y="487"/>
      <point x="399" y="479"/>
      <point x="405" y="470" type="curve" smooth="yes"/>
      <point x="409" y="465"/>
      <point x="410" y="459"/>
      <point x="410" y="459" type="curve"/>
      <point x="389" y="430" type="line"/>
      <point x="434" y="430" type="line"/>
      <point x="434" y="430"/>
      <point x="438" y="421"/>
      <point x="436" y="409" type="curve" smooth="yes"/>
      <point x="430" y="378"/>
      <point x="415" y="370"/>
      <point x="415" y="370" type="curve"/>
      <point x="346" y="370" type="line"/>
      <point x="260" y="250" type="line"/>
      <point x="362" y="250" type="line"/>
      <point x="362" y="249"/>
      <point x="366" y="237"/>
      <point x="363" y="220" type="curve" smooth="yes"/>
      <point x="358" y="193"/>
      <point x="350" y="189"/>
      <point x="349" y="189" type="curve" smooth="yes"/>
      <point x="216" y="189" type="line"/>
      <point x="139" y="81" type="line"/>
      <point x="151" y="75"/>
      <point x="165" y="71"/>
      <point x="182" y="71" type="curve" smooth="yes"/>
      <point x="357" y="71" type="line"/>
      <point x="357" y="71"/>
      <point x="370" y="64"/>
      <point x="363" y="29" type="curve" smooth="yes"/>
      <point x="361" y="20"/>
      <point x="353" y="11"/>
      <point x="353" y="11" type="curve"/>
      <point x="172" y="11" type="line" smooth="yes"/>
      <point x="145" y="11"/>
      <point x="121" y="18"/>
      <point x="101" y="29" type="curve"/>
    </contour>
    <contour>
      <point x="203" y="250" type="line"/>
      <point x="288" y="370" type="line"/>
      <point x="233" y="370" type="line" smooth="yes"/>
      <point x="174" y="370"/>
      <point x="126" y="317"/>
      <point x="104" y="255" type="curve" smooth="yes"/>
      <point x="103" y="252"/>
      <point x="105" y="250"/>
      <point x="108" y="250" type="curve" smooth="yes"/>
    </contour>
    <contour>
      <point x="106" y="115" type="curve"/>
      <point x="158" y="189" type="line"/>
      <point x="96" y="189" type="line" smooth="yes"/>
      <point x="95" y="189"/>
      <point x="91" y="188"/>
      <point x="91" y="185" type="curve" smooth="yes"/>
      <point x="91" y="159"/>
      <point x="96" y="134"/>
    </contour>
  </outline>
</glyph>
<glyph name="minus" format="1">
  <advance width="530"/>
  <unicode hex="2212"/>
  <outline>
    <contour>
      <point x="30" y="219" type="curve"/>
      <point x="30" y="219"/>
      <point x="47" y="283"/>
      <point x="56" y="283" type="curve" smooth="yes"/>
      <point x="481" y="283" type="line" smooth="yes"/>
      <point x="484" y="283"/>
      <point x="487" y="283"/>
      <point x="486" y="276" type="curve" smooth="yes"/>
      <point x="484" y="268"/>
      <point x="474" y="232"/>
      <point x="466" y="215" type="curve" smooth="yes"/>
      <point x="463" y="209"/>
      <point x="458" y="209"/>
      <point x="458" y="209" type="curve"/>
      <point x="34" y="209" type="line"/>
      <point x="34" y="209"/>
      <point x="28" y="209"/>
    </contour>
  </outline>
</glyph>
